<!-- Generator: Adobe Illustrator 18.1.1, SVG Export Plug-In  -->
<svg version="1.0"
	 xmlns="http://www.w3.org/2000/svg" xmlns:xlink="http://www.w3.org/1999/xlink" xmlns:a="http://ns.adobe.com/AdobeSVGViewerExtensions/3.0/"
	 x="0px" y="0px" width="5573.6px" height="1721.7px" viewBox="0 0 5573.6 1721.7" enable-background="new 0 0 5573.6 1721.7"
	 xml:space="preserve">
<defs>
	
		<pattern  x="3131.7" y="1529" width="46.5" height="46.5" patternUnits="userSpaceOnUse" id="Polka_dots" viewBox="0 -54.1 46.5 46.5" overflow="visible">
		<g>
			<polygon fill="none" points="0,-54.1 46.5,-54.1 46.5,-7.6 0,-7.6 			"/>
			<path fill="#FED402" d="M33.3-5c0,2.8-2.2,5-5,5s-5-2.2-5-5s2.2-5,5-5S33.3-7.8,33.3-5z"/>
			<path fill="#FED402" d="M10-5c0,2.8-2.2,5-5,5S0-2.2,0-5s2.2-5,5-5S10-7.8,10-5z"/>
			<path fill="#FED402" d="M44.9-28.3c0,2.8-2.2,5-5,5c-2.8,0-5-2.2-5-5s2.2-5,5-5C42.6-33.3,44.9-31,44.9-28.3z"/>
			<path fill="#FED402" d="M21.6-28.3c0,2.8-2.2,5-5,5s-5-2.2-5-5s2.2-5,5-5S21.6-31,21.6-28.3z"/>
			<path fill="#FED402" d="M33.3-51.5c0,2.8-2.2,5-5,5s-5-2.2-5-5c0-2.8,2.2-5,5-5S33.3-54.3,33.3-51.5z"/>
			<path fill="#FED402" d="M10-51.5c0,2.8-2.2,5-5,5s-5-2.2-5-5c0-2.8,2.2-5,5-5S10-54.3,10-51.5z"/>
		</g>
	</pattern>
</defs>
<g>
	<path fill="#F5A51D" d="M1836.3,1234.9l-5.8,202.1c8.3,0.9,190.2,9.8,190.2,9.8l8-229.4L1836.3,1234.9z"/>
	<pattern  id="SVGID_1_" xlink:href="#Polka_dots" patternTransform="matrix(0.4914 0 0 0.4914 -2609.4277 -3350.8901)">
	</pattern>
	<polygon opacity="0.67" fill="url(#SVGID_1_)" points="1835.4,1244.4 1832.7,1363.7 1991.8,1303.9 2015.8,1228.4 	"/>
	<path fill="#FFFAD7" d="M2047.5,1187.7l-225.8-3.2c-9.7-0.1-17.6,7.7-17.6,17.4v33.7c0,15.8,11.9,29.1,27.7,30.8h0
		c14,1.5,27.3-6.7,32.3-19.9l0,0c1.6-4.3,5.5-7.2,10-7.6l2.2-0.2c6.4-0.6,12.5,2.9,15.2,8.7l4.9,10.3c4.4,9.2,13.6,15,23.8,15h11
		c8.1,0,15.8-3.7,20.8-10.2l8.8-11.3c5.7-7.3,14.6-11.4,23.9-10.8l1.1,0.1c8.6,0.5,16.4,5,21.3,12l0,0c5,7.2,14.7,9.5,22.4,5.3
		l1.2-0.7c3.5-1.9,7.6-2.8,11.6-2.4l0,0c7.8,0.7,14.7-5,15.6-12.8l4.1-38C2062.8,1195.4,2056.2,1187.8,2047.5,1187.7z"/>
	<polygon fill="#DC8B27" points="1905.5,1311 1831.9,1311.5 1831.6,1280.2 1907.2,1287.3 	"/>
	<polygon fill="#DC8B27" points="1981.7,1317.7 2029.6,1314 2026.8,1349 1979,1351.7 	"/>
	<polygon fill="#DC8B27" points="1828.1,1349.9 1827.1,1387.2 1852.9,1393.1 1850.1,1352.9 	"/>
	<path fill="none" stroke="#FEE6A3" stroke-width="3" stroke-linecap="round" stroke-miterlimit="10" d="M1818.7,1205.1
		c0,0-6.1,41.9,15.2,46.7c9.8,2.2,16.3-9.8,16.3-9.8"/>
	<path fill="none" stroke="#FEE6A3" stroke-width="3" stroke-linecap="round" stroke-miterlimit="10" d="M1943.4,1250.5
		c0,0,8.6-20.9,25.8-23.3c17.2-2.5,29.4-4.9,45.4,17.2"/>
</g>
<polygon fill="#FEE6A3" points="1527.6,1458.5 1513.7,1721.7 1615.5,1721.7 1622.4,1447.9 "/>
<g>
	<polygon fill="#176076" points="1355.3,74.8 1296.7,0 1512.7,4 1484.7,65.9 1430.7,92 	"/>
	<g>
		<defs>
			<path id="SVGID_2_" d="M1355.3,74.8l46.6,415.2c4.2,37.3,31.9,67.6,68.7,75l183.8,37.3c24.1,4.9,42.4,24.6,45.5,49l33.8,264.3
				c5.6,44.2-24.3,85-68.1,93l-68.5,12.4c-29.1,5.3-50.7,30.1-51.9,59.6l-20.2,384.2h93.7l9.6-338.2c0-22.2,16.4-40.9,38.4-43.9
				l85.8-12.4c56.6-7.5,89.6-59.7,81.7-116.3l-46.7-332.8c-6.2-44.1-32.6-79.7-76.2-89l-215-46.1c-14.4-3.1-24.6-16.1-24.1-30.8
				l12.6-389.7L1355.3,74.8z"/>
		</defs>
		<clipPath id="SVGID_3_">
			<use xlink:href="#SVGID_2_"  overflow="visible"/>
		</clipPath>
		<g clip-path="url(#SVGID_3_)">
			<path fill="#1F3F4D" d="M1355.3,74.8l46.6,415.2c4.2,37.3,31.9,67.6,68.7,75l183.8,37.3c24.1,4.9,42.4,24.6,45.5,49l33.8,264.3
				c5.6,44.2-24.3,85-68.1,93l-68.5,12.4c-29.1,5.3-50.7,30.1-51.9,59.6l-20.2,480.7h93.7l9.6-434.6c0-22.2,16.4-40.9,38.4-43.9
				l85.8-12.4c56.6-7.5,89.6-59.7,81.7-116.3l-46.7-332.8c-6.2-44.1-32.6-79.7-76.2-89l-215-46.1c-14.4-3.1-24.6-16.1-24.1-30.8
				l12.6-389.7L1355.3,74.8z"/>
			<polygon fill="#176076" points="1351.6,147.6 1514.6,116.3 1514.6,140.9 1351.6,158.7 			"/>
			<polygon fill="#176076" points="1360.5,223.5 1510.1,227.9 1507.9,241.3 1358.3,236.9 			"/>
			<polygon fill="#176076" points="1369.4,306.1 1498.9,290.5 1498.9,303.8 1365,315 			"/>
			<polygon fill="#176076" points="1360.2,371.1 1526.2,375.3 1520.9,399.3 1357.9,382 			"/>
			<polygon fill="#176076" points="1362.2,444.5 1511.6,435.5 1510.6,449 1361.2,458 			"/>
			<polygon fill="#176076" points="1708,504.3 1654,643.9 1642.1,637.4 1696.1,497.8 			"/>
			<polygon fill="#176076" points="1617.1,490 1588.7,617.3 1576.1,612.9 1610.1,482.8 			"/>
			<polygon fill="#176076" points="1545.3,474.9 1489.9,631.3 1468.7,618.9 1535.7,469.3 			"/>
			<polygon fill="#176076" points="1510.6,474.7 1390.4,564 1383.9,552.1 1504,462.8 			"/>
			<polygon fill="#176076" points="1840.6,886.1 1691,881.6 1693.2,868.2 1842.8,872.7 			"/>
			<polygon fill="#176076" points="1833.9,805.7 1704.4,821.3 1704.4,807.9 1838.3,796.8 			"/>
			<polygon fill="#176076" points="1840.9,723.8 1676.8,749.1 1677.7,724.6 1841.3,712.7 			"/>
			<polygon fill="#176076" points="1791.6,537.9 1692.3,649.9 1683.5,639.6 1782.7,527.6 			"/>
			<polygon fill="#176076" points="1682.9,689 1826.2,645.6 1820.5,633.3 1677.3,676.6 			"/>
			<polygon fill="#176076" points="1669.2,1157.8 1506.2,1126.5 1506.2,1151.1 1669.2,1168.9 			"/>
			<polygon fill="#176076" points="1657.9,1205.9 1508.3,1210.3 1510.5,1223.7 1660.1,1219.3 			"/>
			<polygon fill="#176076" points="1649,1288.5 1519.5,1272.9 1519.5,1286.3 1653.4,1297.4 			"/>
			<polygon fill="#176076" points="1658.2,1353.5 1492.2,1357.7 1497.5,1381.7 1660.5,1364.4 			"/>
			<polygon fill="#176076" points="1862.5,969.4 1703.1,923.3 1700.8,947.8 1861.5,980.5 			"/>
			<polygon fill="#176076" points="1824.4,1044.4 1700,967.6 1694.3,979.7 1825,1054.6 			"/>
			<polygon fill="#176076" points="1673.8,994.2 1771.3,1107.7 1759.9,1115.1 1662.4,1001.6 			"/>
			<polygon fill="#176076" points="1673.9,1136.6 1632.1,992.9 1619.7,998.4 1661.5,1142.1 			"/>
			<polygon fill="#176076" points="1522.2,1054.5 1649.6,1133 1655.1,1120.6 1527.7,1042.1 			"/>
		</g>
	</g>
</g>
<g>
	<polygon fill="#1F3F4D" points="1334.5,1161.6 1327.1,1223.6 1351.9,1216.1 1358.1,1157.9 	"/>
	<polygon fill="#1F3F4D" points="1304.5,1170.3 1303.6,1217.7 1314.7,1215.8 1316.6,1168.4 	"/>
	<polygon fill="#F5A51D" points="1298,1207.5 1286.8,1434.2 1364.9,1436.1 1359.3,1203.8 	"/>
	<path fill="#F5A51D" d="M1288.7,1172.8c0,0,32.2,21.1,89.2-6.2l-43.4-64.4l-12.4-2.5L1288.7,1172.8z"/>
	<path fill="none" stroke="#FEE6A3" stroke-width="3" stroke-linecap="round" stroke-miterlimit="10" d="M1288.7,1359.9"/>
	<pattern  id="SVGID_4_" xlink:href="#Polka_dots" patternTransform="matrix(0.3931 0 0 0.3931 -3137.5022 -3982.9395)">
	</pattern>
	<polygon opacity="0.67" fill="url(#SVGID_4_)" points="1298,1207.5 1288.7,1359.9 1340.7,1358 1322.1,1205.6 	"/>
	<pattern  id="SVGID_5_" xlink:href="#Polka_dots" patternTransform="matrix(0.3931 0 0 0.3931 -3136.9771 -4052.2395)">
	</pattern>
	<polygon opacity="0.67" fill="url(#SVGID_5_)" points="1322.1,1099.7 1288.7,1172.8 1327.1,1181.4 1334.5,1102.2 	"/>
</g>
<path fill="#F7C414" d="M0,1378.8c0,0,937.2,37,1035.5,37s4204.6-34,4538.1-37l-14,96c0,0-4531.1,27-4580.2,27
	c-49.1,0-979.4-12-979.4-12V1378.8z"/>
</svg>
