<!-- Generator: Adobe Illustrator 18.1.1, SVG Export Plug-In  -->
<svg version="1.0"
	 xmlns="http://www.w3.org/2000/svg" xmlns:xlink="http://www.w3.org/1999/xlink" xmlns:a="http://ns.adobe.com/AdobeSVGViewerExtensions/3.0/"
	 x="0px" y="0px" width="10506.3px" height="1275.7px" viewBox="0 0 10506.3 1275.7" enable-background="new 0 0 10506.3 1275.7"
	 xml:space="preserve">
<defs>
</defs>
<g>
	<path fill="#F6A61C" d="M10444.2,1008.3l-2441.2,11.8l10.3-144.8l1857.7,0.1l573.8,8.1c32,0.5,58.4,25,61.3,56.8v0
		C10509.3,976.8,10480.7,1008.2,10444.2,1008.3z"/>
	<path fill="#F7C515" d="M10489,939.6c-0.4-21.5-18-38.7-39.5-38.6l-665.8,3.5l-766.1-5.9l-973.9,3.8l3.3,87.8l995-5l832.1-12.1
		l575.1,6.5C10471.4,979.9,10489.4,961.7,10489,939.6L10489,939.6z"/>
	
		<ellipse transform="matrix(-0.9995 3.168330e-002 -3.168330e-002 -0.9995 19851.4473 1559.2715)" fill="#F6A61C" cx="9913.4" cy="936.9" rx="55.1" ry="37"/>
	
		<ellipse transform="matrix(-0.9995 3.168330e-002 -3.168330e-002 -0.9995 20716.7266 1553.116)" fill="#F6A61C" cx="10346.1" cy="940.7" rx="55.1" ry="37"/>
	
		<ellipse transform="matrix(-0.9995 3.168330e-002 -3.168330e-002 -0.9995 20303.0625 1553.7001)" fill="#F6A61C" cx="10139.2" cy="937.7" rx="55.1" ry="37"/>
	
		<ellipse transform="matrix(-0.9995 3.168330e-002 -3.168330e-002 -0.9995 18596.6094 1584.5913)" fill="#F6A61C" cx="9285.8" cy="939.6" rx="55.1" ry="43.7"/>
	
		<ellipse transform="matrix(-0.9995 3.168330e-002 -3.168330e-002 -0.9995 19017.0371 1581.3094)" fill="#F6A61C" cx="9496" cy="941.3" rx="55.1" ry="40.6"/>
	
		<ellipse transform="matrix(-0.9995 3.168330e-002 -3.168330e-002 -0.9995 19424.9746 1574.8455)" fill="#F6A61C" cx="9700" cy="941.3" rx="55.1" ry="40.6"/>
	
		<ellipse transform="matrix(-0.9995 3.168330e-002 -3.168330e-002 -0.9995 17336.8945 1610.5522)" fill="#F6A61C" cx="8655.7" cy="942.6" rx="55.1" ry="43.7"/>
	
		<ellipse transform="matrix(-0.9995 3.168330e-002 -3.168330e-002 -0.9995 17757.2266 1601.272)" fill="#F6A61C" cx="8865.9" cy="941.3" rx="55.1" ry="40.6"/>
	
		<ellipse transform="matrix(-0.9995 3.168330e-002 -3.168330e-002 -0.9995 18165.166 1594.808)" fill="#F6A61C" cx="9069.9" cy="941.3" rx="55.1" ry="40.6"/>
	
		<ellipse transform="matrix(-0.9995 3.168330e-002 -3.168330e-002 -0.9995 16868.9648 1617.9669)" fill="#F6A61C" cx="8421.7" cy="942.6" rx="55.1" ry="43.7"/>
	
		<ellipse transform="matrix(-0.9995 3.168330e-002 -3.168330e-002 -0.9995 16451.0703 1624.5887)" fill="#F6A61C" cx="8212.7" cy="942.6" rx="55.1" ry="43.7"/>
</g>
<g>
	<polygon fill="#F6A61C" points="8065.8,1008 5556.7,1020.1 5567,875.4 7424.7,875.4 8054.8,884.3 	"/>
	<polygon fill="#F7C515" points="8042,900.8 7337.4,904.5 6571.2,898.6 5597.4,902.4 5600.7,990.2 6595.7,985.2 7427.8,973.2 
		8043.5,980.1 	"/>
	
		<ellipse transform="matrix(-0.9995 3.168330e-002 -3.168330e-002 -0.9995 14960.1533 1636.7771)" fill="#F6A61C" cx="7467.1" cy="936.9" rx="55.1" ry="37"/>
	
		<ellipse transform="matrix(-0.9995 3.168330e-002 -3.168330e-002 -0.9995 15825.4326 1630.6216)" fill="#F6A61C" cx="7899.8" cy="940.7" rx="55.1" ry="37"/>
	
		<ellipse transform="matrix(-0.9995 3.168330e-002 -3.168330e-002 -0.9995 15411.7686 1631.2057)" fill="#F6A61C" cx="7693" cy="937.7" rx="55.1" ry="37"/>
	
		<ellipse transform="matrix(-0.9995 3.168330e-002 -3.168330e-002 -0.9995 13705.3164 1662.0969)" fill="#F6A61C" cx="6839.5" cy="939.6" rx="55.1" ry="43.7"/>
	
		<ellipse transform="matrix(-0.9995 3.168330e-002 -3.168330e-002 -0.9995 14125.7422 1658.8151)" fill="#F6A61C" cx="7049.7" cy="941.3" rx="55.1" ry="40.6"/>
	
		<ellipse transform="matrix(-0.9995 3.168330e-002 -3.168330e-002 -0.9995 14533.6807 1652.3511)" fill="#F6A61C" cx="7253.7" cy="941.3" rx="55.1" ry="40.6"/>
	
		<ellipse transform="matrix(-0.9995 3.168330e-002 -3.168330e-002 -0.9995 12445.6016 1688.0579)" fill="#F6A61C" cx="6209.4" cy="942.6" rx="55.1" ry="43.7"/>
	
		<ellipse transform="matrix(-0.9995 3.168330e-002 -3.168330e-002 -0.9995 12865.9326 1678.7776)" fill="#F6A61C" cx="6419.7" cy="941.3" rx="55.1" ry="40.6"/>
	
		<ellipse transform="matrix(-0.9995 3.168330e-002 -3.168330e-002 -0.9995 13273.8711 1672.3136)" fill="#F6A61C" cx="6623.7" cy="941.3" rx="55.1" ry="40.6"/>
	
		<ellipse transform="matrix(-0.9995 3.168330e-002 -3.168330e-002 -0.9995 11977.6699 1695.4725)" fill="#F6A61C" cx="5975.4" cy="942.6" rx="55.1" ry="43.7"/>
	
		<ellipse transform="matrix(-0.9995 3.168330e-002 -3.168330e-002 -0.9995 11559.7754 1702.0944)" fill="#F6A61C" cx="5766.4" cy="942.6" rx="55.1" ry="43.7"/>
</g>
<g>
	<polygon fill="#F6A61C" points="0,1002 5567,1014.1 5556.7,869.4 3699,869.5 11.1,872.3 	"/>
	<polygon fill="#F7C515" points="68.6,894.8 3786.3,898.5 4552.4,892.6 5526.3,896.4 5523,984.2 4528,979.2 3695.9,967.2 
		67.1,972.1 	"/>
	
		<ellipse transform="matrix(0.9995 3.168327e-002 -3.168327e-002 0.9995 31.3302 -115.3847)" fill="#F6A61C" cx="3656.6" cy="930.9" rx="55.1" ry="37"/>
	
		<ellipse transform="matrix(0.9995 3.168327e-002 -3.168327e-002 0.9995 31.2327 -101.6738)" fill="#F6A61C" cx="3223.9" cy="934.7" rx="55.1" ry="37"/>
	
		<ellipse transform="matrix(0.9995 3.168327e-002 -3.168327e-002 0.9995 31.2419 -108.2286)" fill="#F6A61C" cx="3430.7" cy="931.7" rx="55.1" ry="37"/>
	
		<ellipse transform="matrix(0.9995 3.168320e-002 -3.168320e-002 0.9995 31.7313 -135.2681)" fill="#F6A61C" cx="4284.2" cy="933.6" rx="55.1" ry="43.7"/>
	
		<ellipse transform="matrix(0.9995 3.168323e-002 -3.168323e-002 0.9995 31.6794 -128.6063)" fill="#F6A61C" cx="4073.9" cy="935.3" rx="55.1" ry="40.6"/>
	
		<ellipse transform="matrix(0.9995 3.168327e-002 -3.168327e-002 0.9995 31.0718 -95.4902)" fill="#F6A61C" cx="3028.7" cy="932.7" rx="55.1" ry="37"/>
	
		<ellipse transform="matrix(0.9995 3.168323e-002 -3.168323e-002 0.9995 31.577 -122.1423)" fill="#F6A61C" cx="3869.9" cy="935.3" rx="55.1" ry="40.6"/>
	
		<ellipse transform="matrix(0.9995 3.168320e-002 -3.168320e-002 0.9995 32.1427 -155.229)" fill="#F6A61C" cx="4914.3" cy="936.6" rx="55.1" ry="43.7"/>
	
		<ellipse transform="matrix(0.9995 3.168323e-002 -3.168323e-002 0.9995 31.9957 -148.5687)" fill="#F6A61C" cx="4704" cy="935.3" rx="55.1" ry="40.6"/>
	
		<ellipse transform="matrix(0.9995 3.168323e-002 -3.168323e-002 0.9995 31.8933 -142.1047)" fill="#F6A61C" cx="4500" cy="935.3" rx="55.1" ry="40.6"/>
	
		<ellipse transform="matrix(0.9995 3.168320e-002 -3.168320e-002 0.9995 32.2602 -162.6436)" fill="#F6A61C" cx="5148.3" cy="936.6" rx="55.1" ry="43.7"/>
	
		<ellipse transform="matrix(0.9995 3.168320e-002 -3.168320e-002 0.9995 32.3651 -169.2654)" fill="#F6A61C" cx="5357.3" cy="936.6" rx="55.1" ry="43.7"/>
	
		<ellipse transform="matrix(0.9995 3.168327e-002 -3.168327e-002 0.9995 30.4808 -61.7766)" fill="#F6A61C" cx="1964.6" cy="930.9" rx="55.1" ry="37"/>
	
		<ellipse transform="matrix(0.9995 3.168327e-002 -3.168327e-002 0.9995 30.3832 -48.0657)" fill="#F6A61C" cx="1531.9" cy="934.7" rx="55.1" ry="37"/>
	
		<ellipse transform="matrix(0.9995 3.168327e-002 -3.168327e-002 0.9995 30.3925 -54.6205)" fill="#F6A61C" cx="1738.7" cy="931.7" rx="55.1" ry="37"/>
	
		<ellipse transform="matrix(0.9995 3.168320e-002 -3.168320e-002 0.9995 30.8819 -81.6601)" fill="#F6A61C" cx="2592.2" cy="933.6" rx="55.1" ry="43.7"/>
	
		<ellipse transform="matrix(0.9995 3.168323e-002 -3.168323e-002 0.9995 30.8299 -74.9983)" fill="#F6A61C" cx="2381.9" cy="935.3" rx="55.1" ry="40.6"/>
	
		<ellipse transform="matrix(0.9995 3.168327e-002 -3.168327e-002 0.9995 30.2223 -41.8821)" fill="#F6A61C" cx="1336.7" cy="932.7" rx="55.1" ry="37"/>
	
		<ellipse transform="matrix(0.9995 3.168323e-002 -3.168323e-002 0.9995 30.7275 -68.5342)" fill="#F6A61C" cx="2177.9" cy="935.3" rx="55.1" ry="40.6"/>
	
		<ellipse transform="matrix(0.9995 3.168323e-002 -3.168323e-002 0.9995 31.0438 -88.4967)" fill="#F6A61C" cx="2808" cy="935.3" rx="55.1" ry="40.6"/>
	
		<ellipse transform="matrix(0.9995 3.168327e-002 -3.168327e-002 0.9995 30.1745 -34.8942)" fill="#F6A61C" cx="1116.2" cy="934.7" rx="55.1" ry="37"/>
	
		<ellipse transform="matrix(0.9995 3.168327e-002 -3.168327e-002 0.9995 30.0136 -28.7105)" fill="#F6A61C" cx="921" cy="932.7" rx="55.1" ry="37"/>
	
		<ellipse transform="matrix(0.9995 3.168327e-002 -3.168327e-002 0.9995 29.9575 -21.1983)" fill="#F6A61C" cx="683.9" cy="934.7" rx="55.1" ry="37"/>
	
		<ellipse transform="matrix(0.9995 3.168327e-002 -3.168327e-002 0.9995 29.7966 -15.0146)" fill="#F6A61C" cx="488.7" cy="932.7" rx="55.1" ry="37"/>
	
		<ellipse transform="matrix(0.9995 3.168327e-002 -3.168327e-002 0.9995 29.7488 -8.0267)" fill="#F6A61C" cx="268.2" cy="934.7" rx="55.1" ry="37"/>
	
		<ellipse transform="matrix(0.9995 3.168327e-002 -3.168327e-002 0.9995 29.5879 -1.8431)" fill="#F6A61C" cx="73" cy="932.7" rx="55.1" ry="37"/>
</g>
<g>
	<g>
		<path fill="#1F3F4D" d="M6373.1,50.2l-943.9,14.5l89.6,571.3l2.4,622.1l824.9,13.9l-19.1-476.8L6373.1,50.2z M6138,762l-426.3,9.9
			l3.1-265.1l449.3,4.6L6138,762z"/>
		<circle fill="#1F3F4D" cx="5461.4" cy="1165.9" r="25.8"/>
		<circle fill="#1F3F4D" cx="5406.6" cy="241.2" r="25.8"/>
		<polygon fill="#27ACA0" points="5532.4,1065.9 5474.3,1064.3 5466.3,1254.7 5545.3,1275.7 		"/>
		<polygon fill="#27ACA0" points="5501.8,409.1 5445.3,423.6 5379.1,62.1 5479.2,39.5 		"/>
		<circle fill="#E0F2F0" cx="5622.9" cy="190.6" r="50"/>
		<circle fill="#F0514D" cx="5622.9" cy="281.5" r="22.1"/>
		<circle fill="#F7C414" cx="5678.5" cy="146.8" r="12.3"/>
		<circle fill="#F7C414" cx="5693.4" cy="183.4" r="12.3"/>
	</g>
	<path fill="#27ACA0" d="M5664.3,471.6l18.3,325.5l482.9-7.6l39.7-308.7L5664.3,471.6z M6138,762l-426.3,9.9l3.1-265.1l449.3,4.6
		L6138,762z"/>
</g>
<g>
	<g>
		<path fill="#27ACA0" d="M7317.9,783.5l-18.4,460.2l796.1-13.4l2.3-600.4l59.3-555.1l-883.7-10.2L7317.9,783.5z M7476,492.1
			l480.9,11.5l-45.1,257.6l-426.6,9.4L7476,492.1z"/>
		<circle fill="#E0F2F0" cx="7949.6" cy="1106.6" r="48.3"/>
		<circle fill="#1F3F4D" cx="8039.2" cy="1154.7" r="21.3"/>
		<circle fill="#F7C414" cx="8039" cy="1061.1" r="11.9"/>
		<circle fill="#F7C414" cx="8039" cy="1102.5" r="11.9"/>
	</g>
	<path fill="#1F3F4D" d="M7451.2,471.4l17.7,314.1l466-7.4l38.3-297.9L7451.2,471.4z M7908.4,751.6l-411.5,9.6l2.9-255.9l433.6,4.4
		L7908.4,751.6z"/>
	<path fill="#E0F2F0" d="M7474.6,447.6l10.7,107.4l7.7-50.6l19.9,104.3l16.9-89c0,0,15.3,139.6,16.9,135
		c1.5-4.6,10.7-176.4,10.7-176.4l12.3,24.5l53.7-55.2H7474.6z"/>
	<polyline fill="#E0F2F0" points="7834.9,765.9 7921.1,775.1 7979.9,763.6 7975.7,857.9 7961,791.2 7950.5,899.4 7933.7,816.5 
		7923.2,841.8 7879.1,798.1 7864.3,853.3 7851.7,791.2 7834.9,765.9 	"/>
	<circle opacity="0.65" fill="#E0F2F0" cx="8098.1" cy="212.1" r="9.7"/>
	<circle opacity="0.65" fill="#E0F2F0" cx="8057.4" cy="212.1" r="9.7"/>
	<circle opacity="0.65" fill="#E0F2F0" cx="7351.1" cy="203.7" r="9.7"/>
	<circle opacity="0.65" fill="#E0F2F0" cx="7310.4" cy="203.7" r="9.7"/>
	<path opacity="0.65" fill="#E0F2F0" d="M8147,169.6c-152.6-1.5-723.1-7.2-867.6-8.5l0.5,7.9l865.9,12.8L8147,169.6z"/>
</g>
<g>
	<polygon fill="#1B8287" points="9511,631.9 9589,601.9 9595,1040 9511,1043 	"/>
	<polygon fill="#1B8287" points="8979,632.9 8907,611.9 8931,1035 9006,1038 	"/>
	<polygon fill="#1F3F4D" points="8961,90 8987.2,1255.3 9540,1260 9526.9,0 	"/>
	<g>
		<circle fill="#27ACA0" cx="9037.9" cy="488.9" r="18.6"/>
		<polygon fill="#F7C515" points="9022.3,528.2 9023.8,547.2 9102.5,542.8 9101,521 		"/>
		<circle fill="#F7C515" cx="9031.4" cy="443.7" r="11.3"/>
		<circle fill="#F7C515" cx="9027.8" cy="404.3" r="11.3"/>
	</g>
	<path fill="#27ACA0" d="M9538.9,1146l-104.9-15c0,0-373.9,15-449.2,17.6l0.6,28.5l553.9,10.1L9538.9,1146z"/>
</g>
</svg>
