<!-- Generator: Adobe Illustrator 18.1.1, SVG Export Plug-In  -->
<svg version="1.0"
	 xmlns="http://www.w3.org/2000/svg" xmlns:xlink="http://www.w3.org/1999/xlink" xmlns:a="http://ns.adobe.com/AdobeSVGViewerExtensions/3.0/"
	 x="0px" y="0px" width="2871.3px" height="402.1px" viewBox="0 0 2871.3 402.1" enable-background="new 0 0 2871.3 402.1"
	 xml:space="preserve">
<defs>
	
		<pattern  x="2057.7" y="429.3" width="46.5" height="46.5" patternUnits="userSpaceOnUse" id="Polka_dots" viewBox="0 -54.1 46.5 46.5" overflow="visible">
		<g>
			<polygon fill="none" points="0,-54.1 46.5,-54.1 46.5,-7.6 0,-7.6 			"/>
			<path fill="#FED402" d="M33.3-5c0,2.8-2.2,5-5,5s-5-2.2-5-5s2.2-5,5-5S33.3-7.8,33.3-5z"/>
			<path fill="#FED402" d="M10-5c0,2.8-2.2,5-5,5S0-2.2,0-5s2.2-5,5-5S10-7.8,10-5z"/>
			<path fill="#FED402" d="M44.9-28.3c0,2.8-2.2,5-5,5c-2.8,0-5-2.2-5-5s2.2-5,5-5C42.6-33.3,44.9-31,44.9-28.3z"/>
			<path fill="#FED402" d="M21.6-28.3c0,2.8-2.2,5-5,5s-5-2.2-5-5s2.2-5,5-5S21.6-31,21.6-28.3z"/>
			<path fill="#FED402" d="M33.3-51.5c0,2.8-2.2,5-5,5s-5-2.2-5-5c0-2.8,2.2-5,5-5S33.3-54.3,33.3-51.5z"/>
			<path fill="#FED402" d="M10-51.5c0,2.8-2.2,5-5,5s-5-2.2-5-5c0-2.8,2.2-5,5-5S10-54.3,10-51.5z"/>
		</g>
	</pattern>
</defs>
<g>
	<path fill="#F5A51D" d="M762.3,135.2l-5.8,202.1c8.3,0.9,190.2,9.8,190.2,9.8l8-229.4L762.3,135.2z"/>
	<pattern  id="SVGID_1_" xlink:href="#Polka_dots" patternTransform="matrix(0.4914 0 0 0.4914 -2609.4277 -3350.8901)">
	</pattern>
	<polygon opacity="0.67" fill="url(#SVGID_1_)" points="761.4,144.7 758.6,264 917.8,204.2 941.8,128.7 	"/>
	<path fill="#FFFAD7" d="M973.5,88l-225.8-3.2c-9.7-0.1-17.6,7.7-17.6,17.4v33.7c0,15.8,11.9,29.1,27.7,30.8h0
		c14,1.5,27.3-6.7,32.3-19.9v0c1.6-4.3,5.5-7.2,10-7.6l2.2-0.2c6.4-0.6,12.5,2.9,15.2,8.7l4.9,10.3c4.4,9.2,13.6,15,23.8,15h11
		c8.1,0,15.8-3.7,20.8-10.2l8.8-11.3c5.7-7.3,14.6-11.4,23.9-10.8l1.1,0.1c8.6,0.5,16.4,5,21.3,12l0,0c5,7.2,14.7,9.5,22.4,5.3
		l1.2-0.7c3.5-1.9,7.6-2.8,11.6-2.4l0,0c7.8,0.7,14.7-5,15.6-12.8l4.1-38C988.8,95.7,982.1,88.2,973.5,88z"/>
	<polygon fill="#DC8B27" points="831.5,211.3 757.8,211.8 757.6,180.6 833.2,187.6 	"/>
	<polygon fill="#DC8B27" points="907.7,218 955.6,214.3 952.8,249.3 904.9,252 	"/>
	<polygon fill="#DC8B27" points="754,250.2 753.1,287.5 778.9,293.5 776.1,253.2 	"/>
	<path fill="none" stroke="#FEE6A3" stroke-width="3" stroke-linecap="round" stroke-miterlimit="10" d="M744.7,105.4
		c0,0-6.1,41.9,15.2,46.7c9.8,2.2,16.3-9.8,16.3-9.8"/>
	<path fill="none" stroke="#FEE6A3" stroke-width="3" stroke-linecap="round" stroke-miterlimit="10" d="M869.4,150.8
		c0,0,8.6-20.9,25.8-23.3c17.2-2.5,29.4-4.9,45.4,17.2"/>
</g>
<g>
	<polygon fill="#1F3F4D" points="260.5,61.9 253.1,123.9 277.9,116.5 284.1,58.2 	"/>
	<polygon fill="#1F3F4D" points="230.5,70.6 229.6,118 240.7,116.2 242.6,68.8 	"/>
	<polygon fill="#F5A51D" points="224,107.8 212.8,334.5 290.9,336.4 285.3,104.1 	"/>
	<path fill="#F5A51D" d="M214.7,73.1c0,0,32.2,21.1,89.2-6.2L260.5,2.5L248.1,0L214.7,73.1z"/>
	<path fill="none" stroke="#FEE6A3" stroke-width="3" stroke-linecap="round" stroke-miterlimit="10" d="M214.7,260.2"/>
	<pattern  id="SVGID_2_" xlink:href="#Polka_dots" patternTransform="matrix(0.3931 0 0 0.3931 -3137.5022 -3982.9395)">
	</pattern>
	<polygon opacity="0.67" fill="url(#SVGID_2_)" points="224,107.8 214.7,260.2 266.7,258.3 248.1,105.9 	"/>
	<pattern  id="SVGID_3_" xlink:href="#Polka_dots" patternTransform="matrix(0.3931 0 0 0.3931 -3136.9771 -4052.2395)">
	</pattern>
	<polygon opacity="0.67" fill="url(#SVGID_3_)" points="248.1,0 214.7,73.1 253.1,81.8 260.5,2.5 	"/>
</g>
<path fill="#F7C414" d="M0,279.1c0,0,801.1,45,885.1,45s1701.2-42,1986.2-45l-12,96c0,0-1980.2,27-2022.2,27
	c-42,0-837.1-12-837.1-12V279.1z"/>
</svg>
