<!-- Generator: Adobe Illustrator 18.1.1, SVG Export Plug-In  -->
<svg version="1.0"
	 xmlns="http://www.w3.org/2000/svg" xmlns:xlink="http://www.w3.org/1999/xlink" xmlns:a="http://ns.adobe.com/AdobeSVGViewerExtensions/3.0/"
	 x="0px" y="0px" width="565.8px" height="1721.7px" viewBox="0 0 565.8 1721.7" enable-background="new 0 0 565.8 1721.7"
	 xml:space="preserve">
<defs>
</defs>
<polygon fill="#FEE6A3" points="230.8,1458.5 216.9,1721.7 318.8,1721.7 325.7,1447.9 "/>
<g>
	<polygon fill="#176076" points="58.6,74.8 0,0 216,4 188,65.9 134,92 	"/>
	<g>
		<defs>
			<path id="SVGID_1_" d="M58.6,74.8l46.6,415.2c4.2,37.3,31.9,67.6,68.7,75l183.8,37.3c24.1,4.9,42.4,24.6,45.5,49l33.8,264.3
				c5.6,44.2-24.3,85-68.1,93l-68.5,12.4c-29.1,5.3-50.7,30.1-51.9,59.6l-20.2,384.2h93.7l9.6-338.2c0-22.2,16.4-40.9,38.4-43.9
				l85.8-12.4c56.6-7.5,89.6-59.7,81.7-116.3l-46.7-332.8c-6.2-44.1-32.6-79.7-76.2-89l-215-46.1c-14.4-3.1-24.6-16.1-24.1-30.8
				L188,65.9L58.6,74.8z"/>
		</defs>
		<clipPath id="SVGID_2_">
			<use xlink:href="#SVGID_1_"  overflow="visible"/>
		</clipPath>
		<g clip-path="url(#SVGID_2_)">
			<path fill="#1F3F4D" d="M58.6,74.8l46.6,415.2c4.2,37.3,31.9,67.6,68.7,75l183.8,37.3c24.1,4.9,42.4,24.6,45.5,49l33.8,264.3
				c5.6,44.2-24.3,85-68.1,93l-68.5,12.4c-29.1,5.3-50.7,30.1-51.9,59.6l-20.2,480.7h93.7l9.6-434.6c0-22.2,16.4-40.9,38.4-43.9
				l85.8-12.4c56.6-7.5,89.6-59.7,81.7-116.3l-46.7-332.8c-6.2-44.1-32.6-79.7-76.2-89l-215-46.1c-14.4-3.1-24.6-16.1-24.1-30.8
				L188,65.9L58.6,74.8z"/>
			<polygon fill="#176076" points="54.9,147.6 217.8,116.3 217.8,140.9 54.9,158.7 			"/>
			<polygon fill="#176076" points="63.8,223.5 213.4,227.9 211.1,241.3 61.5,236.9 			"/>
			<polygon fill="#176076" points="72.7,306.1 202.2,290.5 202.2,303.8 68.2,315 			"/>
			<polygon fill="#176076" points="63.5,371.1 229.4,375.3 224.2,399.3 61.1,382 			"/>
			<polygon fill="#176076" points="65.5,444.5 214.9,435.5 213.9,449 64.5,458 			"/>
			<polygon fill="#176076" points="411.2,504.3 357.2,643.9 345.4,637.4 399.3,497.8 			"/>
			<polygon fill="#176076" points="320.4,490 292,617.3 279.4,612.9 313.4,482.8 			"/>
			<polygon fill="#176076" points="248.6,474.9 193.1,631.3 171.9,618.9 238.9,469.3 			"/>
			<polygon fill="#176076" points="213.8,474.7 93.7,564 87.1,552.1 207.3,462.8 			"/>
			<polygon fill="#176076" points="543.8,886.1 394.2,881.6 396.5,868.2 546.1,872.7 			"/>
			<polygon fill="#176076" points="537.1,805.7 407.6,821.3 407.6,807.9 541.6,796.8 			"/>
			<polygon fill="#176076" points="544.1,723.8 380.1,749.1 381,724.6 544.5,712.7 			"/>
			<polygon fill="#176076" points="494.9,537.9 395.6,649.9 386.8,639.6 486,527.6 			"/>
			<polygon fill="#176076" points="386.2,689 529.5,645.6 523.8,633.3 380.6,676.6 			"/>
			<polygon fill="#176076" points="372.5,1157.8 209.5,1126.5 209.5,1151.1 372.5,1168.9 			"/>
			<polygon fill="#176076" points="361.2,1205.9 211.6,1210.3 213.8,1223.7 363.4,1219.3 			"/>
			<polygon fill="#176076" points="352.2,1288.5 222.7,1272.9 222.7,1286.3 356.7,1297.4 			"/>
			<polygon fill="#176076" points="361.4,1353.5 195.5,1357.7 200.8,1381.7 363.8,1364.4 			"/>
			<polygon fill="#176076" points="565.8,969.4 406.3,923.3 404.1,947.8 564.8,980.5 			"/>
			<polygon fill="#176076" points="527.6,1044.4 403.3,967.6 397.5,979.7 528.3,1054.6 			"/>
			<polygon fill="#176076" points="377.1,994.2 474.6,1107.7 463.2,1115.1 365.7,1001.6 			"/>
			<polygon fill="#176076" points="377.2,1136.6 335.4,992.9 323,998.4 364.8,1142.1 			"/>
			<polygon fill="#176076" points="225.5,1054.5 352.9,1133 358.4,1120.6 231,1042.1 			"/>
		</g>
	</g>
</g>
</svg>
