<!-- Generator: Adobe Illustrator 18.1.1, SVG Export Plug-In  -->
<svg version="1.0"
	 xmlns="http://www.w3.org/2000/svg" xmlns:xlink="http://www.w3.org/1999/xlink" xmlns:a="http://ns.adobe.com/AdobeSVGViewerExtensions/3.0/"
	 x="0px" y="0px" width="459.6px" height="357px" viewBox="0 0 459.6 357" enable-background="new 0 0 459.6 357"
	 xml:space="preserve">
<defs>
</defs>
<path fill="#EF514F" d="M18.3,309c0,0-47.8-132,11.2-177c0,0-16.9,69,25.3,72s53.4-102,30.9-156c0,0,36.6,45,36.6,93
	s40.7,63,46.3,21c5.6-42-31.9-67.5,7.5-127.5c0,0-22.5,30,3,63c20.3,26.3,30,43.5,54,45C275.3,145.1,302.2,12,257.3,0
	c0,0,82.5,31.9,59,144c-9.7,46.5,67.5,3,59-48c0,0,33.7,63-2.8,102s87.2-12,56.2-120c0,0,56.2,69,16.9,168s0,111,0,111L18.3,309z"/>
</svg>
