<!-- Generator: Adobe Illustrator 18.1.1, SVG Export Plug-In  -->
<svg version="1.0"
	 xmlns="http://www.w3.org/2000/svg" xmlns:xlink="http://www.w3.org/1999/xlink" xmlns:a="http://ns.adobe.com/AdobeSVGViewerExtensions/3.0/"
	 x="0px" y="0px" width="5111.3px" height="700.9px" viewBox="0 0 5111.3 700.9" enable-background="new 0 0 5111.3 700.9"
	 xml:space="preserve">
<defs>
</defs>
<path fill="#FFFFFF" d="M0,672.3c0,0,94.6-27.8,143.6-41.4c-3.6-9-5.5-18.6-5.5-28.5c0-38.6,18.8-71.6,59.8-85.3
	c-1.9-8.3-2.9-17.2-2.9-26.4c0-47.6,30.7-79.4,64.5-79.4c17.2,0,39.5,3.3,50.6,19.5c25-23.5,58.7-37.9,95.9-37.9
	c66.3,0,121.9,46,136.1,107.7c9.4-1.3,19.1-2,29-2c80.5,0,145.7,45.3,145.7,101.2c0,13.2-3.7,25.8-10.3,37.4L884,683.9l-277.7,14
	c-11.3,2-23.1,3-35.3,3c-4.9,0-9.7-0.2-14.4-0.5l-129.4-1.7c-8.3,0.8-182.1-4.4-184.7-4.6l0.8,0.8L0,672.3z"/>
<path fill="#FFFFFF" d="M3172.4,343.8c29.4-12,49.6-37.1,49.6-66.1c0-28.8-20-53.8-49.1-65.9c2.4-11.7,3.7-23.7,3.7-36.1
	C3176.7,78.6,3098,0,3001,0c-55.4,0-104.8,25.7-137,65.7c-22-15.2-49.1-24.2-78.3-24.2c-68,0-124.2,48.5-132.9,111.4
	c-26.2,9.7-47.5,26.3-60.2,46.8c-15.4-6.9-33.3-10.9-52.5-10.9c-57.4,0-103.9,35.5-103.9,79.3c0,14.8,5.3,28.6,14.5,40.4
	c-59.7,4-110.6,33-146.7,45.2c0,0,336.2,54.1,933-2.5C3237.1,351.3,3213,348.3,3172.4,343.8z M2801.6,309.6c0.5,0.8,1,1.7,1.6,2.5
	c-1.4-0.1-2.8-0.2-4.1-0.2C2799.9,311.1,2800.8,310.3,2801.6,309.6z"/>
<path fill="#FFFFFF" d="M4227.5,543.8c0,0,94.9-26.3,144-39.2c-3.5-8.9-5.3-18.3-5.2-28.1c0.4-37.9,19.6-70.1,60.7-83.1
	c-1.8-8.2-2.7-16.9-2.6-25.9c0.5-46.7,31.5-77.7,65.3-77.3c17.2,0.2,39.4,3.7,50.4,19.6c25.3-22.8,59.1-36.6,96.2-36.2
	c66.3,0.7,121.4,46.5,135,107.2c9.4-1.2,19.1-1.8,29-1.7c80.5,0.8,145.2,46,144.6,100.9c-0.1,13-4,25.3-10.7,36.6l177.1,47.8
	l-277.8,10.8c-11.3,1.8-23.2,2.7-35.3,2.6c-4.9-0.1-9.7-0.3-14.4-0.6l-129.4-3.1c-8.3,0.7-182.1-6.3-184.6-6.4l0.8,0.8L4227.5,543.8
	z"/>
</svg>
