<!-- Generator: Adobe Illustrator 18.1.1, SVG Export Plug-In  -->
<svg version="1.0"
	 xmlns="http://www.w3.org/2000/svg" xmlns:xlink="http://www.w3.org/1999/xlink" xmlns:a="http://ns.adobe.com/AdobeSVGViewerExtensions/3.0/"
	 x="0px" y="0px" width="2391.3px" height="605.3px" viewBox="0 0 2391.3 605.3" enable-background="new 0 0 2391.3 605.3"
	 xml:space="preserve">
<defs>
</defs>
<path fill="#EAE7DF" d="M2391.3,576.7c0,0-94.6-27.8-143.6-41.4c3.6-9,5.5-18.6,5.5-28.5c0-38.6-18.8-71.6-59.8-85.3
	c1.9-8.3,2.9-17.2,2.9-26.4c0-47.6-30.7-79.4-64.5-79.4c-17.2,0-39.5,3.3-50.6,19.5c-25-23.5-58.7-37.9-95.9-37.9
	c-66.3,0-121.9,46-136.1,107.7c-9.4-1.3-19.1-2-29-2c-80.5,0-145.7,45.3-145.7,101.2c0,13.2,3.7,25.8,10.3,37.4l-177.6,46.7
	l277.7,14c11.3,2,23.1,3,35.3,3c4.9,0,9.7-0.2,14.4-0.5l129.4-1.7c8.3,0.8,182.1-4.4,184.7-4.6l-0.8,0.8L2391.3,576.7z"/>
<path fill="#EAE7DF" d="M0,279c474,45,741.1,2,741.1,2c-28.7-9.7-69.1-32.7-116.5-35.9c7.3-9.4,11.5-20.4,11.5-32.1
	c0-34.8-36.9-63-82.5-63c-15.2,0-29.4,3.2-41.7,8.6c-10.1-16.3-27-29.5-47.8-37.2C457.2,71.5,412.6,33,358.5,33
	c-23.2,0-44.7,7.1-62.2,19.2C270.8,20.4,231.5,0,187.5,0C110.5,0,48,62.5,48,139.5c0,9.8,1,19.4,3,28.7c-23.1,9.6-39,29.4-39,52.3
	c0,23.1,16.1,43,39.4,52.5C19.1,276.6,0,279,0,279z M347.9,247.7c-1.1,0.1-2.2,0.1-3.3,0.2c0.4-0.6,0.9-1.3,1.3-2
	C346.6,246.5,347.3,247.1,347.9,247.7z"/>
</svg>
