<!-- Generator: Adobe Illustrator 18.1.1, SVG Export Plug-In  -->
<svg version="1.0"
	 xmlns="http://www.w3.org/2000/svg" xmlns:xlink="http://www.w3.org/1999/xlink" xmlns:a="http://ns.adobe.com/AdobeSVGViewerExtensions/3.0/"
	 x="0px" y="0px" width="2961.2px" height="533.3px" viewBox="0 0 2961.2 533.3" enable-background="new 0 0 2961.2 533.3"
	 xml:space="preserve">
<defs>
</defs>
<path fill="#FFFFFF" d="M0,504.8c0,0,94.6-27.8,143.6-41.4c-3.6-9-5.5-18.6-5.5-28.5c0-38.6,18.8-71.6,59.8-85.3
	c-1.9-8.3-2.9-17.2-2.9-26.4c0-47.6,30.7-79.4,64.5-79.4c17.2,0,39.5,3.3,50.6,19.5c25-23.5,58.7-37.9,95.9-37.9
	c66.3,0,121.9,46,136.1,107.7c9.4-1.3,19.1-2,29-2c80.5,0,145.7,45.3,145.7,101.2c0,13.2-3.7,25.8-10.3,37.4L884,516.3l-277.7,14
	c-11.3,2-23.1,3-35.3,3c-4.9,0-9.7-0.2-14.4-0.5l-129.4-1.7c-8.3,0.8-182.1-4.4-184.7-4.6l0.8,0.8L0,504.8z"/>
<path fill="#FFFFFF" d="M2909.7,273c23.4-9.5,39.4-29.5,39.4-52.5c0-22.9-15.9-42.7-39-52.3c1.9-9.3,3-18.9,3-28.7
	c0-77.1-62.5-139.5-139.5-139.5c-44,0-83.2,20.4-108.8,52.2c-17.5-12.1-39-19.2-62.2-19.2c-54,0-98.7,38.5-105.6,88.5
	c-20.8,7.7-37.7,20.9-47.8,37.2c-12.2-5.5-26.5-8.6-41.7-8.6c-45.6,0-82.5,28.2-82.5,63c0,11.7,4.2,22.7,11.5,32.1
	c-47.4,3.2-87.9,26.2-116.5,35.9c0,0,267,43,741.1-2C2961.2,279,2942,276.6,2909.7,273z M2615.3,245.9c0.4,0.7,0.8,1.3,1.3,2
	c-1.1-0.1-2.2-0.1-3.3-0.2C2613.9,247.1,2614.6,246.5,2615.3,245.9z"/>
</svg>
