<!-- Generator: Adobe Illustrator 18.1.1, SVG Export Plug-In  -->
<svg version="1.0"
	 xmlns="http://www.w3.org/2000/svg" xmlns:xlink="http://www.w3.org/1999/xlink" xmlns:a="http://ns.adobe.com/AdobeSVGViewerExtensions/3.0/"
	 x="0px" y="0px" width="741.1px" height="299.6px" viewBox="0 0 741.1 299.6" enable-background="new 0 0 741.1 299.6"
	 xml:space="preserve">
<defs>
</defs>
<path fill="#EAE7DF" d="M689.6,273c23.4-9.5,39.4-29.5,39.4-52.5c0-22.9-15.9-42.7-39-52.3c1.9-9.3,3-18.9,3-28.7
	C693.1,62.5,630.6,0,553.6,0c-44,0-83.2,20.4-108.8,52.2c-17.5-12.1-39-19.2-62.2-19.2c-54,0-98.7,38.5-105.6,88.5
	c-20.8,7.7-37.7,20.9-47.8,37.2c-12.2-5.5-26.5-8.6-41.7-8.6c-45.6,0-82.5,28.2-82.5,63c0,11.7,4.2,22.7,11.5,32.1
	C69.1,248.3,28.7,271.3,0,281c0,0,267,43,741.1-2C741.1,279,721.9,276.6,689.6,273z M395.2,245.9c0.4,0.7,0.8,1.3,1.3,2
	c-1.1-0.1-2.2-0.1-3.3-0.2C393.8,247.1,394.5,246.5,395.2,245.9z"/>
</svg>
