<!-- Generator: Adobe Illustrator 18.1.1, SVG Export Plug-In  -->
<svg version="1.0"
	 xmlns="http://www.w3.org/2000/svg" xmlns:xlink="http://www.w3.org/1999/xlink" xmlns:a="http://ns.adobe.com/AdobeSVGViewerExtensions/3.0/"
	 x="0px" y="0px" width="884px" height="308.1px" viewBox="0 0 884 308.1" enable-background="new 0 0 884 308.1"
	 xml:space="preserve">
<defs>
</defs>
<path fill="#EAE7DF" d="M0,279.5c0,0,94.6-27.8,143.6-41.4c-3.6-9-5.5-18.6-5.5-28.5c0-38.6,18.8-71.6,59.8-85.3
	c-1.9-8.3-2.9-17.2-2.9-26.4c0-47.6,30.7-79.4,64.5-79.4c17.2,0,39.5,3.3,50.6,19.5C335,14.4,368.7,0,405.8,0
	C472.2,0,527.7,46,542,107.7c9.4-1.3,19.1-2,29-2c80.5,0,145.7,45.3,145.7,101.2c0,13.2-3.7,25.8-10.3,37.4L884,291l-277.7,14
	c-11.3,2-23.1,3-35.3,3c-4.9,0-9.7-0.2-14.4-0.5l-129.4-1.7c-8.3,0.8-182.1-4.4-184.7-4.6l0.8,0.8L0,279.5z"/>
</svg>
