<!-- Generator: Adobe Illustrator 18.1.1, SVG Export Plug-In  -->
<svg version="1.0"
	 xmlns="http://www.w3.org/2000/svg" xmlns:xlink="http://www.w3.org/1999/xlink" xmlns:a="http://ns.adobe.com/AdobeSVGViewerExtensions/3.0/"
	 x="0px" y="0px" width="9395.9px" height="1022.8px" viewBox="0 0 9395.9 1022.8" enable-background="new 0 0 9395.9 1022.8"
	 xml:space="preserve">
<defs>
</defs>
<polygon fill="#FEE6A3" points="795.9,817.6 776.4,400 883.7,393.5 860.9,318.7 935.7,308.9 951.9,113.8 1062.5,120.3 1049.5,201.6 
	1117.8,208.1 1127.5,429.2 1374.7,435.7 1381.2,279.7 1462.5,269.9 1433.2,188.6 1550.3,185.4 1582.8,484.5 1660.8,478 1660.8,694 
	1745.4,703.8 1722.6,801.4 "/>
<path fill="#FEE6A3" d="M2504.4,838l-39-407.6c0,0,99,0,99-7.7s-15-171.7-15-171.7l78-5.1l3-187.1l126,5.1v263.9l57,17.9l33,492.2
	H2504.4z"/>
<polygon fill="#FEE6A3" points="504,836.8 555.9,587.2 287.4,573.1 287.4,248 0,248 14.1,836.8 "/>
<g>
	<path fill="#FEE6A3" d="M3370.6,820.2c0,0-44.9-392.8-52.4-445.2s-29.9-202-29.9-202l463.9-33.7c0,0-29.9,572.4-15,673.4
		c15,101,11.2,67.3,11.2,67.3L3370.6,820.2z"/>
	<polygon fill="#FEE6A3" points="4636,1022.8 4570,705 4911.9,687 4911.9,272.9 5277.9,272.9 5259.9,1022.8 	"/>
</g>
<path fill="#FEE6A3" d="M7205.2,879.8l-55-214.2l25.4-484.5L6664,194.2l40.2,241.7c-54.8,3.2-137.6,8.5-137.6,8.5L6545,866.4
	L7205.2,879.8z"/>
<polygon fill="#FEE6A3" points="8789.9,1002.1 8744.9,0 9395.9,48 9395.9,933.1 "/>
</svg>
