<!-- Generator: Adobe Illustrator 18.1.1, SVG Export Plug-In  -->
<svg version="1.0"
	 xmlns="http://www.w3.org/2000/svg" xmlns:xlink="http://www.w3.org/1999/xlink" xmlns:a="http://ns.adobe.com/AdobeSVGViewerExtensions/3.0/"
	 x="0px" y="0px" width="131.9px" height="357px" viewBox="0 0 131.9 357" enable-background="new 0 0 131.9 357"
	 xml:space="preserve">
<defs>
</defs>
<path fill="#EDD59F" d="M63.7,6.1c0,0-76,340-62,350s14-74,28-76s-4,58,10,54s14-56,22-48s-4,30,8,30s20-58,24-46s-16,60,2,70
	s12-50,24-54s16-260,8-260s-4.3,52.6-12,50s2-82-6-68s-6,48-14,36s-18-58-18-40S65.7-3.9,63.7,6.1z"/>
</svg>
