<!-- Generator: Adobe Illustrator 18.1.1, SVG Export Plug-In  -->
<svg version="1.0"
	 xmlns="http://www.w3.org/2000/svg" xmlns:xlink="http://www.w3.org/1999/xlink" xmlns:a="http://ns.adobe.com/AdobeSVGViewerExtensions/3.0/"
	 x="0px" y="0px" width="370.5px" height="142px" viewBox="0 0 370.5 142" enable-background="new 0 0 370.5 142"
	 xml:space="preserve">
<defs>
</defs>
<g>
	<g>
		<path fill="#FCD29F" d="M261.8,58.5c0,0-47.9,47.1-74.5,49.8c-28.1,2.8-66.9-5.3-66.9-5.3s5.1-22.1-7.8-26.9
			c-22.9-8.7-26.7-19.3-32.1-32.5c-7.6-18.4-16.6,3.9-13.3,16.6c2.3,8.7,17.5,20.2,17.5,20.2S37.1,63.8,25.2,64.1
			s-15.1,7.1-6.7,14.7s49.3,17.9,49.3,17.9s-51.1-3.3-58.5,1.9s-9.2,8.8-1.4,13.9c7.7,5.1,59.9,5.3,59.9,5.3s-47.1,14.9-38.4,20.6
			c8.8,5.7,85.3-19.7,85.3-19.7s44.6,13.5,69.5,13.5c56.5-0.1,108.2-46.5,108.2-46.5"/>
		<path fill="#D89368" d="M34,142c18,0,64.2-14.7,80.8-20.2c6.6,1.9,45.9,13.3,69.3,13.3c0.1,0,0.1,0,0.2,0
			c57-0.1,108-45.3,110.1-47.3c1.2-1.1,1.3-2.9,0.2-4.1c-1.1-1.2-2.9-1.3-4.1-0.2C290,84,239,129.2,184.3,129.4c-0.1,0-0.1,0-0.2,0
			c-24.1,0-68-13.2-68.5-13.4c-0.6-0.2-1.2-0.2-1.7,0c-34.5,11.4-74.4,22-82.1,20.3c3.7-3.7,21.3-10.8,36.9-15.8
			c1.4-0.4,2.2-1.8,2-3.2c-0.2-1.4-1.4-2.4-2.8-2.4c-19.8-0.1-53.2-1.4-58.4-4.8c-3.4-2.3-3.7-3.5-3.7-3.8c0-0.6,0.7-2.1,5.3-5.4
			c4.5-3.2,35.8-2.8,56.6-1.4c1.5,0.1,2.8-1,3-2.4c0.2-1.5-0.7-2.9-2.1-3.2c-11.2-2.8-41.6-11.5-48.1-17.3c-2.8-2.5-4.2-5.1-3.7-6.6
			c0.5-1.3,3-2.9,8.5-3.1c0.1,0,0.2,0,0.3,0c9.8,0,45.2,11.6,58.2,16.1c1.4,0.5,2.8-0.1,3.5-1.4c0.7-1.3,0.3-2.8-0.8-3.7
			c-4-3-14.8-12.2-16.5-18.6c-2.1-8.2,1.6-19.1,4.2-20c0.2,0,1.7,0.5,3.6,5.2l0.5,1.2c5.3,12.9,9.8,24,33.2,32.8
			c10.3,3.9,6.1,23.4,6,23.6c-0.2,0.8,0,1.5,0.4,2.2c0.4,0.7,1.1,1.1,1.8,1.3c1.6,0.3,39.6,8.2,67.8,5.3
			c27.3-2.8,74.3-48.6,76.3-50.6c1.1-1.1,1.1-2.9,0-4.1c-1.1-1.1-2.9-1.1-4.1,0c-0.5,0.5-47.5,46.4-72.8,49
			c-23.1,2.3-54-2.9-63.3-4.7c1-6.7,1.9-22.8-10.1-27.3c-21-7.9-24.8-17-29.9-29.6L83,42.6c-3.6-8.8-7.9-9.5-10.8-8.5
			c-6.9,2.3-10.4,17.4-7.9,26.9c1.1,4.1,4.4,8.5,7.9,12.2c-15-4.9-38.2-12-46.8-12c-0.1,0-0.2,0-0.3,0c-9.9,0.2-12.8,4.4-13.7,6.8
			c-0.8,2.3-1.3,7,5.2,12.9c4.4,3.9,16.2,8.4,27.3,11.9C29,92.6,12.2,93,7.7,96.3c-4,2.9-7.7,6.1-7.7,10.1c0.1,3.9,3.6,6.7,6.3,8.5
			c5.6,3.7,28.5,5,45.1,5.5c-12.6,4.7-25.1,10.7-25.8,15.8c-0.2,1.8,0.6,3.5,2.4,4.7C29.1,141.6,31.2,142,34,142z"/>
	</g>
	<g>
		<path fill="#F8C510" d="M263.8,102.8c23.5,25.7,49.2,18.6,49.2,18.6s63.1-76.6,51.8-97.9C353.6,2.2,342.6,1.7,320.4,7.4
			s-76.5,38.5-76.5,38.5S233,69.1,263.8,102.8z"/>
		<path fill="#F7A61B" d="M260.7,105.7C228.2,70.3,239.5,45.1,240,44l0.6-1.2l1.1-0.7c2.2-1.4,55.1-33.3,77.7-39
			C328.1,1,334.1,0,339.1,0c12.9,0,21.5,6.2,29.6,21.5c12,22.7-41.5,89.5-52.3,102.6l-0.9,1.1l-1.3,0.4c-0.4,0.1-4,1.1-9.7,1.1
			C295.3,126.6,277.3,123.9,260.7,105.7z M361.1,25.5c-7.5-14.1-13.9-16.9-22-16.9c-4.3,0-9.6,0.9-17.7,2.9
			c-19.5,4.9-65.8,32.3-74.1,37.2c-1.5,4.8-5.2,23.9,19.6,51.1c13.7,14.9,28,18.1,37.5,18.1c2.8,0,4.9-0.3,6.1-0.5
			C336,86.5,367.9,38.3,361.1,25.5z"/>
	</g>
	<g opacity="0.38">
		<path fill="#DDA312" d="M274.5,112.2c62.3-34.3,76.1-83.3,79.2-103.3c4,3,7.6,7.7,11.2,14.6c11.3,21.3-51.8,97.9-51.8,97.9
			S294.5,126.4,274.5,112.2z"/>
	</g>
</g>
</svg>
