<!-- Generator: Adobe Illustrator 18.1.1, SVG Export Plug-In  -->
<svg version="1.0"
	 xmlns="http://www.w3.org/2000/svg" xmlns:xlink="http://www.w3.org/1999/xlink" xmlns:a="http://ns.adobe.com/AdobeSVGViewerExtensions/3.0/"
	 x="0px" y="0px" width="334.1px" height="1023.8px" viewBox="0 0 334.1 1023.8" enable-background="new 0 0 334.1 1023.8"
	 xml:space="preserve">
<defs>
</defs>
<g>
	<g>
		<path fill="#FCD29F" d="M148.3,791v158.7c0,0-1.7,8.8-8.8,7.4c-7.1-1.4-10.2-7.4-10.2-7.4L94.3,791"/>
		<path fill="#D89368" d="M141,960c1.8,0,3.5-0.5,5-1.5c3.9-2.6,5-7.8,5.2-8.3l0.1-159.2h-5.8v158.7c-0.1,0-1.3,5.4-5.4,4.5
			c-4.8-1-7.4-4.6-8.1-5.6L97.1,790.3l-5.6,1.2L126.7,951c0.2,0.3,3.9,7.1,12.2,8.8C139.6,960,140.3,960,141,960z"/>
	</g>
	<g>
		<path fill="#F8C510" d="M186.9,358.9c0,0,10.6,163.7,32,237.1S266,738.4,266,738.4s-49.3,53.7-139.6,53.7S13,768.6,13,768.6
			s-13-106-7.2-158.2c5.8-52.3,25.9-115.9,48.2-166.6s38.1-88,38.1-88"/>
		<path fill="#F7A61B" d="M126.4,796.4c91.1,0,140.7-52.9,142.8-55.1l1.8-1.9l-0.9-2.5c-0.3-0.7-25.8-69.8-47-142.1
			c-21.1-72.1-31.8-234.5-31.9-236.2l-8.6,0.6c0.1,1.6,10.8,165.1,32.2,238c18.9,64.7,41.4,126.8,46.2,140.1
			c-9.6,9.3-56.8,50.5-134.6,50.5c-76.7,0-103.9-17.3-109.3-21.4c-1.6-13.7-12.3-107.9-7-155.5c5.3-47.5,23.2-109.3,47.9-165.3
			c22.1-50.1,38-87.6,38.1-88l-7.9-3.4C88,354.5,72.1,392,50.1,442c-25,56.8-43.1,119.5-48.5,167.8C-4.3,662,8.2,764.8,8.7,769.1
			l0.2,1.4l1,1C10.9,772.6,35.3,796.4,126.4,796.4z"/>
	</g>
	<g>
		<circle fill="#FCD29F" cx="143.4" cy="235.9" r="130.4"/>
		<path fill="#D89368" d="M10.1,235.9c0-73.5,59.8-133.3,133.3-133.3c73.5,0,133.3,59.8,133.3,133.3s-59.8,133.3-133.3,133.3
			C69.9,369.2,10.1,309.4,10.1,235.9z M15.9,235.9c0,70.3,57.2,127.5,127.5,127.5S271,306.2,271,235.9s-57.2-127.5-127.5-127.5
			S15.9,165.6,15.9,235.9z"/>
	</g>
	<g>
		<ellipse cx="43.5" cy="235.5" rx="6.1" ry="12.5"/>
	</g>
	<g>
		<path fill="#F8C510" d="M186.9,113.7c0,0,3.7-10.9,7.1-12.6c3.4-1.7,35.3,23,40.4,24.7s-7,13.2-7,13.2"/>
		<path fill="#D89368" d="M229.5,141c3.8-3.6,10-10.3,9-14.7c-0.4-1.6-1.5-2.8-3.1-3.3c-1.7-0.6-9-5.6-14.9-9.7
			c-20.3-14-24.7-16.4-27.7-14.8c-4.1,2.1-7.6,11.5-8.6,14.3l5.4,1.9c1.6-4.6,3.9-9.2,5.3-10.6c3.5,1.2,15.2,9.2,22.3,14.1
			c7.9,5.4,12.8,8.8,15.5,10c-0.8,1.9-3.9,5.7-7.1,8.8L229.5,141z"/>
	</g>
	<g>
		<path fill="#46433D" d="M202.9,104c0,0-16.6-101.3,52.8-101.1c69.5,0.2,75.2,111.2,75.2,111.2s-29.2-23-57.1-15.5
			s-43.2,25.6-43.2,25.6L202.9,104z"/>
		<path fill="#2E2B27" d="M200.2,105.6l-0.2-1.2c-0.4-2.4-9.2-58.1,15.6-87.4C225.3,5.8,238.7,0,255.7,0
			c71.4,0.2,78,112.8,78.1,113.9l0.3,6.3l-5-3.9c-0.2-0.2-21.2-16.4-43.7-16.4c-3.8,0-7.5,0.5-10.9,1.4
			c-26.6,7.1-41.6,24.5-41.8,24.7l-1.7,2L200.2,105.6z M327.5,108.2C325,85.4,312.4,5.9,255.5,5.8c-15.1,0-27,5.1-35.5,15.1
			c-21.2,25-15.6,73.5-14.5,81.6l24.7,17.9c4.9-5,19.6-18.3,42.8-24.6c3.9-1.1,8.1-1.6,12.4-1.6C303.2,94.2,319.5,103,327.5,108.2z"
			/>
	</g>
	<g>
		<path fill="#F8C510" d="M129.3,949.7c0,0-21,16.9-47.9,12.4c-27.3-4.6-39.5-17.3-39.5-17.3s-23,50.1,25.1,68
			c48,17.9,86.4-2.7,87.2-26.4c0.8-23.7-6.2-36.1-6.2-36.1"/>
		<path fill="#F7A61B" d="M102.7,1023.8c14.8,0,28.3-3.6,38.9-10.8c10.3-6.9,16.4-16.6,16.7-26.6c0.8-24.6-6.5-37.8-6.8-38.3
			l-7.5,4.2c0.1,0.1,6.4,11.9,5.7,33.8c-0.2,7.2-4.9,14.4-12.9,19.8c-13.1,8.8-37.9,14.1-68.4,2.8c-12.4-4.6-20.7-11.9-24.8-21.7
			c-5.4-13-2.2-27.4,0.2-35c6.2,4.5,18.2,11.3,36.8,14.4c28.5,4.8,50.4-12.5,51.4-13.3l-5.4-6.7c-0.2,0.2-20,15.6-44.5,11.5
			c-25.6-4.3-37-15.9-37.1-16.1l-4.4-4.6l-2.6,5.8c-0.5,1-11.4,25.3-2.3,47.3c5,12.1,15,21,29.8,26.5
			C78.1,1021.5,90.8,1023.8,102.7,1023.8z"/>
	</g>
	<g>
		<path fill="#FCD29F" d="M39.4,314.5c0,0,18.2-6.1,32.6-28.4"/>
		<path d="M39.4,317.4c0.3,0,0.6,0,0.9-0.1c0.8-0.3,19.3-6.6,34.1-29.6c0.9-1.3,0.5-3.1-0.9-4c-1.3-0.9-3.1-0.5-4,0.9
			c-13.6,21.2-30.9,27.2-31.1,27.3c-1.5,0.5-2.3,2.1-1.8,3.6C37.1,316.6,38.2,317.4,39.4,317.4z"/>
	</g>
	<g>
		<path fill="#FCD29F" stroke="#D89368" stroke-miterlimit="10" d="M203.6,105.5"/>
	</g>
	<g>
		<path fill="#FDE7A3" d="M22.6,530.5c0,0,30.8,27.5,88.3,27.5s94.4-27.5,94.4-27.5l22.5,94.7c0,0-34.5,46-113.8,46
			s-109.2-46-109.2-46"/>
		<path fill="#F0504D" d="M113.9,674.1c79.8,0,114.7-45.3,116.1-47.2l0.8-1.1l-23.8-100.2l-3.5,2.6c-0.4,0.3-37,27-92.7,27
			c-55.6,0-86-26.5-86.3-26.8l-3.8,4.3c1.3,1.2,32.3,28.3,90.2,28.3c48.3,0,81.9-18.8,92.6-25.7l21.2,89.2
			c-5.7,6.7-40.4,43.9-110.7,43.9C37,668.4,7.4,624.1,7.1,623.6l-4.8,3.1C3.6,628.7,34,674.1,113.9,674.1z"/>
	</g>
	<g opacity="0.27">
		<path fill="#DDA312" d="M218.9,596c21.5,73.4,47.1,142.4,47.1,142.4s-22.9,24.8-65.9,40.7c-76.2-136.1-34.6-420.5-34.6-420.5
			s0.3-0.2,0.7-0.4l20.7,0.7C186.9,358.9,197.4,522.6,218.9,596z"/>
	</g>
	<g opacity="0.32">
		<path fill="#D6AF85" d="M96.5,356.7c206.2-40.3,120.8-222.5,120.8-222.5l6.9-0.7c30.2,23.9,49.7,60.8,49.7,102.4
			c0,72-58.4,130.4-130.4,130.4c-16.8,0-32.9-3.2-47.7-9L96.5,356.7z"/>
	</g>
	<g>
		<path fill="#46433D" d="M33.9,165.2c23.2-35.9,63.6-59.7,109.6-59.7c14,0,27.4,2.2,40.1,6.3l54.5,34.4
			c22.2,23.4,35.8,55,35.8,89.7c0,43.9-21.7,82.7-55,106.3l-66.4-57.7c0,0,20.5-6.8,27.3-16.5c10.1-14.3,1.4-32.8-15.8-40.3
			c-20-8.7-34.5,33.8-34.5,33.8s-17.3-65.4-31.6-75.5C83.5,175.9,33.9,165.2,33.9,165.2L33.9,165.2z"/>
		<path fill="#2E2B27" d="M146.9,283.3l4.8-1.6c0.2-0.1,19.7-6.6,25.9-15.4c3.6-5.2,4.7-11.1,3-17.2c-2.2-7.9-8.8-14.9-17.6-18.7
			c-1.4-0.6-2.9-0.9-4.3-0.9c-12.4,0-23.2,23.8-26.4,33l-3.1,9l-2.4-9.2c-4.7-17.9-19.4-66.1-30.5-73.9c-13.7-9.6-62.5-20.3-63-20.4
			l-4.1-0.9l2.3-3.5c24.7-38.2,66.6-61,112-61c13.9,0,27.7,2.2,40.9,6.4l55.2,34.7l0.6,0.5c23.6,24.9,36.6,57.5,36.6,91.7
			c0,43-21,83.7-56.2,108.7l-1.8,1.3L146.9,283.3z M182.3,114.4c-12.6-4-25.6-6.1-38.8-6.1c-42.1,0-80.9,20.5-104.8,54.9
			c12.3,2.8,48.6,11.7,60.9,20.4c12.2,8.5,25.2,50.4,30.5,68.9c4.9-10.9,15-28.9,28.6-28.9c2.2,0,4.4,0.5,6.6,1.4
			c10.4,4.5,18.2,12.9,20.8,22.5c2.2,7.7,0.8,15.5-3.8,22.1c-5.3,7.5-17.4,13.1-24.1,15.8l61,53.1c32.6-24,51.9-62.2,51.9-102.7
			c0-32.7-12.4-63.7-34.8-87.5L182.3,114.4z"/>
	</g>
	<g opacity="0.22">
		<path fill="#23221F" d="M273.4,245.7c-0.1,1.7-0.3,3.5-0.5,5.2c-0.1,0.9-0.2,1.7-0.3,2.6c-0.2,1.7-0.5,3.3-0.8,5
			c-0.1,0.8-0.3,1.6-0.4,2.4c-0.4,1.9-0.8,3.8-1.3,5.7c-0.1,0.5-0.2,0.9-0.3,1.4c-0.6,2.4-1.3,4.8-2,7.2c-0.1,0.2-0.2,0.5-0.2,0.7
			c-0.7,2.1-1.4,4.1-2.2,6.2c-0.2,0.5-0.4,1.1-0.6,1.6c-0.7,1.8-1.4,3.5-2.2,5.3c-0.2,0.5-0.5,1-0.7,1.6c-0.9,1.9-1.8,3.7-2.7,5.6
			c-0.2,0.3-0.3,0.6-0.4,0.9c-3.5,6.6-7.6,12.9-12.2,18.8c-0.1,0.2-0.2,0.3-0.4,0.5c-1.5,1.9-3,3.7-4.5,5.5
			c-0.1,0.1-0.1,0.1-0.2,0.2c-6.7,7.6-14.3,14.4-22.5,20.3c0,0,0,0,0,0l-29.2-25.4c81.5-67.5,27.6-182.6,27.6-182.6l1.6-0.2l19,12
			c0.2,0.3,0.5,0.5,0.7,0.8c2.4,2.6,4.8,5.3,7,8.1c0.3,0.4,0.6,0.8,1,1.3c2.2,2.9,4.4,5.8,6.4,8.9c0,0.1,0.1,0.1,0.1,0.2
			c2,3.1,3.8,6.3,5.6,9.6c0.3,0.5,0.6,1.1,0.9,1.6c1.6,3.2,3.2,6.5,4.5,9.8c0.2,0.5,0.4,1.1,0.6,1.6c1.4,3.4,2.6,6.9,3.7,10.5
			c0,0,0,0.1,0,0.1c1.1,3.6,1.9,7.2,2.7,10.9c0.1,0.7,0.3,1.3,0.4,2c0.7,3.6,1.2,7.2,1.6,10.9c0.1,0.7,0.1,1.4,0.2,2
			c0.3,3.8,0.6,7.7,0.6,11.6c0,2.5-0.1,5-0.2,7.5C273.6,244.2,273.5,245,273.4,245.7z"/>
	</g>
	<g opacity="0.22">
		<path fill="#23221F" d="M273.8,98.5c-22.8,6.1-37.2,19.4-41.7,24l-14.8-9.9c0,0,60.4-130.9,113.6,1.4
			C330.9,114.1,301.6,91.1,273.8,98.5z"/>
	</g>
	<g opacity="0.32">
		<polygon fill="#D6AF85" points="148.3,835.5 98.7,810.7 94.3,791 148.3,791 		"/>
	</g>
	<g>
		<path fill="#F7A61B" d="M126.4,796.4c91.1,0,140.7-52.9,142.8-55.1l1.8-1.9l-0.9-2.5c-0.3-0.7-25.8-69.8-47-142.1
			c-21.1-72.1-31.8-234.5-31.9-236.2l-8.6,0.6c0.1,1.6,10.8,165.1,32.2,238c18.9,64.7,41.4,126.8,46.2,140.1
			c-9.6,9.3-56.8,50.5-134.6,50.5c-76.7,0-103.9-17.3-109.3-21.4c-1.6-13.7-12.3-107.9-7-155.5c5.3-47.5,23.2-109.3,47.9-165.3
			c22.1-50.1,38-87.6,38.1-88l-7.9-3.4C88,354.5,72.1,392,50.1,442c-25,56.8-43.1,119.5-48.5,167.8C-4.3,662,8.2,764.8,8.7,769.1
			l0.2,1.4l1,1C10.9,772.6,35.3,796.4,126.4,796.4z"/>
	</g>
</g>
</svg>
