<!-- Generator: Adobe Illustrator 18.1.1, SVG Export Plug-In  -->
<svg version="1.0"
	 xmlns="http://www.w3.org/2000/svg" xmlns:xlink="http://www.w3.org/1999/xlink" xmlns:a="http://ns.adobe.com/AdobeSVGViewerExtensions/3.0/"
	 x="0px" y="0px" width="771.9px" height="899.6px" viewBox="0 0 771.9 899.6" enable-background="new 0 0 771.9 899.6"
	 xml:space="preserve">
<defs>
	
		<pattern  x="-8632.3" y="-2231.1" width="46.5" height="46.5" patternUnits="userSpaceOnUse" id="Polka_dots" viewBox="0 -54.1 46.5 46.5" overflow="visible">
		<g>
			<polygon fill="none" points="0,-54.1 46.5,-54.1 46.5,-7.6 0,-7.6 			"/>
			<path fill="#FFD400" d="M33.3-5c0,2.8-2.2,5-5,5s-5-2.2-5-5s2.2-5,5-5S33.3-7.8,33.3-5z"/>
			<path fill="#FFD400" d="M10-5c0,2.8-2.2,5-5,5S0-2.2,0-5s2.2-5,5-5S10-7.8,10-5z"/>
			<path fill="#FFD400" d="M44.9-28.3c0,2.8-2.2,5-5,5c-2.8,0-5-2.2-5-5s2.2-5,5-5C42.6-33.3,44.9-31,44.9-28.3z"/>
			<path fill="#FFD400" d="M21.6-28.3c0,2.8-2.2,5-5,5s-5-2.2-5-5s2.2-5,5-5S21.6-31,21.6-28.3z"/>
			<path fill="#FFD400" d="M33.3-51.5c0,2.8-2.2,5-5,5s-5-2.2-5-5c0-2.8,2.2-5,5-5S33.3-54.3,33.3-51.5z"/>
			<path fill="#FFD400" d="M10-51.5c0,2.8-2.2,5-5,5s-5-2.2-5-5c0-2.8,2.2-5,5-5S10-54.3,10-51.5z"/>
		</g>
	</pattern>
	
		<pattern  x="-8632.3" y="-2231.1" width="46.5" height="46.5" patternUnits="userSpaceOnUse" id="Polka_dots_2" viewBox="0 -54.1 46.5 46.5" overflow="visible">
		<g>
			<polygon fill="none" points="0,-54.1 46.5,-54.1 46.5,-7.6 0,-7.6 			"/>
			<path fill="#FFFFFF" d="M33.3-5c0,2.8-2.2,5-5,5s-5-2.2-5-5s2.2-5,5-5S33.3-7.8,33.3-5z"/>
			<path fill="#FFFFFF" d="M10-5c0,2.8-2.2,5-5,5S0-2.2,0-5s2.2-5,5-5S10-7.8,10-5z"/>
			<path fill="#FFFFFF" d="M44.9-28.3c0,2.8-2.2,5-5,5c-2.8,0-5-2.2-5-5s2.2-5,5-5C42.6-33.3,44.9-31,44.9-28.3z"/>
			<path fill="#FFFFFF" d="M21.6-28.3c0,2.8-2.2,5-5,5s-5-2.2-5-5s2.2-5,5-5S21.6-31,21.6-28.3z"/>
			<path fill="#FFFFFF" d="M33.3-51.5c0,2.8-2.2,5-5,5s-5-2.2-5-5c0-2.8,2.2-5,5-5S33.3-54.3,33.3-51.5z"/>
			<path fill="#FFFFFF" d="M10-51.5c0,2.8-2.2,5-5,5s-5-2.2-5-5c0-2.8,2.2-5,5-5S10-54.3,10-51.5z"/>
		</g>
	</pattern>
	
		<pattern  x="-8632.3" y="-2231.1" width="34" height="36.5" patternUnits="userSpaceOnUse" id="Polka_dots_4" viewBox="8.5 -36.5 34 36.5" overflow="visible">
		<g>
			<polygon fill="none" points="8.5,-36.5 42.5,-36.5 42.5,0 8.5,0 			"/>
			<path fill="#D17A28" d="M44-13.1c0,2.8-2.2,5-5,5c-2.8,0-5-2.2-5-5s2.2-5,5-5C41.8-18.1,44-15.9,44-13.1z"/>
			<path fill="#D17A28" d="M27-13.1c0,2.8-2.2,5-5,5s-5-2.2-5-5s2.2-5,5-5S27-15.9,27-13.1z"/>
			<path fill="#D17A28" d="M10-13.1c0,2.8-2.2,5-5,5s-5-2.2-5-5s2.2-5,5-5S10-15.9,10-13.1z"/>
			<path fill="#D17A28" d="M35.5-31.4c0,2.8-2.2,5-5,5s-5-2.2-5-5s2.2-5,5-5S35.5-34.1,35.5-31.4z"/>
			<path fill="#D17A28" d="M18.5-31.4c0,2.8-2.2,5-5,5s-5-2.2-5-5s2.2-5,5-5S18.5-34.1,18.5-31.4z"/>
		</g>
	</pattern>
</defs>
<g>
	<path fill="#E99323" d="M129.4,138.7L129,10.1c0,0,47.3-22.3,77.8-0.8l18,156.9L129.4,138.7z"/>
	<path fill="#CB7E29" d="M135,12.9c0,0,30.4-17.9,62.4-3.1C197.4,9.8,176.4,26.2,135,12.9z"/>
	<path fill="#F4A41D" d="M129.2,65.3c22,22.1,64.7,36.5,89,43.3l-3.6-31.3c-36-11.7-70.2-35.8-85.5-47.5L129.2,65.3z"/>
	<path fill="#F4A41D" d="M54,183.9c0,0-13,303.8,0,369s16.8,288.9,11.2,311.2c0,0,167.7,24.2,333.6,7.5s277.7-5.6,277.7-5.6
		s69-631.8,55.9-639.3s-119.3-1.9-167.7,7.5c-48.5,9.3-102.5-18.6-156.6-48.5S143.5,75.8,54,183.9z"/>
	<pattern  id="SVGID_1_" xlink:href="#Polka_dots" patternTransform="matrix(0.468 0 0 0.468 -2984.5647 -3448.1519)">
	</pattern>
	<path opacity="0.67" fill="url(#SVGID_1_)" d="M262,877.5L74.7,163.7c-7.4,5.8-14.4,12.5-20.7,20.1c0,0-13,303.8,0,369
		s16.8,288.9,11.2,311.2C65.2,864.1,151.8,876.6,262,877.5z"/>
	<path fill="none" d="M45.8,178.4"/>
	<path fill="#1F3F4D" d="M26.9,340.4l6.8,28c0,0,52.7-1.9,83.3,1.9s141-9.3,212.4-11.2c71.4-1.9,418-1.9,418-1.9v-22.4
		c0,0-445.2-1.9-503,7.5C186.6,351.6,26.9,340.4,26.9,340.4z"/>
	<polygon fill="#1F3F4D" points="85.7,563.5 100.6,846.7 175.2,848 169,554.8 	"/>
	<polygon fill="#1F3F4D" points="205,558.5 213.7,851.7 292,843 293.2,561 	"/>
	<polygon fill="#1F3F4D" points="472.1,552.3 475.9,843 551.7,839.3 556.6,557.2 	"/>
	<polygon fill="#1F3F4D" points="585.2,562.2 581.5,845.5 649.8,838 667.2,553.5 	"/>
	<path fill="#1F3F4D" d="M0,405.7c0,0,3.4,37.3,13.5,46.6c0,0,119.6,0,155-3.7s412.8-13,473.4-13c60.7,0,116.2,5.6,129.7,13
		c0,0,3.4-33.5-13.5-44.7c0,0-593,13-623.4,11.2S0,405.7,0,405.7z"/>
	<polygon fill="#D5E4E3" points="102.5,579 115.7,830.5 162.1,835.6 157.2,573.4 	"/>
	<polygon fill="#D5E4E3" points="218.7,579.6 227.4,836.8 280.8,835.6 279.6,579.6 	"/>
	<polygon fill="#D5E4E3" points="484.7,569 488,827.2 540.5,826.9 543,568.4 	"/>
	<polygon fill="#D5E4E3" points="595.2,577.1 595.2,828.1 642.5,822.8 654.2,570.2 	"/>
	<path fill="#18323A" d="M18.6,854.8v33.5c0,0,65.2,11.2,139.8,11.2s178.9-14.9,303.8-16.8c124.9-1.9,259.1,5.6,259.1,5.6l-3.7-33.5
		c0,0-277.7-1.9-326.2,5.6c-48.5,7.5-190.1,16.8-259.1,11.2S18.6,854.8,18.6,854.8z"/>
	<polygon fill="#1F3F4D" points="342.9,775.6 327.1,563.1 452.9,560.4 439.8,776.5 	"/>
	<polygon fill="#18323A" points="338.3,577.1 353.2,770 427.7,770 442.6,573.4 	"/>
	<polygon fill="#18323A" points="345.7,810.1 331.7,768.2 444.5,768.2 438.9,813.8 	"/>
	<polygon fill="#1F3F4D" points="334.5,801.7 342.9,839 441.7,838 446.4,800.8 	"/>
	<polygon fill="#18323A" points="329.9,875.3 328,823.1 447.3,823.1 452.9,867.9 	"/>
	<pattern  id="SVGID_2_" xlink:href="#Polka_dots_2" patternTransform="matrix(0.27 0 0 0.27 -4136.5264 -4785.5942)">
	</pattern>
	<polygon fill="url(#SVGID_2_)" points="159.7,706.9 110.4,728.4 112.9,776.5 160.6,756.3 	"/>
	<pattern  id="SVGID_3_" xlink:href="#Polka_dots_2" patternTransform="matrix(0.27 0 0 0.27 -4136.5264 -4827.5923)">
	</pattern>
	<polygon fill="url(#SVGID_3_)" points="223.7,729.5 280.2,705.5 279.9,654.5 222.1,679.7 	"/>
	<pattern  id="SVGID_4_" xlink:href="#Polka_dots_2" patternTransform="matrix(0.27 0 0 0.27 -4136.5264 -4785.5942)">
	</pattern>
	<polygon fill="url(#SVGID_4_)" points="543,568.4 484.7,569 485.3,618.4 542.7,594.1 	"/>
	<pattern  id="SVGID_5_" xlink:href="#Polka_dots_2" patternTransform="matrix(0.27 0 0 0.27 -4136.5264 -4785.5942)">
	</pattern>
	<polygon fill="url(#SVGID_5_)" points="487.2,766.1 488,827.2 540.5,826.9 541.5,725.8 	"/>
	<pattern  id="SVGID_6_" xlink:href="#Polka_dots_2" patternTransform="matrix(0.27 0 0 0.27 -4136.5264 -4785.5942)">
	</pattern>
	<polygon fill="url(#SVGID_6_)" points="595.2,808.2 644.5,777.8 650.7,644.6 595.2,685.9 	"/>
	<g>
		<defs>
			<path id="SVGID_7_" d="M54,183.9c0,0-13,303.8,0,369s16.8,288.9,11.2,311.2c0,0,167.7,24.2,333.6,7.5s277.7-5.6,277.7-5.6
				s69-631.8,55.9-639.3s-119.3-1.9-167.7,7.5c-48.5,9.3-102.5-18.6-156.6-48.5S143.5,75.8,54,183.9z"/>
		</defs>
		<clipPath id="SVGID_8_">
			<use xlink:href="#SVGID_7_"  overflow="visible"/>
		</clipPath>
		<g opacity="0.34" clip-path="url(#SVGID_8_)">
			
				<pattern  id="SVGID_9_" xlink:href="#Polka_dots_4" patternTransform="matrix(0.324 0 0 0.324 -3823.5403 -4448.4263)"  opacity="0.34">
			</pattern>
			<path fill="url(#SVGID_9_)" d="M563.7,295.6c-1.3,0.8-2.7,1.7-4,2.5c-2.3,1.9-5.1,2.3-8,2.6c-2.4,0.2-4.8-0.4-7.2,0.1
				c-4.4-0.3-8.8-0.1-13.1,0c-0.7,0.1-1.3,0.1-2,0.2c-2-0.1-4.1-0.1-6.1,0.3c-1.1,0.1-2.2,0-3.3,0c-5.9,1-11.4-1.3-17.1-2
				c-4.3-0.6-8.5-2.2-13-1.9c-0.7,0.1-1.4,0.1-2.1,0.1c-1.7-0.1-3.3,0.2-4.8,1c-8.7,8.2-13.8,9.4-22.6,5.3c-1.3-0.8-2.3-1.8-3.2-2.9
				c-2.3-3.4-3.9-7-2.5-11.2c0.6-1.6,1.5-3.1,2.4-4.6c2.1-3,4.6-5.7,6-9.2c1.7-2.9,3.4-5.7,4.6-8.9c1.4-2.3,2.5-4.8,4.6-6.5
				c3.9-3.9,6.2-8.7,7.8-13.9c0.2-0.6,0.6-1.2,0.9-1.7c1.5-1.9,3.9-3.2,3.8-6.1c0.9-4,4.6-6.4,5.6-10.4c1.3-3.6,3.5-6.6,5.4-9.7
				c1.2-1.9,2.8-3.6,3.8-5.7c0.3-2,4.2-3.1,1.3-5.8c-6.8,0.1-13.5,1.3-20.1,2.5c-7,1.1-12,6.8-18.7,8.4c-5.2,1.3-10,0.3-14-3.3
				c-3.2-3.8-3.8-7.7-0.3-11.7c7.6-5.6,17-6.9,25.3-10.9c6.9-1.2,13.7-3.4,20.7-4c1.8,0,3.4,0.6,5.1,1.2c1.1-0.2,2.2-0.4,3.2-0.6
				c3.6-3.7,9.1-2.5,13.1-5.1c2.4-1.3,3-4,4.7-5.9c0.9,0,1.5-0.4,1.4-1.4c-0.1-0.8,0.1-1.4,0.7-1.9c1.2-0.9,2.6-1.3,4-1.5
				c5.7-0.8,11,0.2,15.8,3.5c3.4,3.4,3.1,7.2,1,11c-1.6,2.9-3.5,5.6-5.3,8.4c-0.9,1.4-2.1,2.7-3,4.1c-1.5,2.2-2.8,4.4-4.3,6.6
				c-1.6,2.2-2.8,4.5-4.3,6.7c-3.8,5.7-6.5,12.1-10.4,17.8c-2.4,3.3-4.4,6.8-6.6,10.2c-1.6,2.2-3.1,4.3-4.3,6.7
				c-3.3,4.6-6.2,9.5-8.2,14.8c-0.2,0.6-0.5,1.2-0.8,1.8c-1.5,4.2-3.6,8.4-1.5,13c4.7,2.7,10,2.4,15,3.7c2.5,0.8,4.8-0.3,7.2-0.8
				c3.2-0.6,6.4,1.1,9.7,0.1c6.2-0.4,12.3-1.4,18.5-1.4c1.1-0.2,2.3-0.4,3.4-0.4c4.4,0.2,8.4,1.9,12.5,3.2c3.2,2.3,7.3,4.1,4.9,9.3
				C564.7,293,564.2,294.3,563.7,295.6z"/>
			
				<pattern  id="SVGID_10_" xlink:href="#Polka_dots_4" patternTransform="matrix(0.324 0 0 0.324 -3823.5403 -4448.4263)"  opacity="0.34">
			</pattern>
			<path fill="url(#SVGID_10_)" d="M320.7,221.6c2.5-2.5,5-5.1,7.5-7.6c0.8-2.3,3-2.7,4.8-3.6c2.7,0,5.3-0.1,7.7-1.4
				c7.7-0.1,14.9,2.5,22.4,3.6c0.7,0.1,1.4,0.3,2.2,0.5c3.4,1.8,7.5,1.7,10.7,4.1c0.6,0.4,1.1,0.9,1.6,1.4c1.5,2.1,2.2,4.5,2.3,7
				c0,0.8-0.1,1.5-0.2,2.2c-1.2,4.4-3.9,7.4-8.1,9.2c-5.1,1.7-10,0.1-14.9-1.2c-3.5-1.9-7.1-3.1-11.1-2.5c-2.7,0.2-5.4,0.2-7.5,2.2
				c-5.9,7.1-3.3,15.9-4.5,23.9c-0.8,5-0.6,10.4,1.2,15.4c0.7,2.9,1.7,5.7,3.2,8.2c2.2,2.9,5.1,4.9,7.9,7.1c2.1,1.6,4.5,2.2,7.1,1.6
				c0.6-0.2,1.2-0.3,1.9-0.4c4.7-1.4,8.8-4,12.7-6.8c3.5-1.6,6.7-3.6,10.4-4.7c4.4-0.9,8.4-0.4,11.6,3.2c1,1.3,1.5,2.7,1.7,4.3
				c-0.1,3.5-0.7,6.8-2.8,9.7c-0.9,1.5-2.1,2.8-3.4,4c-3.9,2.2-7.5,5-11.4,7.3c-2.2,1.3-4.4,2.8-6.8,3.8c-2.4,1.2-5.1,1.6-7.7,2.3
				c-4.3,1.8-8.9,1.3-13.4,1.4c-6.9,1.8-11.7-2.7-17.2-5.3c-0.6-0.2-1.3-0.6-1.9-0.9c-4.9-4.6-8-10.4-11-16.3
				c-0.9-2.1-1.6-4.2-1.6-6.4c-0.5-2-0.9-3.9-1.4-5.9c2.7-4.5-0.1-9.3,0.8-13.9c0.1-0.4-1.5,0.5-1.9-0.5
				C309.3,250.3,311.8,235.3,320.7,221.6z"/>
			
				<pattern  id="SVGID_11_" xlink:href="#Polka_dots_4" patternTransform="matrix(0.324 0 0 0.324 -3823.5403 -4448.4263)"  opacity="0.34">
			</pattern>
			<path fill="url(#SVGID_11_)" d="M412.3,154.3c0.9,0.1,1.7,0.3,2.6,0.4c4.3-0.7,8,0.7,11.3,3.4c1.8,0.6,1.1,2.6,2,3.7
				c1.4,2.4,1.7,5.2,2.7,7.7c0.4,0.6,0.8,1.2,1.1,1.7c0,0.5,0.1,1,0.1,1.5c0.6,1.2,1.1,2.5,1.1,3.9c0.3,1,0.3,2.1,0.4,3.1
				c0,2.2-0.4,4.3-1.1,6.3c-2.5,6.3-5.1,12.6-9.4,18c-0.7,0.8-1.5,1.5-2.3,2.2c-1.4,1-2.9,2-4.5,2.8c-2.7,1.2-5.5,1.6-8.4,1.6
				c-4.9-0.5-9.1-2.5-12.9-5.4c-1.7-1.8-2.9-4-4.7-5.8c-0.4-0.6-0.8-1.2-1-1.9c-0.2-0.7-0.3-1.4-0.4-2.2c-0.1-1.9-0.8-3.7-1.4-5.5
				c-5-15.7-1.3-25.4,13-34.3c1.8-0.7,3.6-0.3,5.4-0.1C408.1,154.3,410.6,156.4,412.3,154.3z"/>
			
				<pattern  id="SVGID_12_" xlink:href="#Polka_dots_4" patternTransform="matrix(0.324 0 0 0.324 -3823.5403 -4448.4263)"  opacity="0.34">
			</pattern>
			<path fill="url(#SVGID_12_)" d="M630.6,148.5c1.5-0.1,1.8-1.2,2.1-2.3c2.2-1.6,4.4-3.1,7-4.1c2.5-0.4,4.7-2.1,7.4-1.3
				c4,0.1,6.7,3.2,10.1,4.5c2.7,3.4,1.6,6.4-0.7,9.4c-1.8,2.4-3,5.2-5,7.5c-0.8,1.8-1.7,3.6-2.7,5.2c-0.5,0.8-1,1.6-1.6,2.4
				c-0.3,0.5-0.7,1-1,1.5c-1.7,2.6-3.3,5.2-5.4,7.5c-1.3,1.4-1.7,3.2-2.7,4.8c-1.8,2.6-3.5,5.3-4.9,8.1c-0.3,0.9-0.7,1.8-1.1,2.7
				c-2.8,4.1-6.3,7.6-8.4,12.2c-1,1-1.8,2-2.6,3.1c-1,0.9-2.2,1.6-3.6,2c-6.5,1.6-9.8-0.1-11.4-6.2c-0.6-2.2-0.8-4.6-1.1-6.9
				c0-2.9,1.4-5.4,2.8-7.8c1.5-2.2,3.2-4.3,4-6.8c0.8-1.6,2-3,2.9-4.6c1.9-3.2,0.5-4.6-2.8-4.7c-1.5,0.2-3.1,0.3-4.6,0.4
				c-3.4,0.5-6.8,0.8-10.1,1.4c-1.2,0.3-2.3,0.5-3.4,1c-1.7,0.6-3.4,1.3-4.9,2.2c-3.3,2-6.8,3.8-10.1,5.7
				c-5.2,1.2-10.1,0.8-14.7-2.1c-2.4-2.5-4.4-5.1-3.8-8.9c4.3-8,12.8-9,20-12c1.2-0.4,2.5-0.7,3.8-1c2.1-0.5,4.2-1.1,6.3-1.8
				c1.5-0.5,3.1-0.9,4.7-0.9c4.5-1,9.2-1.3,13.6-2.7c4,0.1,7.8-1.1,11.5-2.2C624.5,153.7,627.4,150.8,630.6,148.5z"/>
			
				<pattern  id="SVGID_13_" xlink:href="#Polka_dots_4" patternTransform="matrix(0.324 0 0 0.324 -3823.5403 -4448.4263)"  opacity="0.34">
			</pattern>
			<path fill="url(#SVGID_13_)" d="M615.1,214.3c0,0.3,0.1,0.7,0.2,1c0.5,1.9,0.7,3.7-0.1,5.5c-1.3,2.2-2.2,4.6-3.5,6.8
				c-1,2.9-2.6,5.5-3.3,8.6c-2.1,10.2-2.2,10.2,8.3,12.2c1.8,0.2,3.4,0.8,5.2,1c3.1,0.3,6.3-0.7,9.3,1c4.1,1.2,8,0.6,11.9-0.7
				c3.2-0.7,6.3-1.8,9.5-2.6c6.3,0.3,12.7-2.1,18.9,0.9c1,0.6,1.7,1.4,2.2,2.4c0.2,0.7,0.3,1.4,0.3,2.1c-1.3,3-1.6,6.2-0.7,9.4
				c-4,5.4-8.4,2.9-13,0.5c1.3,1.5,1.2,2.7,0.3,4c-0.7,0.3-1.3,0.2-1.8-0.3c-2.4,0-4.9,0-7.3,0c-8.8,0.2-17.6,0.4-26.4,0.7
				c-4.6,0.3-8.9-1.5-13.3-2c-3.3-0.6-6.6-1.3-9.9-1.9c-2.9-0.9-4.3,1-5.5,3.1c-0.7,1.2-1.9,1.9-3,2.7c-1.9,1.7-3.8,3.3-6.2,4.3
				c-10,1.2-14-0.8-17-8.4c0.1-0.4,0.1-0.8,0-1.3c-3.7-6.1,1-10.1,3.8-14.5c0.9-2,2.3-3.6,3-5.6c6.5-11.6,12.5-23.4,18.3-35.4
				c0.3-0.6,0.6-1.2,1-1.8c1.9-1.8,4-3.5,5.3-5.8c1.2-1.3,2.5-2.3,4.4-1.7c0.3,1.5,1.3,2.6,1.4,4.4c0.4,6.3,3.8,8.5,9.8,6.8
				C618.5,212.3,616.1,212.9,615.1,214.3z"/>
			
				<pattern  id="SVGID_14_" xlink:href="#Polka_dots_4" patternTransform="matrix(0.324 0 0 0.324 -3823.5403 -4448.4263)"  opacity="0.34">
			</pattern>
			<path fill="url(#SVGID_14_)" d="M434.7,317.2c-2.4,0.2-4.9,0.4-7.3,0.6c-2.9,0.4-4.5-1.5-6.1-3.4c-1.6-2.7-2.3-5.8-3.3-8.7
				c-2.5-8.5-3.9-17.2-5.2-25.9c-0.4-1.9-1-3.8-1.4-5.7c-0.1-0.6-0.2-1.3-0.2-1.9c0.3-2.9-0.8-5.6-1.2-8.4c-0.3-2.5-0.5-5-1.8-7.2
				c-0.3-0.6-0.5-1.2-0.7-1.8c-0.7-4.8-1.2-9.7-3.3-14.3c-1.2-2.1-3.7-3.7-2.9-6.6c-1-11.6,2.1-13.4,16.6-10
				c6.2,1.6,8.8,6.4,10.7,11.8c1.5,6.1,3.3,12.2,5.1,18.3c0.5,2.2,1.2,4.4,1.8,6.6c0.8,3.5,1.2,7.1,2.2,10.5
				c0.3,1.6,0.5,3.2,0.9,4.8c0.8,4.9,1.7,9.7,2.9,14.5c0,2.3,0.6,4.5,1.3,6.7c0.3,1.4,0,2.6-0.4,3.9c-0.2,2.6,0.1,5.3,0,7.9
				c-0.8,1.2-1.6,2.5-2.4,3.7C438.3,314.3,436.5,315.7,434.7,317.2z"/>
		</g>
	</g>
	<g>
		<g>
			<path fill="#FBC337" d="M576.1,283.2c-1.3,0.8-2.7,1.7-4,2.5c-2.3,1.9-5.1,2.3-8,2.6c-2.4,0.2-4.8-0.4-7.2,0.1
				c-4.4-0.3-8.8-0.1-13.1,0c-0.7,0.1-1.3,0.1-2,0.2c-2-0.1-4.1-0.1-6.1,0.3c-1.1,0.1-2.2,0-3.3,0c-5.9,1-11.4-1.3-17.1-2
				c-4.3-0.6-8.5-2.2-13-1.9c-0.7,0.1-1.4,0.1-2.1,0.1c-1.7-0.1-3.3,0.2-4.8,1c-8.7,8.2-13.8,9.4-22.6,5.3c-1.3-0.8-2.3-1.8-3.2-2.9
				c-2.3-3.4-3.9-7-2.5-11.2c0.6-1.6,1.5-3.1,2.4-4.6c2.1-3,4.6-5.7,6-9.2c1.7-2.9,3.4-5.7,4.6-8.9c1.4-2.3,2.5-4.8,4.6-6.5
				c3.9-3.9,6.2-8.7,7.8-13.9c0.2-0.6,0.6-1.2,0.9-1.7c1.5-1.9,3.9-3.2,3.8-6.1c0.9-4,4.6-6.4,5.6-10.4c1.3-3.6,3.5-6.6,5.4-9.7
				c1.2-1.9,2.8-3.6,3.8-5.7c0.3-2,4.2-3.1,1.3-5.8c-6.8,0.1-13.5,1.3-20.1,2.5c-7,1.1-12,6.8-18.7,8.4c-5.2,1.3-10,0.3-14-3.3
				c-3.2-3.8-3.8-7.7-0.3-11.7c7.6-5.6,17-6.9,25.3-10.9c6.9-1.2,13.7-3.4,20.7-4c1.8,0,3.4,0.6,5.1,1.2c1.1-0.2,2.2-0.4,3.2-0.6
				c3.6-3.7,9.1-2.5,13.1-5.1c2.4-1.3,3-4,4.7-5.9c0.9,0,1.5-0.4,1.4-1.4c-0.1-0.8,0.1-1.4,0.7-1.9c1.2-0.9,2.6-1.3,4-1.5
				c5.7-0.8,11,0.2,15.8,3.5c3.4,3.4,3.1,7.2,1,11c-1.6,2.9-3.5,5.6-5.3,8.4c-0.9,1.4-2.1,2.7-3,4.1c-1.5,2.2-2.8,4.4-4.3,6.6
				c-1.6,2.2-2.8,4.5-4.3,6.7c-3.8,5.7-6.5,12.1-10.4,17.8c-2.4,3.3-4.4,6.8-6.6,10.2c-1.6,2.2-3.1,4.3-4.3,6.7
				c-3.3,4.6-6.2,9.5-8.2,14.8c-0.2,0.6-0.5,1.2-0.8,1.8c-1.5,4.2-3.6,8.4-1.5,13c4.7,2.7,10,2.4,15,3.7c2.5,0.8,4.8-0.3,7.2-0.8
				c3.2-0.6,6.4,1.1,9.7,0.1c6.2-0.4,12.3-1.4,18.5-1.4c1.1-0.2,2.3-0.4,3.4-0.4c4.4,0.2,8.4,1.9,12.5,3.2c3.2,2.3,7.3,4.1,4.9,9.3
				C577.2,280.6,576.6,281.9,576.1,283.2z"/>
			<path fill="#FBC337" d="M333.1,209.2c2.5-2.5,5-5.1,7.5-7.6c0.8-2.3,3-2.7,4.8-3.6c2.7,0,5.3-0.1,7.7-1.4
				c7.7-0.1,14.9,2.5,22.4,3.6c0.7,0.1,1.4,0.3,2.2,0.5c3.4,1.8,7.5,1.7,10.7,4.1c0.6,0.4,1.1,0.9,1.6,1.4c1.5,2.1,2.2,4.5,2.3,7
				c0,0.8-0.1,1.5-0.2,2.2c-1.2,4.4-3.9,7.4-8.1,9.2c-5.1,1.7-10,0.1-14.9-1.2c-3.5-1.9-7.1-3.1-11.1-2.5c-2.7,0.2-5.4,0.2-7.5,2.2
				c-5.9,7.1-3.3,15.9-4.5,23.9c-0.8,5-0.6,10.4,1.2,15.4c0.7,2.9,1.7,5.7,3.2,8.2c2.2,2.9,5.1,4.9,7.9,7.1c2.1,1.6,4.5,2.2,7.1,1.6
				c0.6-0.2,1.2-0.3,1.9-0.4c4.7-1.4,8.8-4,12.7-6.8c3.5-1.6,6.7-3.6,10.4-4.7c4.4-0.9,8.4-0.4,11.6,3.2c1,1.3,1.5,2.7,1.7,4.3
				c-0.1,3.5-0.7,6.8-2.8,9.7c-0.9,1.5-2.1,2.8-3.4,4c-3.9,2.2-7.5,5-11.4,7.3c-2.2,1.3-4.4,2.8-6.8,3.8c-2.4,1.2-5.1,1.6-7.7,2.3
				c-4.3,1.8-8.9,1.3-13.4,1.4c-6.9,1.8-11.7-2.7-17.2-5.3c-0.6-0.2-1.3-0.6-1.9-0.9c-4.9-4.6-8-10.4-11-16.3
				c-0.9-2.1-1.6-4.2-1.6-6.4c-0.5-2-0.9-3.9-1.4-5.9c2.7-4.5-0.1-9.3,0.8-13.9c0.1-0.4-1.5,0.5-1.9-0.5
				C321.7,237.9,324.3,222.9,333.1,209.2z"/>
			<path fill="#FBC337" d="M424.8,141.9c0.9,0.1,1.7,0.3,2.6,0.4c4.3-0.7,8,0.7,11.3,3.4c1.8,0.6,1.1,2.6,2,3.7
				c1.4,2.4,1.7,5.2,2.7,7.7c0.4,0.6,0.8,1.2,1.1,1.7c0,0.5,0.1,1,0.1,1.5c0.6,1.2,1.1,2.5,1.1,3.9c0.3,1,0.3,2.1,0.4,3.1
				c0,2.2-0.4,4.3-1.1,6.3c-2.5,6.3-5.1,12.6-9.4,18c-0.7,0.8-1.5,1.5-2.3,2.2c-1.4,1-2.9,2-4.5,2.8c-2.7,1.2-5.5,1.6-8.4,1.6
				c-4.9-0.5-9.1-2.5-12.9-5.4c-1.7-1.8-2.9-4-4.7-5.8c-0.4-0.6-0.8-1.2-1-1.9c-0.2-0.7-0.3-1.4-0.4-2.2c-0.1-1.9-0.8-3.7-1.4-5.5
				c-5-15.7-1.3-25.4,13-34.3c1.8-0.7,3.6-0.3,5.4-0.1C420.5,141.9,423,143.9,424.8,141.9z"/>
			<path fill="#FBC337" d="M643,136c1.5-0.1,1.8-1.2,2.1-2.3c2.2-1.6,4.4-3.1,7-4.1c2.5-0.4,4.7-2.1,7.4-1.3c4,0.1,6.7,3.2,10.1,4.5
				c2.7,3.4,1.6,6.4-0.7,9.4c-1.8,2.4-3,5.2-5,7.5c-0.8,1.8-1.7,3.6-2.7,5.2c-0.5,0.8-1,1.6-1.6,2.4c-0.3,0.5-0.7,1-1,1.5
				c-1.7,2.6-3.3,5.2-5.4,7.5c-1.3,1.4-1.7,3.2-2.7,4.8c-1.8,2.6-3.5,5.3-4.9,8.1c-0.3,0.9-0.7,1.8-1.1,2.7
				c-2.8,4.1-6.3,7.6-8.4,12.2c-1,1-1.8,2-2.6,3.1c-1,0.9-2.2,1.6-3.6,2c-6.5,1.6-9.8-0.1-11.4-6.2c-0.6-2.2-0.8-4.6-1.1-6.9
				c0-2.9,1.4-5.4,2.8-7.8c1.5-2.2,3.2-4.3,4-6.8c0.8-1.6,2-3,2.9-4.6c1.9-3.2,0.5-4.6-2.8-4.7c-1.5,0.2-3.1,0.3-4.6,0.4
				c-3.4,0.5-6.8,0.8-10.1,1.4c-1.2,0.3-2.3,0.5-3.4,1c-1.7,0.6-3.4,1.3-4.9,2.2c-3.3,2-6.8,3.8-10.1,5.7
				c-5.2,1.2-10.1,0.8-14.7-2.1c-2.4-2.5-4.4-5.1-3.8-8.9c4.3-8,12.8-9,20-12c1.2-0.4,2.5-0.7,3.8-1c2.1-0.5,4.2-1.1,6.3-1.8
				c1.5-0.5,3.1-0.9,4.7-0.9c4.5-1,9.2-1.3,13.6-2.7c4,0.1,7.8-1.1,11.5-2.2C636.9,141.3,639.8,138.4,643,136z"/>
			<path fill="#FBC337" d="M627.5,201.9c0,0.3,0.1,0.7,0.2,1c0.5,1.9,0.7,3.7-0.1,5.5c-1.3,2.2-2.2,4.6-3.5,6.8
				c-1,2.9-2.6,5.5-3.3,8.6c-2.1,10.2-2.2,10.2,8.3,12.2c1.8,0.2,3.4,0.8,5.2,1c3.1,0.3,6.3-0.7,9.3,1c4.1,1.2,8,0.6,11.9-0.7
				c3.2-0.7,6.3-1.8,9.5-2.6c6.3,0.3,12.7-2.1,18.9,0.9c1,0.6,1.7,1.4,2.2,2.4c0.2,0.7,0.3,1.4,0.3,2.1c-1.3,3-1.6,6.2-0.7,9.4
				c-4,5.4-8.4,2.9-13,0.5c1.3,1.5,1.2,2.7,0.3,4c-0.7,0.3-1.3,0.2-1.8-0.3c-2.4,0-4.9,0-7.3,0c-8.8,0.2-17.6,0.4-26.4,0.7
				c-4.6,0.3-8.9-1.5-13.3-2c-3.3-0.6-6.6-1.3-9.9-1.9c-2.9-0.9-4.3,1-5.5,3.1c-0.7,1.2-1.9,1.9-3,2.7c-1.9,1.7-3.8,3.3-6.2,4.3
				c-10,1.2-14-0.8-17-8.4c0.1-0.4,0.1-0.8,0-1.3c-3.7-6.1,1-10.1,3.8-14.5c0.9-2,2.3-3.6,3-5.6c6.5-11.6,12.5-23.4,18.3-35.4
				c0.3-0.6,0.6-1.2,1-1.8c1.9-1.8,4-3.5,5.3-5.8c1.2-1.3,2.5-2.3,4.4-1.7c0.3,1.5,1.3,2.6,1.4,4.4c0.4,6.3,3.8,8.5,9.8,6.8
				C631,199.9,628.5,200.5,627.5,201.9z"/>
			<path fill="#FBC337" d="M447.1,304.8c-2.4,0.2-4.9,0.4-7.3,0.6c-2.9,0.4-4.5-1.5-6.1-3.4c-1.6-2.7-2.3-5.8-3.3-8.7
				c-2.5-8.5-3.9-17.2-5.2-25.9c-0.4-1.9-1-3.8-1.4-5.7c-0.1-0.6-0.2-1.3-0.2-1.9c0.3-2.9-0.8-5.6-1.2-8.4c-0.3-2.5-0.5-5-1.8-7.2
				c-0.3-0.6-0.5-1.2-0.7-1.8c-0.7-4.8-1.2-9.7-3.3-14.3c-1.2-2.1-3.7-3.7-2.9-6.6c-1-11.6,2.1-13.4,16.6-10
				c6.2,1.6,8.8,6.4,10.7,11.8c1.5,6.1,3.3,12.2,5.1,18.3c0.5,2.2,1.2,4.4,1.8,6.6c0.8,3.5,1.2,7.1,2.2,10.5
				c0.3,1.6,0.5,3.2,0.9,4.8c0.8,4.9,1.7,9.7,2.9,14.5c0,2.3,0.6,4.5,1.3,6.7c0.3,1.4,0,2.6-0.4,3.9c-0.2,2.6,0.1,5.3,0,7.9
				c-0.8,1.2-1.6,2.5-2.4,3.7C450.8,301.9,448.9,303.3,447.1,304.8z"/>
		</g>
	</g>
	<polygon fill="#DC8B27" points="37.3,264 43.5,327.4 104.4,321.2 104.4,265.3 	"/>
	<polygon fill="#DC8B27" points="133.3,196.9 135.4,255.3 176.4,255.3 171.5,193.2 	"/>
	<polygon fill="#DC8B27" points="193.5,230.2 189.8,263.7 226.4,265 225.8,232.6 	"/>
	<polygon fill="#DC8B27" points="685.9,291.4 684.6,324.9 734.3,327.4 738,290.1 	"/>
	<polygon fill="#1F3F4D" points="342.9,685.4 438.9,681.5 438.9,697 342,695.1 	"/>
	<circle fill="#1F3F4D" cx="425.2" cy="665" r="7.1"/>
	<polygon fill="#1F3F4D" points="473.1,487 474,538.3 508.2,540.5 507.2,489.2 	"/>
	<polygon fill="#D5E4E3" points="481.5,497.3 482.2,529.4 500.6,530.2 499.9,498.1 	"/>
	<polygon fill="#1F3F4D" points="520.9,488.3 521.8,539.5 556,541.7 555.1,490.5 	"/>
	<polygon fill="#D5E4E3" points="529.3,498.5 530,530.7 548.5,531.5 547.7,499.3 	"/>
	<polygon fill="#1F3F4D" points="664.7,486.4 663.8,537.7 629.6,539.9 630.6,488.6 	"/>
	<polygon fill="#D5E4E3" points="656.3,496.7 655.6,528.8 637.2,529.6 637.9,497.5 	"/>
	<polygon fill="#1F3F4D" points="616.9,487.7 616,538.9 581.8,541.1 582.7,489.8 	"/>
	<polygon fill="#D5E4E3" points="608.5,497.9 607.8,530.1 589.3,530.8 590.1,498.7 	"/>
	<polygon fill="#1F3F4D" points="209,488.3 210,539.5 244.2,541.7 243.2,490.5 	"/>
	<polygon fill="#D5E4E3" points="217.4,498.5 218.2,530.7 236.6,531.5 235.9,499.3 	"/>
	<polygon fill="#1F3F4D" points="256.9,489.5 257.8,540.8 292,543 291.1,491.7 	"/>
	<polygon fill="#D5E4E3" points="265.3,499.8 266,531.9 284.5,532.7 283.7,500.6 	"/>
	<polygon fill="#1F3F4D" points="169,488.9 168,540.2 133.9,542.3 134.8,491.1 	"/>
	<polygon fill="#D5E4E3" points="160.6,499.2 159.9,531.3 141.4,532.1 142.2,499.9 	"/>
	<polygon fill="#1F3F4D" points="121.1,490.2 120.2,541.4 86,543.6 87,492.3 	"/>
	<polygon fill="#D5E4E3" points="112.8,500.4 112,532.5 93.6,533.3 94.3,501.2 	"/>
</g>
</svg>
