<!-- Generator: Adobe Illustrator 18.1.1, SVG Export Plug-In  -->
<svg version="1.0"
	 xmlns="http://www.w3.org/2000/svg" xmlns:xlink="http://www.w3.org/1999/xlink" xmlns:a="http://ns.adobe.com/AdobeSVGViewerExtensions/3.0/"
	 x="0px" y="0px" width="252.2px" height="220.1px" viewBox="0 0 252.2 220.1" enable-background="new 0 0 252.2 220.1"
	 xml:space="preserve">
<defs>
</defs>
<polygon fill="#7D4E3C" points="9.6,100.2 2.7,220.1 234.3,167.9 245.1,72.8 "/>
<path fill="#99553A" d="M6.2,82.4L131.2,0c0,0,115,52.7,121,53.8L6.2,82.4z"/>
<path fill="#A56343" d="M6.2,82.4L0,188.8c-0.4,7.4,8,11.9,13.9,7.4l15.6-11.9c6.2-4.7,13.7-7.2,21.5-7l13.5,0.3
	c5.9,0.1,11.6-2,15.9-6l13.6-12.5c5.6-5.1,14.2-4.7,19.3,0.9l0,0c9.5,10.5,25,12.9,37.3,5.8l23.8-13.9c5.9-3.4,13-3.9,19.2-1.2
	l9,3.8c8.6,3.7,18.6,0.7,23.9-7.1l15.5-23l10.2-70.8L6.2,82.4z"/>
</svg>
