<!-- Generator: Adobe Illustrator 18.1.1, SVG Export Plug-In  -->
<svg version="1.0"
	 xmlns="http://www.w3.org/2000/svg" xmlns:xlink="http://www.w3.org/1999/xlink" xmlns:a="http://ns.adobe.com/AdobeSVGViewerExtensions/3.0/"
	 x="0px" y="0px" width="116px" height="116px" viewBox="0 0 116 116" enable-background="new 0 0 116 116" xml:space="preserve">
<defs>
</defs>
<g>
	<circle fill="#F6C415" cx="58" cy="58" r="58"/>
	<path fill="#FFFFFF" d="M87.5,79L70.8,62.2c-2.4-2.4-2.4-6.2,0-8.5l16.8-16.8c2.4-2.4,2.4-6.2,0-8.5l0,0c-2.4-2.4-6.2-2.4-8.5,0
		L62.2,45.2c-2.4,2.4-6.2,2.4-8.5,0L36.9,28.4c-2.4-2.4-6.2-2.4-8.5,0l0,0c-2.4,2.4-2.4,6.2,0,8.5l16.8,16.8c2.4,2.4,2.4,6.2,0,8.5
		L28.4,79c-2.4,2.4-2.4,6.2,0,8.5l0,0c2.4,2.4,6.2,2.4,8.5,0l16.8-16.8c2.4-2.4,6.2-2.4,8.5,0L79,87.5c2.4,2.4,6.2,2.4,8.5,0l0,0
		C89.9,85.2,89.9,81.4,87.5,79z"/>
</g>
</svg>
