<!-- Generator: Adobe Illustrator 18.1.1, SVG Export Plug-In  -->
<svg version="1.0"
	 xmlns="http://www.w3.org/2000/svg" xmlns:xlink="http://www.w3.org/1999/xlink" xmlns:a="http://ns.adobe.com/AdobeSVGViewerExtensions/3.0/"
	 x="0px" y="0px" width="282.2px" height="116.1px" viewBox="0 0 282.2 116.1" enable-background="new 0 0 282.2 116.1"
	 xml:space="preserve">
<defs>
</defs>
<g>
	<path fill="#FDE5A2" d="M254.1,114H28c-15.5,0-28-12.5-28-28v0c0-15.5,12.5-28,28-28h226.1c15.5,0,28,12.5,28,28v0
		C282.2,101.4,269.6,114,254.1,114z"/>
	<path fill="#FDE5A2" d="M81.5,20.6"/>
	<g>
		<path fill="#F3BE39" d="M126.7,116.1c-5.7-17.2-3-41.3-0.9-53.9c-6.9-1.8-42.1-12-48.7-31.4c-1.7-5-2.2-12.9,4.8-21.7
			c7-8.8,14.2-9.6,19-8.8c13.4,2.4,24,21.4,30,35.4c7-10.6,17.6-19.8,30.1-15.6c6.7,2.2,8.1,6.8,8.4,9.3c0.6,6.4-4.5,12.9-17,21.7
			c-5,3.5-10,6.6-12.9,8.3c-1.7,8.6-6.2,35.6-0.5,52.6L126.7,116.1z M98,13c-1.1,0-3,0.5-5.9,4.1c-3.7,4.7-3.3,7.7-2.7,9.5
			c2.8,8.4,19,16.3,32.2,20.7c-5.7-14.8-15.5-33-23-34.3C98.5,13,98.3,13,98,13z M155,32c-4.6,0-9.2,5-12.8,10.3
			C148,38.4,152.7,34.7,155,32C155,32,155,32,155,32z"/>
	</g>
</g>
</svg>
