<!-- Generator: Adobe Illustrator 18.1.1, SVG Export Plug-In  -->
<svg version="1.0"
	 xmlns="http://www.w3.org/2000/svg" xmlns:xlink="http://www.w3.org/1999/xlink" xmlns:a="http://ns.adobe.com/AdobeSVGViewerExtensions/3.0/"
	 x="0px" y="0px" width="875.9px" height="875.9px" viewBox="0 0 875.9 875.9" enable-background="new 0 0 875.9 875.9"
	 xml:space="preserve">
<defs>
</defs>
<circle fill="#F7A61B" cx="438" cy="438" r="438"/>
<g>
	
		<path fill="#F7A61B" stroke="#FFFFFF" stroke-width="23" stroke-linecap="round" stroke-linejoin="round" stroke-miterlimit="10" d="
		M614.3,396.1c0,0,136.2,36.4,90.2,162.9c-46,126.6-182.1,48.6-182.1,48.6l16.1-48.9c0,0,86.7,36.8,116.1-11.9s-5.6-106-58.3-123.3
		L614.3,396.1z"/>
	
		<path fill="#F7A61B" stroke="#FFFFFF" stroke-width="23" stroke-linecap="round" stroke-linejoin="round" stroke-miterlimit="10" d="
		M276.8,222.8l-87.1,377.8c0,0,92,115.1,331.5,115l139.7-410.4C660.8,305.2,448,278.9,276.8,222.8z"/>
	
		<line fill="#F7A61B" stroke="#FFFFFF" stroke-width="23" stroke-linecap="round" stroke-linejoin="round" stroke-miterlimit="10" x1="562.4" y1="303.9" x2="507.7" y2="470.4"/>
	
		<polygon fill="#F7A61B" stroke="#FFFFFF" stroke-width="23" stroke-linecap="round" stroke-linejoin="round" stroke-miterlimit="10" points="
		446.8,453.5 548.7,480.7 506.9,582.6 423.2,567.7 	"/>
</g>
</svg>
