<!-- Generator: Adobe Illustrator 18.1.1, SVG Export Plug-In  -->
<svg version="1.0"
	 xmlns="http://www.w3.org/2000/svg" xmlns:xlink="http://www.w3.org/1999/xlink" xmlns:a="http://ns.adobe.com/AdobeSVGViewerExtensions/3.0/"
	 x="0px" y="0px" width="875.9px" height="875.9px" viewBox="0 0 875.9 875.9" enable-background="new 0 0 875.9 875.9"
	 xml:space="preserve">
<defs>
</defs>
<circle fill="#F7A61B" cx="438" cy="438" r="438"/>
<path fill="#F7A61B" stroke="#FFFFFF" stroke-width="23" stroke-linecap="round" stroke-linejoin="round" stroke-miterlimit="10" d="
	M563.8,211.8c5.3-25.9,15.2-87-8.5-84.6c-24.2,2.4-52.2,39.9-62.2,54.4c-104.6,32.4-360.8,119.7-214.7,463.2
	c-7.2,27-11.5,56,6.9,67.5c15,9.4,33.9,6.5,52.7-19.4C443.6,664,738.9,550.6,563.8,211.8z"/>
<path fill="#F7A61B" stroke="#FFFFFF" stroke-width="23" stroke-linecap="round" stroke-linejoin="round" stroke-miterlimit="10" d="
	M319.2,362.3c0,0,40.2-101.8,145.2-119.2"/>
<path fill="#F7A61B" stroke="#FFFFFF" stroke-width="23" stroke-linecap="round" stroke-linejoin="round" stroke-miterlimit="10" d="
	M363.3,649.2c0,0,84-24,117-66"/>
</svg>
