<!-- Generator: Adobe Illustrator 18.1.1, SVG Export Plug-In  -->
<svg version="1.0"
	 xmlns="http://www.w3.org/2000/svg" xmlns:xlink="http://www.w3.org/1999/xlink" xmlns:a="http://ns.adobe.com/AdobeSVGViewerExtensions/3.0/"
	 x="0px" y="0px" width="312.3px" height="462.5px" viewBox="0 0 312.3 462.5" enable-background="new 0 0 312.3 462.5"
	 xml:space="preserve">
<defs>
</defs>
<g>
	<g>
		<path fill="#F7A61B" d="M290.5,147.9c2,25.7-3.2,50.2-15.6,73.7c-12.4,23.5-30.9,44-55.3,61.6c-5.6,4-10.4,10.4-14.4,19.2
			c-4,8.8-6,17.2-6,25.3H97.4c0-12,1.5-24.2,4.5-36.4c3-12.2,7.2-24,12.6-35.2c5.4-11.2,12-21.5,19.8-31
			c7.8-9.4,16.3-17.5,25.6-24.4c20.4-14.8,30.1-30.3,28.9-46.3c-0.4-6.4-2.7-12.4-6.9-18c-4.2-5.6-9.7-10.2-16.5-13.8
			c-8.4-4.8-16.2-6.4-23.5-4.8c-7.2,1.6-12.6,3.6-16.2,6c-7.6,4.4-13.5,10.3-17.7,17.7c-4.2,7.4-6.3,15.7-6.3,25v30.7H0v-30.7
			c0-27.3,6.5-52.3,19.5-75.2c13-22.9,31-41.3,53.8-55.3c22-12.8,45.4-19.5,70.1-20.1c24.7-0.6,48.2,5.1,70.7,17.1
			c22.4,12,40.4,28.2,53.8,48.4C281.4,101.7,288.9,123.9,290.5,147.9z M148.5,359.6c14,0,26.1,5,36.1,15c10,10,15,22.3,15,36.7
			c0,14-5,26.1-15,36.1c-10,10-22.1,15-36.1,15c-14,0-26.1-5-36.1-15c-10-10-15-22-15-36.1c0-14.4,5-26.7,15-36.7
			C122.5,364.7,134.5,359.6,148.5,359.6z"/>
	</g>
	<path fill="#FFF8CC" d="M311.9,124c1.9,24.1-3,47.2-14.7,69.2c-11.7,22-29,41.3-52,57.9c-5.3,3.8-9.8,9.8-13.6,18.1
		c-3.8,8.3-5.6,16.2-5.6,23.7h-95.4c0-11.3,1.4-22.7,4.2-34.2c2.8-11.5,6.8-22.5,11.9-33c5.1-10.5,11.3-20.2,18.6-29.1
		c7.3-8.8,15.3-16.5,24-22.9c19.2-13.9,28.2-28.4,27.1-43.5c-0.4-6-2.5-11.7-6.5-16.9c-4-5.3-9.1-9.6-15.5-13
		c-7.9-4.5-15.2-6-22-4.5c-6.8,1.5-11.9,3.4-15.2,5.6c-7.2,4.1-12.7,9.7-16.7,16.7c-4,7-5.9,14.8-5.9,23.4v28.8H39.1v-28.8
		c0-25.6,6.1-49.1,18.4-70.6C69.7,49.5,86.6,32.1,108,19c20.7-12,42.6-18.4,65.8-18.9s45.3,4.8,66.4,16.1
		c21.1,11.3,37.9,26.5,50.5,45.5C303.3,80.6,310.4,101.4,311.9,124z M178.6,322.8c13.2,0,24.5,4.7,33.9,14.1
		c9.4,9.4,14.1,20.9,14.1,34.4c0,13.2-4.7,24.5-14.1,33.9c-9.4,9.4-20.7,14.1-33.9,14.1c-13.2,0-24.5-4.7-33.9-14.1
		c-9.4-9.4-14.1-20.7-14.1-33.9c0-13.6,4.7-25,14.1-34.4C154.1,327.5,165.4,322.8,178.6,322.8z"/>
</g>
</svg>
