<!-- Generator: Adobe Illustrator 18.1.1, SVG Export Plug-In  -->
<svg version="1.0"
	 xmlns="http://www.w3.org/2000/svg" xmlns:xlink="http://www.w3.org/1999/xlink" xmlns:a="http://ns.adobe.com/AdobeSVGViewerExtensions/3.0/"
	 x="0px" y="0px" width="875.9px" height="875.9px" viewBox="0 0 875.9 875.9" enable-background="new 0 0 875.9 875.9"
	 xml:space="preserve">
<defs>
</defs>
<circle fill="#F7A61B" cx="438" cy="438" r="438"/>
<g>
	<path fill="none" stroke="#FFFFFF" stroke-width="23" stroke-linecap="round" stroke-linejoin="round" stroke-miterlimit="10" d="
		M492.3,134.8L147.2,561.5c0,0,320.2,168,323.7,157.3s210.1-459.4,210.1-459.4L492.3,134.8z"/>
	
		<polygon fill="#F7A61B" stroke="#FFFFFF" stroke-width="23" stroke-linecap="round" stroke-linejoin="round" stroke-miterlimit="10" points="
		496.1,184.1 453.3,242.8 517.4,282.9 552.2,218.8 	"/>
	
		<polygon fill="#F7A61B" stroke="#FFFFFF" stroke-width="23" stroke-linecap="round" stroke-linejoin="round" stroke-miterlimit="10" points="
		581.5,232.1 546.8,304.3 605.6,341.7 645.6,266.9 	"/>
	
		<polyline fill="#F7A61B" stroke="#FFFFFF" stroke-width="23" stroke-linecap="round" stroke-linejoin="round" stroke-miterlimit="10" points="
		394.5,306.9 426.6,266.9 506.7,315 482.7,371.1 	"/>
	
		<polyline fill="#F7A61B" stroke="#FFFFFF" stroke-width="23" stroke-linecap="round" stroke-linejoin="round" stroke-miterlimit="10" points="
		510.1,380.5 536.1,328.3 597.6,365.7 573.5,405.8 	"/>
	
		<path fill="#F7A61B" stroke="#FFFFFF" stroke-width="23" stroke-linecap="round" stroke-linejoin="round" stroke-miterlimit="10" d="
		M373.9,279c0,0,50.7,73,136.2,101.5c85.5,28.5,96.2,49.9,96.2,49.9l14.2,110.4l-78.3-92.6l-46.3,24.9l-29.5-42.5l-68.1,36.1
		l-14.7-85.5l-102.8,20l33.4-73.4l-74.8-56.1L373.9,279z"/>
</g>
</svg>
