<!-- Generator: Adobe Illustrator 18.1.1, SVG Export Plug-In  -->
<svg version="1.0"
	 xmlns="http://www.w3.org/2000/svg" xmlns:xlink="http://www.w3.org/1999/xlink" xmlns:a="http://ns.adobe.com/AdobeSVGViewerExtensions/3.0/"
	 x="0px" y="0px" width="875.9px" height="875.9px" viewBox="0 0 875.9 875.9" enable-background="new 0 0 875.9 875.9"
	 xml:space="preserve">
<defs>
</defs>
<circle fill="#F7A61B" cx="438" cy="438" r="438"/>
<g>
	
		<polyline fill="#F7A61B" stroke="#FFFFFF" stroke-width="23" stroke-linecap="round" stroke-linejoin="round" stroke-miterlimit="10" points="
		311.1,287.2 361.3,130.5 397.7,146.9 389.7,303.6 	"/>
	
		<path fill="#F7A61B" stroke="#FFFFFF" stroke-width="23" stroke-linecap="round" stroke-linejoin="round" stroke-miterlimit="10" d="
		M280.8,254.5l-76.1,347.6L538,718.9l144.2-340.3c0,0-133.7-21.9-185.2-64.9S416.7,210.7,280.8,254.5z"/>
	
		<polygon fill="#F7A61B" stroke="#FFFFFF" stroke-width="15" stroke-linecap="round" stroke-linejoin="round" stroke-miterlimit="10" points="
		289,393.6 250.6,554 289.3,565.4 323,403.3 	"/>
	
		<polygon fill="#F7A61B" stroke="#FFFFFF" stroke-width="15" stroke-linecap="round" stroke-linejoin="round" stroke-miterlimit="10" points="
		355.1,409.9 319.4,577.8 349.5,588.3 394.5,419.3 	"/>
	
		<polygon fill="#F7A61B" stroke="#FFFFFF" stroke-width="15" stroke-linecap="round" stroke-linejoin="round" stroke-miterlimit="10" points="
		490.7,459.9 431.3,619.5 460.2,623.1 524.7,469.6 	"/>
	
		<polygon fill="#F7A61B" stroke="#FFFFFF" stroke-width="15" stroke-linecap="round" stroke-linejoin="round" stroke-miterlimit="10" points="
		558.7,472.8 486.3,638.7 518.9,652.4 590.2,479.5 	"/>
	
		<polygon fill="#F7A61B" stroke="#FFFFFF" stroke-width="17" stroke-linecap="round" stroke-linejoin="round" stroke-miterlimit="10" points="
		321,612.7 302.5,665.5 422.2,705 442.2,647.7 	"/>
	
		<polygon fill="#F7A61B" stroke="#FFFFFF" stroke-width="17" stroke-linecap="round" stroke-linejoin="round" stroke-miterlimit="10" points="
		283.9,626.9 271.3,676.8 452.8,730.5 465.9,693.1 	"/>
</g>
</svg>
