<!-- Generator: Adobe Illustrator 18.1.1, SVG Export Plug-In  -->
<svg version="1.0"
	 xmlns="http://www.w3.org/2000/svg" xmlns:xlink="http://www.w3.org/1999/xlink" xmlns:a="http://ns.adobe.com/AdobeSVGViewerExtensions/3.0/"
	 x="0px" y="0px" width="875.9px" height="875.9px" viewBox="0 0 875.9 875.9" enable-background="new 0 0 875.9 875.9"
	 xml:space="preserve">
<defs>
</defs>
<circle fill="#F7A61B" cx="438" cy="438" r="438"/>
<path fill="#F7A61B" stroke="#FFFFFF" stroke-width="23" stroke-linecap="round" stroke-linejoin="round" stroke-miterlimit="10" d="
	M483.8,544.3c43.5-30,79.7-97.3,64.2-165.1c-4.8-21-8.4-29.6-8.2-50.4c0.3-46.4,25.8-87.7,25.8-87.7l-71-28c0,0-9.6,47.7-41,81.7
	c-14.1,15.3-22.6,19.1-40.4,31.2c-57.5,39-77,112.9-65.7,164.5s-136.9,134.9-114,179.9c27.7,54.4,148.4,109.3,210.9,83.1
	C490.9,734.1,440.3,574.3,483.8,544.3z"/>
<path fill="#F7A61B" stroke="#FFFFFF" stroke-width="23" stroke-linecap="round" stroke-linejoin="round" stroke-miterlimit="10" d="
	M347.3,427c0,0,27-5.7,47.4,13.2s95.3,56.6,138.5,41"/>
<ellipse transform="matrix(0.9303 0.3668 -0.3668 0.9303 238.6258 -84.7073)" fill="#F7A61B" stroke="#FFFFFF" stroke-width="13" stroke-linecap="round" stroke-linejoin="round" stroke-miterlimit="10" cx="342.2" cy="585.5" rx="15.8" ry="13.9"/>
<ellipse transform="matrix(0.9303 0.3668 -0.3668 0.9303 255.4125 -78.5533)" fill="#F7A61B" stroke="#FFFFFF" stroke-width="13" stroke-linecap="round" stroke-linejoin="round" stroke-miterlimit="10" cx="334.4" cy="632.7" rx="24.5" ry="21.5"/>
<ellipse transform="matrix(0.9303 0.3668 -0.3668 0.9303 201.5616 -108.9197)" fill="#F7A61B" stroke="#FFFFFF" stroke-width="13" stroke-linecap="round" stroke-linejoin="round" stroke-miterlimit="10" cx="387.4" cy="475.9" rx="13" ry="11.4"/>
<ellipse transform="matrix(0.9303 0.3668 -0.3668 0.9303 259.6936 -110.7259)" fill="#F7A61B" stroke="#FFFFFF" stroke-width="13" stroke-linecap="round" stroke-linejoin="round" stroke-miterlimit="10" cx="421.2" cy="627.9" rx="15.8" ry="13.9"/>
<polygon fill="#F7A61B" stroke="#FFFFFF" stroke-width="13" stroke-linecap="round" stroke-linejoin="round" stroke-miterlimit="10" points="
	428.6,95.6 431.9,118.6 540.5,141.5 384.6,578.6 409,584.7 568.3,118 "/>
</svg>
