<!-- Generator: Adobe Illustrator 18.1.1, SVG Export Plug-In  -->
<svg version="1.0"
	 xmlns="http://www.w3.org/2000/svg" xmlns:xlink="http://www.w3.org/1999/xlink" xmlns:a="http://ns.adobe.com/AdobeSVGViewerExtensions/3.0/"
	 x="0px" y="0px" width="875.9px" height="875.9px" viewBox="0 0 875.9 875.9" enable-background="new 0 0 875.9 875.9"
	 xml:space="preserve">
<defs>
</defs>
<circle fill="#F7A61B" cx="438" cy="438" r="438"/>
<g>
	
		<path fill="#F7A61B" stroke="#FFFFFF" stroke-width="23" stroke-linecap="round" stroke-linejoin="round" stroke-miterlimit="10" d="
		M162.7,446.6L245.9,644c0,0,174.3,46.3,380.6-119.3L606.4,474l82.6-5.4l22-22.8l-84.7-200.8L162.7,446.6z"/>
	
		<ellipse transform="matrix(0.9171 -0.3986 0.3986 0.9171 -105.1439 185.8887)" fill="#F7A61B" stroke="#FFFFFF" stroke-width="23" stroke-linecap="round" stroke-linejoin="round" stroke-miterlimit="10" cx="394.5" cy="345.8" rx="252.8" ry="63"/>
	
		<polygon fill="#F7A61B" stroke="#FFFFFF" stroke-width="23" stroke-linecap="round" stroke-linejoin="round" stroke-miterlimit="10" points="
		540.8,343.1 394.5,345.8 615.2,271.5 688.1,465.2 601.4,473.8 	"/>
	
		<line fill="#F7A61B" stroke="#FFFFFF" stroke-width="23" stroke-linecap="round" stroke-linejoin="round" stroke-miterlimit="10" x1="540.8" y1="343.1" x2="625.4" y2="523.2"/>
	
		<path fill="#F7A61B" stroke="#FFFFFF" stroke-width="23" stroke-linecap="round" stroke-linejoin="round" stroke-miterlimit="10" d="
		M564.3,380.8c0,0,0.7-20,20.6-9s42,1.4,54.2-31.4"/>
</g>
</svg>
