<!-- Generator: Adobe Illustrator 18.1.1, SVG Export Plug-In  -->
<svg version="1.1"
	 xmlns="http://www.w3.org/2000/svg" xmlns:xlink="http://www.w3.org/1999/xlink" xmlns:a="http://ns.adobe.com/AdobeSVGViewerExtensions/3.0/"
	 x="0px" y="0px" width="224.633px" height="224.837px" viewBox="0 0 224.633 224.837" enable-background="new 0 0 224.633 224.837"
	 xml:space="preserve">
<defs>
</defs>
<g>
	<defs>
		<polygon id="SVGID_1_" points="14.08,224.837 224.633,210.788 210.561,0 0,14.035 		"/>
	</defs>
	<clipPath id="SVGID_2_">
		<use xlink:href="#SVGID_1_"  overflow="visible"/>
	</clipPath>
	<path clip-path="url(#SVGID_2_)" fill="#F6A600" d="M96.759,7.586c-47.678,3.19-86.689,41.046-89.668,89.489
		c-0.477,7.916,0.003,15.671,1.395,23.143c4.164-37.653,32.213-68.854,69.652-77.214c12.689-8.458,27.75-13.818,44.099-14.902
		c20.659-1.386,40.163,4.25,56.091,14.84c-16.4-20.201-41.023-33.733-69.252-35.4C104.913,7.3,100.802,7.317,96.759,7.586"/>
	<path clip-path="url(#SVGID_2_)" fill="#F8C400" d="M178.327,42.941c14.482,17.841,22.538,40.854,21.048,65.487
		c-1.034,16.612-6.28,31.956-14.648,45.087c-5.767,20.739-18.957,38.601-36.746,50.42c42.527-9.498,72.967-48.484,69.992-92.903
		C216.062,82.379,200.684,57.802,178.327,42.941"/>
	<path clip-path="url(#SVGID_2_)" fill="#FBD19F" d="M122.236,28.101c-16.349,1.084-31.409,6.445-44.088,14.885
		c4.483-1.009,9.127-1.684,13.88-1.998c49.59-3.317,92.452,33.819,95.734,82.943c0.689,10.249-0.42,20.215-3.035,29.585
		c8.367-13.132,13.613-28.475,14.648-45.087c1.49-24.634-6.565-47.646-21.048-65.487C162.374,32.348,142.895,26.715,122.236,28.101"
		/>
	<path clip-path="url(#SVGID_2_)" fill="#FFF9D5" d="M8.485,120.218c-0.572,5.13-0.686,10.372-0.338,15.698
		c3.286,49.118,46.141,86.233,95.744,82.937c16.361-1.112,31.405-6.449,44.09-14.917c-4.489,1.023-9.133,1.698-13.867,2.008
		c-16.373,1.092-32.002-2.215-45.736-8.919C47.552,190.838,15.776,159.49,8.485,120.218"/>
	<path clip-path="url(#SVGID_2_)" fill="#FFF6AF" d="M78.148,42.986c-37.45,8.378-65.499,39.579-69.663,77.232
		c7.291,39.272,39.066,70.621,79.906,76.811c-27.854-13.577-47.814-41.111-50.018-74.017C36.169,90.116,52.326,60.155,78.148,42.986
		"/>
	<path clip-path="url(#SVGID_2_)" fill="#FFEFB9" d="M184.724,153.516c-16.07,25.228-43.678,42.324-75.018,44.426
		c-4.061,0.261-8.174,0.283-12.352,0.039c-3.021-0.18-6.019-0.497-8.963-0.952c13.721,6.701,29.35,10.008,45.723,8.916
		c4.734-0.31,9.378-0.985,13.867-2.008C165.77,192.117,178.96,174.255,184.724,153.516"/>
	<path clip-path="url(#SVGID_2_)" fill="#FFE6A3" d="M92.028,40.988c-4.753,0.314-9.396,0.989-13.891,2.016
		c-25.812,17.152-41.969,47.113-39.764,80.008c2.204,32.906,22.163,60.435,50.018,74.017c2.944,0.455,5.941,0.772,8.963,0.952
		c4.178,0.244,8.291,0.223,12.352-0.035c31.34-2.105,58.947-19.202,75.018-44.429c2.619-9.37,3.728-19.336,3.039-29.585
		C184.48,74.82,141.618,37.671,92.028,40.988"/>
	<path clip-path="url(#SVGID_2_)" fill="#F6A600" d="M119.78,189.588c31.404-2.094,57.145-27.067,59.114-59.008
		c0.304-5.223-0.014-10.328-0.933-15.247c-2.729,24.82-21.238,45.403-45.911,50.912c-8.398,5.578-18.31,9.105-29.099,9.821
		c-13.621,0.906-26.463-2.787-36.975-9.8c10.821,13.335,27.047,22.254,45.643,23.346
		C114.374,189.784,117.095,189.773,119.78,189.588"/>
	<path clip-path="url(#SVGID_2_)" fill="#F8C400" d="M65.978,166.266c-9.532-11.754-14.875-26.929-13.865-43.186
		c0.674-10.921,4.135-21.045,9.646-29.713C65.554,79.699,74.267,67.9,85.987,60.121c-28.06,6.263-48.109,31.973-46.141,61.265
		C41.091,140.277,51.247,156.489,65.978,166.266"/>
	<path clip-path="url(#SVGID_2_)" fill="#FBD19F" d="M102.952,176.066c10.804-0.71,20.7-4.244,29.099-9.821
		c-2.976,0.664-6.038,1.109-9.163,1.323c-32.699,2.188-60.965-22.319-63.125-54.691c-0.447-6.748,0.259-13.325,1.996-19.509
		c-5.512,8.668-8.973,18.792-9.646,29.713c-1.01,16.256,4.333,31.432,13.865,43.186C76.489,173.28,89.331,176.973,102.952,176.066"
		/>
	<path clip-path="url(#SVGID_2_)" fill="#FFF9D5" d="M177.962,115.333c0.376-3.39,0.445-6.842,0.227-10.36
		c-2.162-32.371-30.415-56.858-63.135-54.694c-10.779,0.734-20.7,4.271-29.066,9.842c2.958-0.665,6.014-1.117,9.137-1.323
		c10.812-0.721,21.109,1.463,30.154,5.86C152.204,68.754,173.178,89.437,177.962,115.333"/>
	<path clip-path="url(#SVGID_2_)" fill="#FFF6AF" d="M132.051,166.245c24.673-5.509,43.183-26.092,45.911-50.912
		c-4.784-25.896-25.758-46.579-52.684-50.675c18.365,8.984,31.532,27.111,32.971,48.817
		C159.689,135.183,149.052,154.929,132.051,166.245"/>
	<path clip-path="url(#SVGID_2_)" fill="#FFEFB9" d="M61.759,93.368c10.6-16.631,28.787-27.907,49.475-29.285
		c2.677-0.183,5.388-0.186,8.133-0.021c1.998,0.1,3.963,0.325,5.912,0.597c-9.045-4.396-19.343-6.581-30.154-5.86
		c-3.123,0.206-6.179,0.658-9.137,1.323C74.267,67.9,65.554,79.699,61.759,93.368"/>
	<path clip-path="url(#SVGID_2_)" fill="#FFE6A3" d="M122.888,167.568c3.125-0.213,6.187-0.659,9.163-1.323
		c17.019-11.323,27.638-31.062,26.198-52.77c-1.438-21.706-14.601-39.843-32.971-48.817c-1.949-0.272-3.914-0.497-5.912-0.597
		c-2.745-0.165-5.456-0.162-8.118,0.021c-20.702,1.378-38.89,12.653-49.489,29.285c-1.737,6.184-2.443,12.761-1.996,19.509
		C61.923,145.249,90.188,169.755,122.888,167.568"/>
</g>
</svg>