<!-- Generator: Adobe Illustrator 18.1.1, SVG Export Plug-In  -->
<svg version="1.0"
	 xmlns="http://www.w3.org/2000/svg" xmlns:xlink="http://www.w3.org/1999/xlink" xmlns:a="http://ns.adobe.com/AdobeSVGViewerExtensions/3.0/"
	 x="0px" y="0px" width="875.9px" height="875.9px" viewBox="0 0 875.9 875.9" enable-background="new 0 0 875.9 875.9"
	 xml:space="preserve">
<defs>
</defs>
<circle fill="#F7A61B" cx="438" cy="438" r="438"/>
<g>
	<path fill="none" stroke="#FFFFFF" stroke-width="23" stroke-linecap="round" stroke-linejoin="round" stroke-miterlimit="10" d="
		M442.6,248c-78.3-21.7-242.6-63.1-204.9,260.6S415.5,748.1,584,530.5C769.6,290.7,520.9,269.7,442.6,248z"/>
	
		<path fill="#F7A61B" stroke="#FFFFFF" stroke-width="23" stroke-linecap="round" stroke-linejoin="round" stroke-miterlimit="10" d="
		M486.8,229.5c0,0-67.5-73.1-196.7,8.4c0,0,75.9-5.6,120.8,5.6c0,0-84.3,28.1-106.8,75.9c0,0,70.3-45,112.4-22.5
		c0,0-11.2,42.2-14.1,87.1c0,0,28.1-73.1,70.3-75.9c0,0,73.1,70.3,73.1,109.6c0,0,11.2-64.6-11.2-115.2c0,0,89.9,39.3,89.9,64.6
		c0,0-16.9-112.4-129.3-140.5L486.8,229.5z"/>
	
		<ellipse fill="#F7A61B" stroke="#FFFFFF" stroke-width="15" stroke-linecap="round" stroke-linejoin="round" stroke-miterlimit="10" cx="281.7" cy="420.6" rx="12.6" ry="29.5"/>
	
		<circle fill="#F7A61B" stroke="#FFFFFF" stroke-width="15" stroke-linecap="round" stroke-linejoin="round" stroke-miterlimit="10" cx="526.2" cy="479.6" r="30.9"/>
	
		<circle fill="#F7A61B" stroke="#FFFFFF" stroke-width="15" stroke-linecap="round" stroke-linejoin="round" stroke-miterlimit="10" cx="409.5" cy="458.5" r="18.3"/>
	
		<circle fill="#F7A61B" stroke="#FFFFFF" stroke-width="15" stroke-linecap="round" stroke-linejoin="round" stroke-miterlimit="10" cx="311.2" cy="537.2" r="26.7"/>
	
		<ellipse fill="#F7A61B" stroke="#FFFFFF" stroke-width="15" stroke-linecap="round" stroke-linejoin="round" stroke-miterlimit="10" cx="460.1" cy="579.4" rx="21.1" ry="23.9"/>
	
		<circle fill="#F7A61B" stroke="#FFFFFF" stroke-width="15" stroke-linecap="round" stroke-linejoin="round" stroke-miterlimit="10" cx="326.6" cy="361.6" r="16.9"/>
	
		<ellipse transform="matrix(0.8322 -0.5545 0.5545 0.8322 -299.1788 330.8531)" fill="#F7A61B" stroke="#FFFFFF" stroke-width="15" stroke-linecap="round" stroke-linejoin="round" stroke-miterlimit="10" cx="397.1" cy="659.7" rx="29.5" ry="9.8"/>
	
		<path fill="#F7A61B" stroke="#FFFFFF" stroke-width="15" stroke-linecap="round" stroke-linejoin="round" stroke-miterlimit="10" d="
		M467.1,235.1c0,0,30.9-73.1,11.2-104c0,0,39.3,2.8,56.2,28.1c0,0-11.2,47.8-42.2,89.9"/>
</g>
</svg>
