<!-- Generator: Adobe Illustrator 18.1.1, SVG Export Plug-In  -->
<svg version="1.0"
	 xmlns="http://www.w3.org/2000/svg" xmlns:xlink="http://www.w3.org/1999/xlink" xmlns:a="http://ns.adobe.com/AdobeSVGViewerExtensions/3.0/"
	 x="0px" y="0px" width="339.7px" height="455.5px" viewBox="0 0 339.7 455.5" enable-background="new 0 0 339.7 455.5"
	 xml:space="preserve">
<defs>
</defs>
<path fill="#FFDC48" d="M314.7,424.5l-52.9-95c-2.2-4-7.3-5.5-11.3-3.2l-0.2,0.1l-31.7-56.9c53.8-40.3,70.8-115.2,37.2-175.5
	C219,28.2,135.9,4.6,70.1,41.3s-89.5,119.8-52.8,185.6c33.6,60.3,106.3,85.2,168.8,60.7l31.7,56.9l-0.8,0.4c-4,2.2-5.5,7.3-3.2,11.3
	l52.9,95c2.2,4,7.3,5.5,11.3,3.2l33.4-18.6C315.5,433.6,316.9,428.5,314.7,424.5z"/>
<g>
	<circle fill="#FFF8CC" cx="158.3" cy="135.1" r="120.5"/>
	
		<rect x="218.6" y="228.5" transform="matrix(0.8735 -0.4868 0.4868 0.8735 -103.4003 150.1043)" fill="#FDE5A2" width="37" height="91"/>
	<path fill="#F7A61B" d="M94.1,17.3C28.2,54,4.6,137.1,41.3,202.9s119.8,89.5,185.6,52.8s89.5-119.8,52.8-185.6
		S159.9-19.4,94.1,17.3z M208.2,222.1c-47.3,26.3-106.9,9.4-133.3-37.9S65.5,77.2,112.8,50.9s106.9-9.4,133.3,37.9
		S255.4,195.7,208.2,222.1z"/>
	<path fill="#F7A61B" d="M335.5,411.8l-33.4,18.6c-4,2.2-9.1,0.8-11.3-3.2l-52.9-95c-2.2-4-0.8-9.1,3.2-11.3l33.4-18.6
		c4-2.2,9.1-0.8,11.3,3.2l52.9,95C340.9,404.5,339.5,409.6,335.5,411.8z"/>
</g>
</svg>
