<!-- Generator: Adobe Illustrator 18.1.1, SVG Export Plug-In  -->
<svg version="1.0"
	 xmlns="http://www.w3.org/2000/svg" xmlns:xlink="http://www.w3.org/1999/xlink" xmlns:a="http://ns.adobe.com/AdobeSVGViewerExtensions/3.0/"
	 x="0px" y="0px" width="218.7px" height="133.2px" viewBox="0 0 218.7 133.2" enable-background="new 0 0 218.7 133.2"
	 xml:space="preserve">
<defs>
</defs>
<g>
	<polygon fill="#F7C515" points="79.1,127.8 0.5,122 0,10 157.7,0 218.7,24.4 210.4,120.7 	"/>
	<path fill="#F6A61C" d="M141.1,64.9c-0.2,12.6-8.6,22.7-18.6,22.5s-18.1-10.6-17.8-23.2c0.2-12.6,8.6-22.7,18.6-22.5
		S141.3,52.3,141.1,64.9z"/>
	<path fill="#F6A61C" d="M79.8,28.4c-0.1,5.5-8.3,9.8-18.4,9.6c-10.1-0.2-18.2-4.8-18.1-10.3c0.1-5.5,8.3-9.8,18.4-9.6
		S79.9,22.9,79.8,28.4z"/>
	<g>
		<path fill="#F6A61C" d="M7.2,9.5c2.6,3.8,9.1,6.6,16.9,6.7c9.7,0.2,17.6-3.8,18.3-8.9L7.2,9.5z"/>
	</g>
	<g>
		<path fill="#F6A61C" d="M103.2,21.4c11.9,0.2,21.6-4.9,21.8-11.4c0.1-2.9-1.8-5.6-4.9-7.7L83.6,4.7c-1.1,1.4-1.7,2.9-1.8,4.5
			C81.7,15.7,91.3,21.2,103.2,21.4z"/>
	</g>
	<path fill="#F6A61C" d="M184.5,17.7c-0.1,3.4-5.1,6-11.2,5.9c-6.1-0.1-11.1-2.9-11-6.3c0.1-3.4,5.1-6,11.2-5.9
		C179.6,11.6,184.5,14.4,184.5,17.7z"/>
	<path fill="#F6A61C" d="M54.9,89.2c1.6,12.4-1.5,23.4-6.9,24.6c-5.4,1.1-11.1-8-12.7-20.4c-1.6-12.4,1.5-23.4,6.9-24.6
		C47.6,67.6,53.3,76.8,54.9,89.2z"/>
	<path fill="#F6A61C" d="M21.5,50.3c1.2,9-1.1,17-5,17.8c-3.9,0.8-8-5.8-9.2-14.8c-1.2-9,1.1-17,5-17.8
		C16.2,34.7,20.3,41.3,21.5,50.3z"/>
	<path fill="#F6A61C" d="M21.5,92.1c0.8,6.3-0.7,11.8-3.5,12.4c-2.7,0.6-5.6-4-6.4-10.3c-0.8-6.3,0.7-11.8,3.5-12.4
		C17.9,81.2,20.7,85.8,21.5,92.1z"/>
	<path fill="#F6A61C" d="M161.4,89.2c-0.1,4.2-2.9,7.6-6.2,7.5c-3.4-0.1-6-3.5-5.9-7.7c0.1-4.2,2.9-7.6,6.2-7.5
		C158.8,81.5,161.5,85,161.4,89.2z"/>
	<path fill="#F6A61C" d="M208.4,81.4c-0.1,4.2-2.9,7.6-6.2,7.5c-3.4-0.1-6-3.5-5.9-7.7c0.1-4.2,2.9-7.6,6.2-7.5
		C205.9,73.7,208.5,77.2,208.4,81.4z"/>
	<path fill="#F6A61C" d="M200.4,55.2c-0.2,12.6-8.6,22.7-18.6,22.5S163.7,67,163.9,54.4c0.2-12.6,8.6-22.7,18.6-22.5
		C192.6,32.2,200.6,42.6,200.4,55.2z"/>
	<g>
		<path fill="#F6A61C" d="M100.3,114.1c0.2-12.6-7.8-23-17.8-23.2c-10.1-0.2-18.4,9.9-18.6,22.5c-0.1,8.4,3.3,15.7,8.7,19.8
			l25.1-7.7C99.2,122.1,100.2,118.2,100.3,114.1z"/>
	</g>
</g>
</svg>
