<?xml version="1.0" encoding="iso-8859-1"?>
<!-- Generator: Adobe Illustrator 18.1.1, SVG Export Plug-In . SVG Version: 6.00 Build 0)  -->
<svg version="1.1" xmlns="http://www.w3.org/2000/svg" xmlns:xlink="http://www.w3.org/1999/xlink" x="0px" y="0px"
	 viewBox="0 0 218.711 133.175" style="enable-background:new 0 0 218.711 133.175;" xml:space="preserve">
<g id="KEJU">
	<g>
		<polygon style="fill:#F7C515;" points="-4811.777,601.147 -4889.993,595.426 -4890.5,484.237 -4733.484,474.325 
			-4672.789,498.503 -4681.075,594.073 		"/>
		<path style="fill:#F6A61C;" d="M-4750.042,538.71c-0.22,12.503-8.528,22.482-18.555,22.288
			c-10.028-0.193-17.979-10.487-17.759-22.989c0.22-12.503,8.528-22.482,18.556-22.288
			C-4757.774,515.915-4749.822,526.208-4750.042,538.71z"/>
		<path style="fill:#F6A61C;" d="M-4811.104,502.484c-0.096,5.46-8.303,9.727-18.331,9.533s-18.08-4.774-17.983-10.234
			c0.096-5.458,8.303-9.724,18.331-9.531S-4811.008,497.026-4811.104,502.484z"/>
		<g>
			<path style="fill:#F6A61C;" d="M-4883.358,483.787c2.552,3.756,9.092,6.518,16.823,6.667c9.624,0.186,17.548-3.739,18.259-8.882
				L-4883.358,483.787z"/>
		</g>
		<g>
			<path style="fill:#F6A61C;" d="M-4787.786,495.568c11.852,0.229,21.551-4.814,21.664-11.268c0.051-2.862-1.8-5.515-4.902-7.605
				l-36.266,2.289c-1.099,1.369-1.721,2.886-1.75,4.488C-4809.153,489.926-4799.638,495.34-4787.786,495.568z"/>
		</g>
		<path style="fill:#F6A61C;" d="M-4706.865,491.917c-0.059,3.335-5.067,5.939-11.189,5.821c-6.122-0.118-11.036-2.913-10.977-6.248
			c0.059-3.331,5.068-5.935,11.189-5.816C-4711.72,485.791-4706.806,488.586-4706.865,491.917z"/>
		<path style="fill:#F6A61C;" d="M-4835.826,562.859c1.602,12.331-1.463,23.244-6.847,24.372s-11.047-7.954-12.647-20.283
			c-1.603-12.331,1.463-23.244,6.848-24.372C-4843.09,541.448-4837.427,550.529-4835.826,562.859z"/>
		<path style="fill:#F6A61C;" d="M-4869.085,524.237c1.161,8.932-1.06,16.836-4.959,17.654c-3.9,0.818-8.002-5.761-9.161-14.693
			c-1.161-8.932,1.06-16.836,4.959-17.654C-4874.349,508.726-4870.246,515.305-4869.085,524.237z"/>
		<path style="fill:#F6A61C;" d="M-4869.058,565.706c0.81,6.231-0.74,11.745-3.46,12.316c-2.721,0.571-5.583-4.019-6.391-10.25
			c-0.81-6.231,0.739-11.745,3.46-12.316C-4872.729,554.887-4869.869,559.474-4869.058,565.706z"/>
		<path style="fill:#F6A61C;" d="M-4729.852,562.827c-0.073,4.167-2.843,7.494-6.186,7.43c-3.342-0.065-5.993-3.496-5.919-7.663
			c0.073-4.167,2.843-7.494,6.185-7.43C-4732.43,555.228-4729.778,558.66-4729.852,562.827z"/>
		<path style="fill:#F6A61C;" d="M-4683.01,555.104c-0.073,4.167-2.843,7.494-6.185,7.43c-3.342-0.065-5.993-3.496-5.92-7.663
			c0.073-4.167,2.843-7.494,6.186-7.429C-4685.587,547.505-4682.937,550.937-4683.01,555.104z"/>
		<path style="fill:#F6A61C;" d="M-4691.058,529.064c-0.22,12.503-8.528,22.482-18.555,22.288
			c-10.028-0.194-17.979-10.487-17.759-22.989c0.22-12.503,8.528-22.482,18.556-22.288S-4690.837,516.562-4691.058,529.064z"/>
		<g>
			<path style="fill:#F6A61C;" d="M-4790.688,587.533c0.22-12.503-7.731-22.796-17.759-22.989
				c-10.028-0.193-18.336,9.786-18.556,22.288c-0.146,8.313,3.33,15.627,8.616,19.668l25.025-7.645
				C-4791.739,595.539-4790.761,591.683-4790.688,587.533z"/>
		</g>
	</g>
</g>
<g id="Layer_1">
</g>
</svg>
