<!-- Generator: Adobe Illustrator 18.1.1, SVG Export Plug-In  -->
<svg version="1.0"
	 xmlns="http://www.w3.org/2000/svg" xmlns:xlink="http://www.w3.org/1999/xlink" xmlns:a="http://ns.adobe.com/AdobeSVGViewerExtensions/3.0/"
	 x="0px" y="0px" width="2580.3px" height="738.4px" viewBox="0 0 2580.3 738.4" enable-background="new 0 0 2580.3 738.4"
	 xml:space="preserve">
<defs>
	
		<pattern  x="984.9" y="-352.6" width="46.5" height="46.5" patternUnits="userSpaceOnUse" id="Polka_dots_3" viewBox="0 -54.1 46.5 46.5" overflow="visible">
		<g>
			<polygon fill="none" points="0,-54.1 46.5,-54.1 46.5,-7.6 0,-7.6 			"/>
			<path fill="#227569" d="M33.3-5c0,2.8-2.2,5-5,5s-5-2.2-5-5s2.2-5,5-5S33.3-7.8,33.3-5z"/>
			<path fill="#227569" d="M10-5c0,2.8-2.2,5-5,5S0-2.2,0-5s2.2-5,5-5S10-7.8,10-5z"/>
			<path fill="#227569" d="M44.9-28.3c0,2.8-2.2,5-5,5c-2.8,0-5-2.2-5-5s2.2-5,5-5C42.6-33.3,44.9-31,44.9-28.3z"/>
			<path fill="#227569" d="M21.6-28.3c0,2.8-2.2,5-5,5s-5-2.2-5-5s2.2-5,5-5S21.6-31,21.6-28.3z"/>
			<path fill="#227569" d="M33.3-51.5c0,2.8-2.2,5-5,5s-5-2.2-5-5c0-2.8,2.2-5,5-5S33.3-54.3,33.3-51.5z"/>
			<path fill="#227569" d="M10-51.5c0,2.8-2.2,5-5,5s-5-2.2-5-5c0-2.8,2.2-5,5-5S10-54.3,10-51.5z"/>
		</g>
	</pattern>
</defs>
<path fill="#289983" d="M2576.9,211.4V93.2c0,0-186.7,105-336.7,102c-150-3-256.7-93-466.7-96c-373.5-5.3-1036.8,141-1233.5,96
	c-196.7-45-540.1-18-540.1-18v34.2v527h2580.3v-527H2576.9z"/>
<g>
	<path fill="none" stroke="#1F3F4D" stroke-width="14" stroke-miterlimit="10" d="M243.9,81.3c0,0-9.7,26.6-3,42.2
		s16.9,37.4,12.7,67"/>
	<path fill="none" stroke="#1F3F4D" stroke-width="8" stroke-miterlimit="10" d="M244.2,121.7c0,0,17.2-1.8,12.7-26.2"/>
	<path fill="none" stroke="#1F3F4D" stroke-width="8" stroke-miterlimit="10" d="M241.5,132c0,0-36.2-3.6-44.7-44.7"/>
	<path fill="#289983" d="M235.1,1.2c-32.7,4.8-27.8,10.5-68.8,14.5c-49,4.8-36.1,61.4-10.6,73.3c39.4,18.4,93.5,30.7,141.4,5.3
		C345.8,68.4,315-10.6,235.1,1.2z"/>
	<pattern  id="SVGID_1_" xlink:href="#Polka_dots_3" patternTransform="matrix(0.3571 0 0 0.3571 -3356.1599 -4269.9678)">
	</pattern>
	<path fill="url(#SVGID_1_)" d="M170.9,72.2c-27.3-9.9-33.2-32.9-25.5-49.4c-23,16.7-10.6,56.4,10.2,66.1
		c39.4,18.4,93.5,30.7,141.4,5.3c8.7-4.6,14.8-10.9,18.6-18C272.4,87.1,204.9,84.5,170.9,72.2z"/>
</g>
</svg>
