<?xml version="1.0" encoding="iso-8859-1"?>
<!-- Generator: Adobe Illustrator 18.1.1, SVG Export Plug-In . SVG Version: 6.00 Build 0)  -->
<svg version="1.1" xmlns="http://www.w3.org/2000/svg" xmlns:xlink="http://www.w3.org/1999/xlink" x="0px" y="0px"
	 viewBox="0 0 2580.258 727.409" style="enable-background:new 0 0 2580.258 727.409;" xml:space="preserve">
<pattern  x="1000" y="-352.591" width="46.5" height="46.5" patternUnits="userSpaceOnUse" id="Polka_dots_3" viewBox="0 -54.125 46.5 46.5" style="overflow:visible;">
	<g>
		<polygon style="fill:none;" points="0,-54.125 46.5,-54.125 46.5,-7.625 0,-7.625 		"/>
		<path style="fill:#227569;" d="M33.25-5c0,2.761-2.239,5-5,5s-5-2.239-5-5s2.239-5,5-5S33.25-7.761,33.25-5z"/>
		<path style="fill:#227569;" d="M10-5c0,2.761-2.239,5-5,5S0-2.238,0-5s2.239-5,5-5S10-7.761,10-5z"/>
		<path style="fill:#227569;" d="M44.875-28.25c0,2.761-2.239,5-5,5c-2.761,0-5-2.239-5-5s2.239-5,5-5
			C42.637-33.25,44.875-31.011,44.875-28.25z"/>
		<path style="fill:#227569;" d="M21.625-28.25c0,2.761-2.239,5-5,5s-5-2.239-5-5s2.239-5,5-5S21.625-31.011,21.625-28.25z"/>
		<path style="fill:#227569;" d="M33.25-51.5c0,2.761-2.239,5-5,5s-5-2.239-5-5c0-2.761,2.239-5,5-5S33.25-54.262,33.25-51.5z"/>
		<path style="fill:#227569;" d="M10-51.5c0,2.761-2.239,5-5,5s-5-2.239-5-5c0-2.761,2.239-5,5-5S10-54.262,10-51.5z"/>
	</g>
</pattern>
<g id="land_x5F_2">
	<path style="fill:#289983;" d="M2576.924,211.357V93.165c0,0-186.685,105.01-336.7,102.01c-150.015-3-256.693-93.009-466.714-96.01
		c-373.457-5.335-1036.77,141.014-1233.457,96.01C343.368,150.171,0,177.174,0,177.174v34.183v527h2580.258v-527H2576.924z"/>
	<g>
		<path style="fill:none;stroke:#1F3F4D;stroke-width:14;stroke-miterlimit:10;" d="M243.883,81.283c0,0-9.655,26.55-3.017,42.239
			s16.896,37.411,12.672,66.979"/>
		<path style="fill:none;stroke:#1F3F4D;stroke-width:8;stroke-miterlimit:10;" d="M244.184,121.712c0,0,17.197-1.81,12.672-26.248"
			/>
		<path style="fill:none;stroke:#1F3F4D;stroke-width:8;stroke-miterlimit:10;" d="M241.469,131.97c0,0-36.205-3.62-44.652-44.652"
			/>
		<path style="fill:#289983;" d="M235.111,1.188c-32.741,4.822-27.842,10.451-68.82,14.485
			c-49.049,4.828-36.054,61.401-10.646,73.304c39.353,18.436,93.535,30.726,141.443,5.267
			C345.812,68.353,315.042-10.583,235.111,1.188z"/>
		<pattern  id="SVGID_1_" xlink:href="#Polka_dots_3" patternTransform="matrix(0.3571 0 0 0.3571 -5732.793 -4166.9775)">
		</pattern>
		<path style="fill:url(#SVGID_1_);" d="M170.87,72.232c-27.318-9.881-33.183-32.881-25.462-49.372
			c-23.024,16.735-10.554,56.378,10.236,66.118c39.353,18.436,93.535,30.726,141.443,5.267c8.667-4.606,14.805-10.894,18.613-18.047
			C272.411,87.074,204.917,84.547,170.87,72.232z"/>
	</g>
</g>
<g id="Layer_1">
</g>
</svg>
