<?xml version="1.0" encoding="iso-8859-1"?>
<!-- Generator: Adobe Illustrator 18.1.1, SVG Export Plug-In . SVG Version: 6.00 Build 0)  -->
<svg version="1.1" xmlns="http://www.w3.org/2000/svg" xmlns:xlink="http://www.w3.org/1999/xlink" x="0px" y="0px"
	 viewBox="0 0 2616.391 940.903" style="enable-background:new 0 0 2616.391 940.903;" xml:space="preserve">
<pattern  x="1000" y="-139.097" width="46.5" height="46.5" patternUnits="userSpaceOnUse" id="Polka_dots_3" viewBox="0 -54.125 46.5 46.5" style="overflow:visible;">
	<g>
		<polygon style="fill:none;" points="0,-54.125 46.5,-54.125 46.5,-7.625 0,-7.625 		"/>
		<path style="fill:#227569;" d="M33.25-5c0,2.761-2.239,5-5,5s-5-2.239-5-5s2.239-5,5-5S33.25-7.761,33.25-5z"/>
		<path style="fill:#227569;" d="M10-5c0,2.761-2.239,5-5,5S0-2.238,0-5s2.239-5,5-5S10-7.761,10-5z"/>
		<path style="fill:#227569;" d="M44.875-28.25c0,2.761-2.239,5-5,5c-2.761,0-5-2.239-5-5s2.239-5,5-5
			C42.637-33.25,44.875-31.011,44.875-28.25z"/>
		<path style="fill:#227569;" d="M21.625-28.25c0,2.761-2.239,5-5,5s-5-2.239-5-5s2.239-5,5-5S21.625-31.011,21.625-28.25z"/>
		<path style="fill:#227569;" d="M33.25-51.5c0,2.761-2.239,5-5,5s-5-2.239-5-5c0-2.761,2.239-5,5-5S33.25-54.262,33.25-51.5z"/>
		<path style="fill:#227569;" d="M10-51.5c0,2.761-2.239,5-5,5s-5-2.239-5-5c0-2.761,2.239-5,5-5S10-54.262,10-51.5z"/>
	</g>
</pattern>
<g id="land_x5F_1">
	<path style="fill:#29AF96;" d="M-5.871,609.689c0,0,319.788-45.005,498.196-105.011s656.407-165.016,844.914-159.016
		c188.507,6.001,195.239,117.012,380.38,117.012s407.309-138.014,565.52-138.014s242.366,12.001,333.253-18.002V951.85H14.326
		C14.326,951.85,0.862,609.689-5.871,609.689z"/>
	<g>
		<g>
			<path style="fill:#1F3F4D;" d="M1062.01,517.215c-0.616-2.463-5.61-25.821,8.586-86.158
				c13.049-55.455-0.124-157.87-0.259-158.898l28.322-3.712c0.578,4.405,13.989,108.605-0.258,169.153
				c-12.445,52.895-8.646,72.802-8.607,72.997l-0.073-0.309L1062.01,517.215z"/>
		</g>
		<path style="fill:#289983;" d="M1101.332,66.091c58.608,10.419,13.38,115.751,62.515,161.497
			c75.539,70.329,7.348,150.212-50.793,153.683c-87.261,5.21-112.519-14.14-128.937-58.608
			c-22.028-59.659-3.777-180.29,33.862-231.827C1036.981,64.818,1079.163,62.15,1101.332,66.091z"/>
		<pattern  id="SVGID_1_" xlink:href="#Polka_dots_3" patternTransform="matrix(0.5713 0 0 0.5713 -3785.0669 -2782.4731)">
		</pattern>
		<path style="opacity:0.5;fill:url(#SVGID_1_);" d="M1011.982,284.117c-19.339-35.916-11.049-133.712-6.961-171.386
			c-28.557,58.376-40.224,157.605-20.904,209.931c16.418,44.467,41.677,63.817,128.937,58.608c15.08-0.9,30.83-6.95,44.579-16.631
			C1073.382,358.612,1031.73,320.792,1011.982,284.117z"/>
	</g>
	<g>
		<g>
			<path style="fill:#1F3F4D;" d="M1638.32,464.892c-68.432-11.404-79.568-79.236-75.895-113.506l24.823,2.658l-12.411-1.329
				l12.415,1.301c-0.317,3.093-7.049,75.88,55.175,86.251L1638.32,464.892z"/>
		</g>
		<g>
			<path style="fill:#1F3F4D;" d="M1667.678,633.402l-43.307-5.784c0.046-0.36,5.199-43.051-12.922-87.025
				c-20.735-50.323-2.54-83.054,15.055-114.71c5.85-10.527,11.901-21.41,16.748-33.344c12.472-30.708-5.836-130.177-20.306-185.662
				l42.277-11.026c6.862,26.307,39.997,160.227,18.508,213.131c-5.847,14.394-12.856,27.005-19.039,38.129
				c-15.939,28.675-25.561,45.986-12.847,76.837C1674.581,579.121,1667.971,631.211,1667.678,633.402z"/>
		</g>
		<path style="fill:#25897D;" d="M1879.113,205.772c0,106.008-32.99,169.45-232.432,179.947
			c-141.154,7.429-226.962-38.401-232.432-97.471c-14.996-161.952,38.907-193.661,253.426-278.918
			C1784.641-37.156,1879.113,99.765,1879.113,205.772z"/>
		<pattern  id="SVGID_2_" xlink:href="#Polka_dots_3" patternTransform="matrix(1.1654 0 0 1.1654 1436.2339 1045.8425)">
		</pattern>
		<path style="opacity:0.5;fill:url(#SVGID_2_);" d="M1804.214,344.912c-42.131,37.449-127.952-20.285-240.3-62.416
			c-87.777-32.916-97.449-131.555-97.482-173.126c-1.439,1.221-2.841,2.451-4.216,3.688c-0.426,0.383-0.833,0.772-1.253,1.157
			c-0.937,0.859-1.871,1.72-2.779,2.588c-0.494,0.473-0.97,0.951-1.456,1.427c-0.805,0.789-1.608,1.579-2.389,2.376
			c-0.507,0.518-1,1.041-1.498,1.562c-0.731,0.767-1.458,1.536-2.168,2.31c-0.498,0.543-0.985,1.09-1.471,1.637
			c-0.68,0.765-1.353,1.532-2.013,2.305c-0.48,0.562-0.953,1.126-1.422,1.692c-0.643,0.776-1.274,1.557-1.897,2.341
			c-0.452,0.569-0.901,1.139-1.342,1.713c-0.614,0.798-1.213,1.603-1.806,2.41c-0.419,0.57-0.84,1.14-1.249,1.715
			c-0.597,0.839-1.175,1.687-1.751,2.536c-0.376,0.555-0.759,1.108-1.126,1.668c-0.597,0.91-1.172,1.832-1.745,2.755
			c-0.319,0.513-0.647,1.021-0.959,1.537c-0.665,1.104-1.305,2.222-1.937,3.345c-0.195,0.346-0.401,0.685-0.593,1.032
			c-0.82,1.486-1.613,2.989-2.377,4.51c-0.132,0.262-0.252,0.531-0.382,0.794c-0.619,1.253-1.227,2.514-1.809,3.791
			c-0.243,0.532-0.469,1.076-0.706,1.612c-0.45,1.022-0.898,2.044-1.325,3.082c-0.257,0.625-0.5,1.261-0.749,1.892
			c-0.383,0.97-0.763,1.941-1.126,2.925c-0.248,0.673-0.486,1.355-0.725,2.035c-0.339,0.961-0.673,1.926-0.993,2.901
			c-0.233,0.71-0.459,1.426-0.683,2.143c-0.302,0.969-0.598,1.943-0.884,2.926c-0.212,0.731-0.42,1.466-0.624,2.205
			c-0.275,0.999-0.539,2.007-0.797,3.022c-0.188,0.739-0.375,1.48-0.554,2.227c-0.249,1.04-0.485,2.092-0.717,3.147
			c-0.164,0.745-0.33,1.487-0.485,2.24c-0.226,1.098-0.437,2.211-0.646,3.326c-0.137,0.729-0.279,1.452-0.408,2.188
			c-0.213,1.218-0.407,2.455-0.6,3.694c-0.102,0.654-0.213,1.299-0.309,1.959c-0.232,1.594-0.442,3.212-0.642,4.842
			c-0.039,0.322-0.087,0.634-0.125,0.958c-0.232,1.965-0.44,3.957-0.625,5.975c-0.051,0.559-0.09,1.133-0.138,1.696
			c-0.125,1.463-0.246,2.929-0.348,4.42c-0.053,0.784-0.093,1.584-0.14,2.376c-0.077,1.297-0.153,2.595-0.213,3.913
			c-0.04,0.877-0.068,1.769-0.1,2.655c-0.046,1.26-0.09,2.523-0.121,3.803c-0.022,0.934-0.036,1.879-0.051,2.824
			c-0.02,1.269-0.035,2.543-0.041,3.831c-0.004,0.967-0.003,1.942,0.001,2.919c0.005,1.302,0.016,2.612,0.035,3.934
			c0.014,0.987,0.031,1.978,0.052,2.976c0.029,1.343,0.067,2.7,0.11,4.063c0.032,1.01,0.063,2.019,0.102,3.04
			c0.053,1.398,0.118,2.813,0.185,4.233c0.048,1.011,0.093,2.018,0.147,3.04c0.08,1.495,0.174,3.012,0.268,4.531
			c0.061,0.976,0.116,1.943,0.182,2.929c0.115,1.706,0.247,3.441,0.38,5.177c0.063,0.824,0.118,1.635,0.185,2.466
			c0.208,2.588,0.433,5.206,0.68,7.863c5.47,59.07,91.278,104.9,232.432,97.471c82.588-4.347,136.613-17.781,171.593-39.548
			C1813.531,342.173,1808.895,340.752,1804.214,344.912z"/>
	</g>
</g>
<g id="Layer_1">
</g>
</svg>
