<!-- Generator: Adobe Illustrator 18.1.1, SVG Export Plug-In  -->
<svg version="1.0"
	 xmlns="http://www.w3.org/2000/svg" xmlns:xlink="http://www.w3.org/1999/xlink" xmlns:a="http://ns.adobe.com/AdobeSVGViewerExtensions/3.0/"
	 x="0px" y="0px" width="734.5px" height="550.2px" viewBox="0 0 734.5 550.2" enable-background="new 0 0 734.5 550.2"
	 xml:space="preserve">
<defs>
</defs>
<g>
	<g>
		<path fill="#1F3F4D" d="M432.8,506.7c-26.8-12-42.1-23.5-50.1-30.8l11.4-384.2h-38.7l16.8,379.5c-5.7,5.4-19.7,17.2-46.1,30.8
			c-36.3,18.8-98.5,29.3-98.5,29.3c150.1,41,270.8,2.3,270.8,2.3S477.4,526.6,432.8,506.7z"/>
	</g>
	<path fill="#17AD9F" d="M734.5,75.4c-0.8,36.7-165.9,62.8-368.8,58.2C162.9,128.9-0.8,95.4,0,58.7C0.8,22,165.9-4.1,368.8,0.5
		C571.6,5.1,735.3,38.6,734.5,75.4z"/>
	<path fill="#E1F2F3" d="M701.6,66.7c-0.5,21.1-150.4,34.9-334.9,30.7C182.2,93.2,33,72.7,33.5,51.5C34,30.4,184,16.6,368.5,20.8
		C552.9,25,702.1,45.5,701.6,66.7z"/>
</g>
</svg>
