<!-- Generator: Adobe Illustrator 18.1.1, SVG Export Plug-In  -->
<svg version="1.0"
	 xmlns="http://www.w3.org/2000/svg" xmlns:xlink="http://www.w3.org/1999/xlink" xmlns:a="http://ns.adobe.com/AdobeSVGViewerExtensions/3.0/"
	 x="0px" y="0px" width="2941.1px" height="683.4px" viewBox="0 0 2941.1 683.4" enable-background="new 0 0 2941.1 683.4"
	 xml:space="preserve">
<defs>
</defs>
<g>
	<polygon fill="#27ACA0" points="0,394.9 291.3,388.1 275.8,171.7 622.9,199.2 622.9,319.4 827.5,288.5 821.3,99.6 1025.8,92.7 
		1044.4,257.6 1230.4,271.3 1221.1,96.2 1469,0 1475.2,364 1534.1,350.3 1531,271.3 1620.9,285 1630.2,429.3 1645.7,432.7 
		1648.8,113.3 1865.7,144.2 1828.5,432.7 1868.8,436.1 1868.8,302.2 2073.4,305.6 2064.1,439.6 2178.7,412.1 2175.6,123.6 
		2380.2,154.5 2370.9,491.1 2432.9,487.7 2414.3,257.6 2566.1,261 2563,37.8 2736.6,68.7 2742.8,261 2866.7,264.4 2941.1,683.4 
		12.4,676.5 	"/>
	<polygon fill="#E2F3F4" points="316.9,249.3 331.4,249.3 328.3,213.8 316.9,215 	"/>
	<polygon fill="#E2F3F4" points="344.1,262.7 343.4,236 357.2,232.9 359.3,270.3 	"/>
	<polygon fill="#E2F3F4" points="317.9,300.8 330.3,299.3 332.4,269.6 317.3,268 	"/>
	<polygon fill="#E2F3F4" points="853.8,148.2 857.9,182.5 870.3,178.7 866.9,147.4 	"/>
	<polygon fill="#E2F3F4" points="855.2,200.9 865.5,203.9 862,223.8 852.4,225.3 	"/>
	<polygon fill="#E2F3F4" points="878.6,171.9 880.6,201.6 889.6,197.8 889.6,168 	"/>
	<polygon fill="#E2F3F4" points="1251.9,117.7 1252.9,134.8 1436.8,126.8 1432.7,102.8 	"/>
	<polygon fill="#E2F3F4" points="1549.4,305.4 1551.5,330.6 1565.9,327.2 1561.8,305.4 	"/>
	<polygon fill="#E2F3F4" points="1664.1,154.3 1666.2,174.9 1682.7,173.8 1674.4,145.2 	"/>
	<polygon fill="#E2F3F4" points="1700.2,174.9 1695.1,147.4 1709.5,148.6 1709.5,176.1 	"/>
	<polygon fill="#E2F3F4" points="1267,329.8 1269.8,378.7 1290.4,378.7 1286.3,328.3 	"/>
	<polygon fill="#E2F3F4" points="1309.7,378.7 1334.5,374.1 1323.5,326.8 1301.5,329.8 	"/>
	<polygon fill="#E2F3F4" points="1902,331.4 2048.1,339 2048.1,369.5 1899.3,349.7 	"/>
	<polygon fill="#E2F3F4" points="1904.8,369.5 2024.6,384.8 2017.8,403.1 1903.4,383.3 	"/>
	<polygon fill="#E2F3F4" points="2342.8,174.2 2337.3,218.4 2360.8,215.4 2355.2,169.6 	"/>
	<polygon fill="#E2F3F4" points="2302.9,204.7 2323.6,203.2 2319.4,255.1 2296,247.4 	"/>
	<polygon fill="#E2F3F4" points="2442,300.8 2443.4,332.9 2462.7,329.8 2462.7,300.8 	"/>
	<polygon fill="#E2F3F4" points="2589.4,71.9 2713.4,84.1 2716.1,102.4 2586.7,88.7 	"/>
</g>
</svg>
