<!-- Generator: Adobe Illustrator 18.1.1, SVG Export Plug-In  -->
<svg version="1.0"
	 xmlns="http://www.w3.org/2000/svg" xmlns:xlink="http://www.w3.org/1999/xlink" xmlns:a="http://ns.adobe.com/AdobeSVGViewerExtensions/3.0/"
	 x="0px" y="0px" width="2861.3px" height="1363.8px" viewBox="0 0 2861.3 1363.8" enable-background="new 0 0 2861.3 1363.8"
	 xml:space="preserve">
<defs>
</defs>
<path fill="#FAD19D" d="M60.5,384.8c0,0,289.9,216.6,711.1,176.2c421.3-40.4,729.9-188.3,1015.1-188.2
	c285.2,0.1,495,206,784.4,221.7C2860.5,610.3,2861.3,12,2861.3,12L25.3,0L0,222.9L60.5,384.8z"/>
<g opacity="0.63">
	<polygon fill="#F9E6A1" points="1660.2,1363.8 1634.9,559 2045.8,556.8 2057.4,1308.7 	"/>
	<polygon fill="#F7F4B4" points="1953.9,784.6 1731.2,780.2 1723.2,611.1 1955.5,624.4 	"/>
	<polygon fill="#FFFFFF" points="1934.7,753.7 1749.3,750.9 1742.7,642 1936.1,650.5 	"/>
</g>
</svg>
