<!-- Generator: Adobe Illustrator 18.1.1, SVG Export Plug-In  -->
<svg version="1.0"
	 xmlns="http://www.w3.org/2000/svg" xmlns:xlink="http://www.w3.org/1999/xlink" xmlns:a="http://ns.adobe.com/AdobeSVGViewerExtensions/3.0/"
	 x="0px" y="0px" width="1719.2px" height="612.5px" viewBox="0 0 1719.2 612.5" enable-background="new 0 0 1719.2 612.5"
	 xml:space="preserve">
<defs>
</defs>
<g>
	<path fill="#F8A71B" d="M881.6,609.9c0,0-45.5-3.1-85.2-25.2s75.7-18.3,75.7-18.3L881.6,609.9z"/>
	<path fill="#F8A71B" d="M1053.6,554.8c0,0-45.5-3.1-85.2-25.2c-39.7-22.2,75.7-18.3,75.7-18.3L1053.6,554.8z"/>
	<polygon fill="#FAE7A2" points="190.4,239.6 95.2,0 303.9,42.4 363.5,220.1 	"/>
	<path fill="#F7C517" d="M167.5,300.3c0,0,34.4,91.7,710.7,128.4s770.3,25.2,793.3,9.2c22.9-16,71.1-61.9,34.4-114.6
		c-36.7-52.7-117.3-154-269.4-152.5c-227,2.3-494.1,12.6-794.4,26.4S169.8,174.2,167.5,300.3z"/>
	<g>
		<path fill="#FBB616" d="M642.1,197.2c-266.1,12.2-431.5-15.2-467.2,66.1c59.5,23,152.6,48.1,265.5,41.6
			c199.5-11.5,304.9-55,417.3-16s314.1,110,520.4,20.6c102-44.2,201.7-52,276.5-48.5c-46-45.9-115.9-91.2-218-90.2
			C1209.5,173.1,942.4,183.4,642.1,197.2z"/>
	</g>
	<path fill="#FAE7A2" d="M811.7,368.4c0,0,111.6-16.8,246.1-15.3c134.5,1.5,159,32.1,168.1,62.7s-195.6,142.1-392.8,169.7
		s-371.4,36.7-365.3,15.3S683.3,522.7,811.7,368.4z"/>
	<ellipse fill="#F7C517" cx="1055.9" cy="519.3" rx="40.1" ry="35.5"/>
	<ellipse fill="#F8A71B" cx="1055.9" cy="519.3" rx="28.7" ry="25.4"/>
	<ellipse fill="#F7C517" cx="881.6" cy="574.3" rx="40.1" ry="35.5"/>
	<ellipse fill="#F8A71B" cx="881.6" cy="574.3" rx="32.4" ry="28.7"/>
	<g>
		<path fill="#FCFADA" d="M1705.9,323.3c-7.7-11.1-17.4-24.3-29.2-38.3c-15.3,8.4-31,24.1-40.7,53.2c-15.7,47.1,1.7,85.9,15.8,107.2
			c10.1-2.2,15.9-4.8,19.8-7.4C1694.4,421.9,1742.5,376,1705.9,323.3z"/>
	</g>
	<g>
		<path fill="#FCFADA" d="M1436.5,170.8c-30.8,0.3-62.3,0.8-94.5,1.4c-13.2,24.4-28.4,71.4,38.3,88c81.3,20.3,231.8-2.6,265.1-8
			C1599.4,209.5,1532,169.8,1436.5,170.8z"/>
	</g>
	<circle fill="#FCFADA" cx="1198" cy="229.3" r="26.4"/>
	<circle fill="#FCFADA" cx="1106.3" cy="233.9" r="26.4"/>
	<path fill="#FAE7A2" d="M192.7,263.7c0,0,114.6-10.3,153.6,18.3s-17.2,47-142.1,55s-207.5-3.4-204-17.2S192.7,263.7,192.7,263.7z"
		/>
	<circle fill="#FCFADA" cx="1014.6" cy="236.1" r="26.4"/>
	<circle fill="#FCFADA" cx="922.9" cy="238.4" r="26.4"/>
	<circle fill="#FCFADA" cx="831.2" cy="240.7" r="26.4"/>
	<circle fill="#FCFADA" cx="739.5" cy="243" r="26.4"/>
</g>
</svg>
