<!-- Generator: Adobe Illustrator 18.1.1, SVG Export Plug-In  -->
<svg version="1.0"
	 xmlns="http://www.w3.org/2000/svg" xmlns:xlink="http://www.w3.org/1999/xlink" xmlns:a="http://ns.adobe.com/AdobeSVGViewerExtensions/3.0/"
	 x="0px" y="0px" width="2147px" height="955px" viewBox="0 0 2147 955" enable-background="new 0 0 2147 955" xml:space="preserve"
	>
<defs>
</defs>
<path fill="#FFDC48" d="M1975,955H112C50.1,955,0,904.8,0,843V163.4c0-61.9,50.1-112,112-112h1863c61.9,0,112,50.1,112,112V843
	C2087,904.8,2036.9,955,1975,955z"/>
<path fill="#FFFFFF" d="M2035,903.6H172c-61.9,0-112-50.1-112-112V112C60,50.1,110.1,0,172,0h1863c61.9,0,112,50.1,112,112v679.6
	C2147,853.4,2096.9,903.6,2035,903.6z"/>
</svg>
