<?xml version="1.0" encoding="iso-8859-1"?>
<!-- Generator: Adobe Illustrator 18.1.1, SVG Export Plug-In . SVG Version: 6.00 Build 0)  -->
<svg version="1.1" xmlns="http://www.w3.org/2000/svg" xmlns:xlink="http://www.w3.org/1999/xlink" x="0px" y="0px"
	 viewBox="0 0 680.213 631.488" style="enable-background:new 0 0 680.213 631.488;" xml:space="preserve">
<g id="pipa_susu">
	<path style="fill:#176076;" d="M680.213,6.619c0,0-170.439-41.371-187.295,82.743c-16.857,124.114,28.094,406.82-65.553,455.086
		c-129.264,66.624-301.471,58.796-323.97-35.699l-53.997-6c0,0,10.99,112.427,121.494,124.494s269.584,1.672,320.154-74.176
		c67.014-100.512,23.919-388.036,44.951-463.705c20.602-74.124,140.471-17.238,140.471-17.238L680.213,6.619z"/>
	<g>
		<path style="fill:#004262;" d="M154.757,446.5c0,37.692-33.241,68.247-74.246,68.247S6.264,484.192,6.264,446.5H154.757z"/>
		<path style="fill:#176076;" d="M0.113,448.796L0.113,448.796c0.763,5.128,5.27,8.979,10.664,9.112l137.285,3.401
			c7.824,0.194,14.004-6.323,13.072-13.782v0c-0.774-6.191-6.245-10.851-12.741-10.851H11.063
			C4.332,436.677-0.839,442.399,0.113,448.796z"/>
	</g>
</g>
<g id="Layer_1">
</g>
</svg>
