<?xml version="1.0" encoding="iso-8859-1"?>
<!-- Generator: Adobe Illustrator 18.1.1, SVG Export Plug-In . SVG Version: 6.00 Build 0)  -->
<svg version="1.1" xmlns="http://www.w3.org/2000/svg" xmlns:xlink="http://www.w3.org/1999/xlink" x="0px" y="0px"
	 viewBox="0 0 3954.167 965.301" style="enable-background:new 0 0 3954.167 965.301;" xml:space="preserve">
<g id="tank__x26__alat2_lain">
	<g>
		<polygon style="fill:#176076;" points="1734.49,813.754 3063.849,821.378 3057.372,741.637 2646.741,724.118 2133.312,730.353 
			1741.458,735.94 		"/>
		<polygon style="fill:#29AF96;" points="1749.511,746.289 2188.259,748.602 2670.253,739.87 3046.688,747.301 3044.597,813.264 
			2654.86,799.409 2131.364,791.819 1748.552,796.192 		"/>
		
			<ellipse transform="matrix(0.9995 0.0317 -0.0317 0.9995 25.4354 -67.1566)" style="fill:#176076;" cx="2131.808" cy="769.023" rx="34.649" ry="23.25"/>
		
			<ellipse transform="matrix(0.9995 0.0317 -0.0317 0.9995 25.374 -58.5308)" style="fill:#176076;" cx="1859.596" cy="771.399" rx="34.649" ry="23.25"/>
		
			<ellipse transform="matrix(0.9995 0.0317 -0.0317 0.9995 25.3799 -62.6545)" style="fill:#176076;" cx="1989.721" cy="769.521" rx="34.649" ry="23.25"/>
		
			<ellipse transform="matrix(0.9995 0.0317 -0.0317 0.9995 25.6877 -79.6656)" style="fill:#176076;" cx="2526.654" cy="770.732" rx="34.649" ry="27.462"/>
		
			<ellipse transform="matrix(0.9995 0.0317 -0.0317 0.9995 25.5457 -71.3624)" style="fill:#176076;" cx="2264.576" cy="770.399" rx="34.649" ry="23.25"/>
		
			<ellipse transform="matrix(0.9995 0.0317 -0.0317 0.9995 25.6551 -75.4745)" style="fill:#176076;" cx="2394.389" cy="771.796" rx="34.649" ry="25.533"/>
	</g>
	<g>
		<path style="fill:#176076;" d="M3440.083,793.746l492.338,0.891c12.683,0.038,22.695-10.956,21.675-23.8v0
			c-0.899-11.32-10.13-20.076-21.307-20.213l-276.864-2.843l-212.05,3.179L3440.083,793.746z"/>
		<path style="fill:#29AF96;" d="M3448.23,756.649l237.423,1.151l221.981-1.307c8.275-0.049,14.798,7.133,14.087,15.511v0
			c-0.634,7.474-6.844,13.184-14.226,13.082l-252.642-3.508l-207.156,2.509L3448.23,756.649z"/>
		
			<ellipse transform="matrix(0.9995 0.0317 -0.0317 0.9995 26.2008 -115.4194)" style="fill:#176076;" cx="3655.099" cy="769.043" rx="18.75" ry="12.783"/>
		
			<ellipse transform="matrix(0.9995 0.0317 -0.0317 0.9995 26.1706 -110.7516)" style="fill:#176076;" cx="3507.794" cy="770.424" rx="18.75" ry="12.783"/>
		
			<ellipse transform="matrix(0.9995 0.0317 -0.0317 0.9995 26.1721 -112.9832)" style="fill:#176076;" cx="3578.21" cy="769.356" rx="18.75" ry="12.783"/>
		
			<ellipse transform="matrix(0.9995 0.0317 -0.0317 0.9995 26.3343 -122.1884)" style="fill:#176076;" cx="3868.766" cy="769.874" rx="18.75" ry="15.099"/>
		
			<ellipse transform="matrix(0.9995 0.0317 -0.0317 0.9995 26.2597 -117.6954)" style="fill:#176076;" cx="3726.945" cy="769.763" rx="18.75" ry="12.783"/>
		
			<ellipse transform="matrix(0.9995 0.0317 -0.0317 0.9995 26.3181 -119.9205)" style="fill:#176076;" cx="3797.192" cy="770.495" rx="18.75" ry="14.039"/>
	</g>
	<g>
		<polygon style="fill:#176076;" points="539.756,813.754 1869.115,821.378 1862.638,741.637 1452.008,724.118 938.578,730.353 
			546.724,735.94 		"/>
		<polygon style="fill:#29AF96;" points="554.778,746.289 993.525,748.602 1475.52,739.87 1851.954,747.301 1849.864,813.264 
			1460.126,799.409 936.63,791.819 553.818,796.192 		"/>
		
			<ellipse transform="matrix(0.9995 0.0317 -0.0317 0.9995 24.8356 -29.3035)" style="fill:#176076;" cx="937.074" cy="769.023" rx="34.649" ry="23.25"/>
		
			<ellipse transform="matrix(0.9995 0.0317 -0.0317 0.9995 24.7742 -20.6777)" style="fill:#176076;" cx="664.862" cy="771.399" rx="34.649" ry="23.25"/>
		
			<ellipse transform="matrix(0.9995 0.0317 -0.0317 0.9995 24.7801 -24.8015)" style="fill:#176076;" cx="794.987" cy="769.521" rx="34.649" ry="23.25"/>
		
			<ellipse transform="matrix(0.9995 0.0317 -0.0317 0.9995 25.0879 -41.8126)" style="fill:#176076;" cx="1331.921" cy="770.732" rx="34.649" ry="27.462"/>
		
			<ellipse transform="matrix(0.9995 0.0317 -0.0317 0.9995 24.9459 -33.5093)" style="fill:#176076;" cx="1069.842" cy="770.399" rx="34.649" ry="23.25"/>
		
			<ellipse transform="matrix(0.9995 0.0317 -0.0317 0.9995 25.0553 -37.6215)" style="fill:#176076;" cx="1199.656" cy="771.796" rx="34.649" ry="25.533"/>
	</g>
	<g>
		<path style="fill:#004262;" d="M45.983,216.92c0,0-48.034-23.195-45.203,21.487s-5.689,149.966,4.001,163.02
			c9.69,13.054,43.02-0.425,43.02-0.425L45.983,216.92z"/>
		<path style="fill:#176076;" d="M638.599,1213.145L576.945,183.843c-1.754-28.647-100.594-216-343.515-179.034
			C68.494,29.908,36.287,167.153,36.311,191.53c0.184,187.031-1.111,920.246-32.356,1010.859L638.599,1213.145z M449.579,289.313
			l63.459-9.949l11.31,299.819l-78.251-16.233L449.579,289.313z"/>
		<path style="fill:#004262;" d="M522.213,255.91l-92.503,22.056l-1.191,302.457l117.129,18.599L522.213,255.91z M449.579,289.313
			l63.459-9.949l11.31,299.819l-78.251-16.233L449.579,289.313z"/>
		<polygon style="fill:#004262;" points="553.175,711.372 550.27,742.191 521.075,744.8 529.668,716.535 		"/>
		<polygon style="fill:#004262;" points="526.171,768.617 527.1,799.289 551.266,797.895 549.872,770.011 		"/>
		<polygon style="fill:#004262;" points="527.565,824.716 527.565,853.994 556.843,855.388 548.478,821.928 		"/>
		<path style="fill:#004262;" d="M36.508,187.651l538.901-11.134c-0.999-3.299-2.483-7.249-4.471-11.723L37.9,178.12
			C37.19,181.836,36.74,185.048,36.508,187.651z"/>
		<path style="fill:#004262;" d="M606.325,674.325l-0.708-11.821L33.341,649.596c-0.05,3.325-0.1,6.652-0.151,9.979L606.325,674.325
			z"/>
		<circle style="fill:#004262;" cx="496.992" cy="152.492" r="6.669"/>
		<circle style="fill:#004262;" cx="529.716" cy="152.492" r="6.669"/>
		<circle style="fill:#004262;" cx="71.407" cy="163.646" r="6.669"/>
		<circle style="fill:#004262;" cx="104.131" cy="163.646" r="6.669"/>
		<circle style="fill:#004262;" cx="540.112" cy="646.825" r="6.669"/>
		<circle style="fill:#004262;" cx="572.835" cy="646.825" r="6.669"/>
		<circle style="fill:#004262;" cx="60.195" cy="634.874" r="6.669"/>
		<circle style="fill:#004262;" cx="92.919" cy="634.874" r="6.669"/>
	</g>
	<g>
		<polygon style="fill:#FBF6B3;" points="1941.301,441.335 1923.763,922.882 1837.254,908.696 1853.377,342.82 		"/>
		<polygon style="fill:#FBF6B3;" points="1262.467,428.255 1270.342,909.54 1357.151,893.571 1352.389,327.908 		"/>
		<polygon style="fill:#F6A61C;" points="1288.25,215.39 1313.06,607.89 1316.161,978.249 1885.236,978.249 1886.786,704.505 
			1891.438,239.544 1523.943,207.339 		"/>
		<polygon style="fill:#FBF6B3;" points="1255.652,160.758 1263.257,223.643 1918.864,242.276 1931.033,211.998 1555.314,170.074 		
			"/>
		<g>
			<polygon style="fill:#FBF6B3;" points="1315.772,931.837 1885.421,945.563 1885.583,916.831 1534.798,883.647 1315.321,877.862 
							"/>
		</g>
		<g>
			<polygon style="fill:#E1F2F2;" points="1528.805,474.047 1516.382,306.345 1629.737,326.531 1623.526,466.283 			"/>
			<polygon style="fill:#FBB615;" points="1537.695,457.202 1527.769,323.191 1618.35,339.322 1613.387,450.997 			"/>
			<polygon style="fill:#FBF6B3;" points="1661.828,334.813 1668.04,380.362 1700.13,378.292 1704.271,331.708 			"/>
			<polygon style="fill:#F7C515;" points="1730.152,333.777 1730.152,376.221 1758.102,373.115 1762.242,338.954 			"/>
			<polygon style="fill:#FBF6B3;" points="1718.764,462.142 1718.764,415.558 1752.925,416.594 1751.891,461.108 			"/>
			<polygon style="fill:#F7C515;" points="1657.687,460.072 1651.476,414.524 1694.954,417.63 1692.885,453.861 			"/>
			<circle style="fill:#FBF6B3;" cx="1800.571" cy="399.493" r="27.97"/>
			<circle style="fill:#E1F2F2;" cx="1596.766" cy="428.997" r="10.113"/>
			<circle style="fill:#E1F2F2;" cx="1565.321" cy="406.093" r="16.712"/>
			<circle style="fill:#E1F2F2;" cx="1595.213" cy="375.037" r="5.843"/>
			<circle style="fill:#E1F2F2;" cx="1580.073" cy="351.357" r="3.514"/>
		</g>
	</g>
	<g>
		<polygon style="fill:#FBF6B3;" points="3395.139,614.421 3461.79,582.955 3460.2,840.069 3385.545,810.303 		"/>
		<polygon style="fill:#FBF6B3;" points="2643.894,449.156 2550.154,400.88 2579.98,874.865 2677.981,809.034 		"/>
		<polygon style="fill:#F6A61C;" points="2592.763,229.719 2688.651,1037.249 3407.811,1006.527 3387.263,343.827 		"/>
		<polygon style="fill:#FBF6B3;" points="3320.073,384.759 3328.3,422.603 3352.98,424.249 3348.044,388.05 		"/>
		<polygon style="fill:#FBF6B3;" points="3326.654,473.511 3329.945,504.774 3354.626,508.064 3349.69,465.284 		"/>
		<polygon style="fill:#FBF6B3;" points="3331.59,554.334 3353.335,556.334 3354.98,600.76 3325.963,594.285 		"/>
	</g>
</g>
<g id="Layer_1">
</g>
</svg>
